%TF.GenerationSoftware,KiCad,Pcbnew,(5.1.10)-1*%
%TF.CreationDate,2021-07-15T21:59:59+02:00*%
%TF.ProjectId,PCB,5043422e-6b69-4636-9164-5f7063625858,rev?*%
%TF.SameCoordinates,Original*%
%TF.FileFunction,Soldermask,Bot*%
%TF.FilePolarity,Negative*%
%FSLAX46Y46*%
G04 Gerber Fmt 4.6, Leading zero omitted, Abs format (unit mm)*
G04 Created by KiCad (PCBNEW (5.1.10)-1) date 2021-07-15 21:59:59*
%MOMM*%
%LPD*%
G01*
G04 APERTURE LIST*
%ADD10C,6.000000*%
%ADD11R,0.458000X1.510000*%
%ADD12O,1.700000X1.700000*%
%ADD13R,1.700000X1.700000*%
%ADD14R,1.400000X1.200000*%
%ADD15R,0.300000X0.550000*%
%ADD16R,0.550000X0.300000*%
%ADD17R,1.900000X0.300000*%
%ADD18C,1.950000*%
%ADD19R,0.530000X0.280000*%
%ADD20R,1.060000X0.650000*%
G04 APERTURE END LIST*
D10*
%TO.C,REF\u002A\u002A*%
X108000000Y-118950000D03*
%TD*%
%TO.C,REF\u002A\u002A*%
X181000000Y-118950000D03*
%TD*%
%TO.C,REF\u002A\u002A*%
X181000000Y-90950000D03*
%TD*%
%TO.C,REF\u002A\u002A*%
X108000000Y-90950000D03*
%TD*%
D11*
%TO.C,U1*%
X139730000Y-97750000D03*
X138930000Y-97750000D03*
X138130000Y-97750000D03*
X137330000Y-97750000D03*
X136530000Y-97750000D03*
X135730000Y-97750000D03*
X134930000Y-97750000D03*
X134130000Y-97750000D03*
X133330000Y-97750000D03*
X132530000Y-97750000D03*
X131730000Y-97750000D03*
X130930000Y-97750000D03*
X130130000Y-97750000D03*
X129330000Y-97750000D03*
X128530000Y-97750000D03*
X127730000Y-97750000D03*
X126930000Y-97750000D03*
X126130000Y-97750000D03*
X125330000Y-97750000D03*
X124530000Y-97750000D03*
X123730000Y-97750000D03*
X122930000Y-97750000D03*
X122130000Y-97750000D03*
X121330000Y-97750000D03*
X120530000Y-97750000D03*
X119730000Y-97750000D03*
X118930000Y-97750000D03*
X118930000Y-109250000D03*
X119730000Y-109250000D03*
X120530000Y-109250000D03*
X121330000Y-109250000D03*
X122130000Y-109250000D03*
X122930000Y-109250000D03*
X123730000Y-109250000D03*
X124530000Y-109250000D03*
X125330000Y-109250000D03*
X126130000Y-109250000D03*
X126930000Y-109250000D03*
X127730000Y-109250000D03*
X128530000Y-109250000D03*
X129330000Y-109250000D03*
X130130000Y-109250000D03*
X130930000Y-109250000D03*
X131730000Y-109250000D03*
X132530000Y-109250000D03*
X133330000Y-109250000D03*
X134130000Y-109250000D03*
X134930000Y-109250000D03*
X135730000Y-109250000D03*
X136530000Y-109250000D03*
X137330000Y-109250000D03*
X138130000Y-109250000D03*
X138930000Y-109250000D03*
X139730000Y-109250000D03*
%TD*%
D12*
%TO.C,J1*%
X170460000Y-90010000D03*
X170460000Y-92550000D03*
X167920000Y-90010000D03*
X167920000Y-92550000D03*
X165380000Y-90010000D03*
X165380000Y-92550000D03*
X162840000Y-90010000D03*
X162840000Y-92550000D03*
X160300000Y-90010000D03*
D13*
X160300000Y-92550000D03*
%TD*%
%TO.C,U5*%
G36*
G01*
X160210000Y-110665000D02*
X160210000Y-110365000D01*
G75*
G02*
X160360000Y-110215000I150000J0D01*
G01*
X161660000Y-110215000D01*
G75*
G02*
X161810000Y-110365000I0J-150000D01*
G01*
X161810000Y-110665000D01*
G75*
G02*
X161660000Y-110815000I-150000J0D01*
G01*
X160360000Y-110815000D01*
G75*
G02*
X160210000Y-110665000I0J150000D01*
G01*
G37*
G36*
G01*
X160210000Y-109395000D02*
X160210000Y-109095000D01*
G75*
G02*
X160360000Y-108945000I150000J0D01*
G01*
X161660000Y-108945000D01*
G75*
G02*
X161810000Y-109095000I0J-150000D01*
G01*
X161810000Y-109395000D01*
G75*
G02*
X161660000Y-109545000I-150000J0D01*
G01*
X160360000Y-109545000D01*
G75*
G02*
X160210000Y-109395000I0J150000D01*
G01*
G37*
G36*
G01*
X160210000Y-108125000D02*
X160210000Y-107825000D01*
G75*
G02*
X160360000Y-107675000I150000J0D01*
G01*
X161660000Y-107675000D01*
G75*
G02*
X161810000Y-107825000I0J-150000D01*
G01*
X161810000Y-108125000D01*
G75*
G02*
X161660000Y-108275000I-150000J0D01*
G01*
X160360000Y-108275000D01*
G75*
G02*
X160210000Y-108125000I0J150000D01*
G01*
G37*
G36*
G01*
X160210000Y-106855000D02*
X160210000Y-106555000D01*
G75*
G02*
X160360000Y-106405000I150000J0D01*
G01*
X161660000Y-106405000D01*
G75*
G02*
X161810000Y-106555000I0J-150000D01*
G01*
X161810000Y-106855000D01*
G75*
G02*
X161660000Y-107005000I-150000J0D01*
G01*
X160360000Y-107005000D01*
G75*
G02*
X160210000Y-106855000I0J150000D01*
G01*
G37*
G36*
G01*
X167410000Y-106855000D02*
X167410000Y-106555000D01*
G75*
G02*
X167560000Y-106405000I150000J0D01*
G01*
X168860000Y-106405000D01*
G75*
G02*
X169010000Y-106555000I0J-150000D01*
G01*
X169010000Y-106855000D01*
G75*
G02*
X168860000Y-107005000I-150000J0D01*
G01*
X167560000Y-107005000D01*
G75*
G02*
X167410000Y-106855000I0J150000D01*
G01*
G37*
G36*
G01*
X167410000Y-108125000D02*
X167410000Y-107825000D01*
G75*
G02*
X167560000Y-107675000I150000J0D01*
G01*
X168860000Y-107675000D01*
G75*
G02*
X169010000Y-107825000I0J-150000D01*
G01*
X169010000Y-108125000D01*
G75*
G02*
X168860000Y-108275000I-150000J0D01*
G01*
X167560000Y-108275000D01*
G75*
G02*
X167410000Y-108125000I0J150000D01*
G01*
G37*
G36*
G01*
X167410000Y-109395000D02*
X167410000Y-109095000D01*
G75*
G02*
X167560000Y-108945000I150000J0D01*
G01*
X168860000Y-108945000D01*
G75*
G02*
X169010000Y-109095000I0J-150000D01*
G01*
X169010000Y-109395000D01*
G75*
G02*
X168860000Y-109545000I-150000J0D01*
G01*
X167560000Y-109545000D01*
G75*
G02*
X167410000Y-109395000I0J150000D01*
G01*
G37*
G36*
G01*
X167410000Y-110665000D02*
X167410000Y-110365000D01*
G75*
G02*
X167560000Y-110215000I150000J0D01*
G01*
X168860000Y-110215000D01*
G75*
G02*
X169010000Y-110365000I0J-150000D01*
G01*
X169010000Y-110665000D01*
G75*
G02*
X168860000Y-110815000I-150000J0D01*
G01*
X167560000Y-110815000D01*
G75*
G02*
X167410000Y-110665000I0J150000D01*
G01*
G37*
%TD*%
%TO.C,R19*%
G36*
G01*
X139610000Y-89055000D02*
X139610000Y-89425000D01*
G75*
G02*
X139475000Y-89560000I-135000J0D01*
G01*
X139205000Y-89560000D01*
G75*
G02*
X139070000Y-89425000I0J135000D01*
G01*
X139070000Y-89055000D01*
G75*
G02*
X139205000Y-88920000I135000J0D01*
G01*
X139475000Y-88920000D01*
G75*
G02*
X139610000Y-89055000I0J-135000D01*
G01*
G37*
G36*
G01*
X140630000Y-89055000D02*
X140630000Y-89425000D01*
G75*
G02*
X140495000Y-89560000I-135000J0D01*
G01*
X140225000Y-89560000D01*
G75*
G02*
X140090000Y-89425000I0J135000D01*
G01*
X140090000Y-89055000D01*
G75*
G02*
X140225000Y-88920000I135000J0D01*
G01*
X140495000Y-88920000D01*
G75*
G02*
X140630000Y-89055000I0J-135000D01*
G01*
G37*
%TD*%
%TO.C,D30*%
G36*
G01*
X137460000Y-89526250D02*
X137460000Y-89013750D01*
G75*
G02*
X137678750Y-88795000I218750J0D01*
G01*
X138116250Y-88795000D01*
G75*
G02*
X138335000Y-89013750I0J-218750D01*
G01*
X138335000Y-89526250D01*
G75*
G02*
X138116250Y-89745000I-218750J0D01*
G01*
X137678750Y-89745000D01*
G75*
G02*
X137460000Y-89526250I0J218750D01*
G01*
G37*
G36*
G01*
X135885000Y-89526250D02*
X135885000Y-89013750D01*
G75*
G02*
X136103750Y-88795000I218750J0D01*
G01*
X136541250Y-88795000D01*
G75*
G02*
X136760000Y-89013750I0J-218750D01*
G01*
X136760000Y-89526250D01*
G75*
G02*
X136541250Y-89745000I-218750J0D01*
G01*
X136103750Y-89745000D01*
G75*
G02*
X135885000Y-89526250I0J218750D01*
G01*
G37*
%TD*%
%TO.C,R18*%
G36*
G01*
X159585000Y-110760000D02*
X159215000Y-110760000D01*
G75*
G02*
X159080000Y-110625000I0J135000D01*
G01*
X159080000Y-110355000D01*
G75*
G02*
X159215000Y-110220000I135000J0D01*
G01*
X159585000Y-110220000D01*
G75*
G02*
X159720000Y-110355000I0J-135000D01*
G01*
X159720000Y-110625000D01*
G75*
G02*
X159585000Y-110760000I-135000J0D01*
G01*
G37*
G36*
G01*
X159585000Y-111780000D02*
X159215000Y-111780000D01*
G75*
G02*
X159080000Y-111645000I0J135000D01*
G01*
X159080000Y-111375000D01*
G75*
G02*
X159215000Y-111240000I135000J0D01*
G01*
X159585000Y-111240000D01*
G75*
G02*
X159720000Y-111375000I0J-135000D01*
G01*
X159720000Y-111645000D01*
G75*
G02*
X159585000Y-111780000I-135000J0D01*
G01*
G37*
%TD*%
%TO.C,R4*%
G36*
G01*
X159615000Y-108320000D02*
X159245000Y-108320000D01*
G75*
G02*
X159110000Y-108185000I0J135000D01*
G01*
X159110000Y-107915000D01*
G75*
G02*
X159245000Y-107780000I135000J0D01*
G01*
X159615000Y-107780000D01*
G75*
G02*
X159750000Y-107915000I0J-135000D01*
G01*
X159750000Y-108185000D01*
G75*
G02*
X159615000Y-108320000I-135000J0D01*
G01*
G37*
G36*
G01*
X159615000Y-109340000D02*
X159245000Y-109340000D01*
G75*
G02*
X159110000Y-109205000I0J135000D01*
G01*
X159110000Y-108935000D01*
G75*
G02*
X159245000Y-108800000I135000J0D01*
G01*
X159615000Y-108800000D01*
G75*
G02*
X159750000Y-108935000I0J-135000D01*
G01*
X159750000Y-109205000D01*
G75*
G02*
X159615000Y-109340000I-135000J0D01*
G01*
G37*
%TD*%
%TO.C,FB12*%
G36*
G01*
X171366250Y-110990000D02*
X170853750Y-110990000D01*
G75*
G02*
X170635000Y-110771250I0J218750D01*
G01*
X170635000Y-110333750D01*
G75*
G02*
X170853750Y-110115000I218750J0D01*
G01*
X171366250Y-110115000D01*
G75*
G02*
X171585000Y-110333750I0J-218750D01*
G01*
X171585000Y-110771250D01*
G75*
G02*
X171366250Y-110990000I-218750J0D01*
G01*
G37*
G36*
G01*
X171366250Y-112565000D02*
X170853750Y-112565000D01*
G75*
G02*
X170635000Y-112346250I0J218750D01*
G01*
X170635000Y-111908750D01*
G75*
G02*
X170853750Y-111690000I218750J0D01*
G01*
X171366250Y-111690000D01*
G75*
G02*
X171585000Y-111908750I0J-218750D01*
G01*
X171585000Y-112346250D01*
G75*
G02*
X171366250Y-112565000I-218750J0D01*
G01*
G37*
%TD*%
%TO.C,C2*%
G36*
G01*
X169640000Y-111170000D02*
X169980000Y-111170000D01*
G75*
G02*
X170120000Y-111310000I0J-140000D01*
G01*
X170120000Y-111590000D01*
G75*
G02*
X169980000Y-111730000I-140000J0D01*
G01*
X169640000Y-111730000D01*
G75*
G02*
X169500000Y-111590000I0J140000D01*
G01*
X169500000Y-111310000D01*
G75*
G02*
X169640000Y-111170000I140000J0D01*
G01*
G37*
G36*
G01*
X169640000Y-110210000D02*
X169980000Y-110210000D01*
G75*
G02*
X170120000Y-110350000I0J-140000D01*
G01*
X170120000Y-110630000D01*
G75*
G02*
X169980000Y-110770000I-140000J0D01*
G01*
X169640000Y-110770000D01*
G75*
G02*
X169500000Y-110630000I0J140000D01*
G01*
X169500000Y-110350000D01*
G75*
G02*
X169640000Y-110210000I140000J0D01*
G01*
G37*
%TD*%
D14*
%TO.C,X1*%
X164798269Y-101349275D03*
X162398269Y-101349275D03*
X162398269Y-103249275D03*
X164798269Y-103249275D03*
%TD*%
%TO.C,FB11*%
G36*
G01*
X173900000Y-98476250D02*
X173900000Y-97963750D01*
G75*
G02*
X174118750Y-97745000I218750J0D01*
G01*
X174556250Y-97745000D01*
G75*
G02*
X174775000Y-97963750I0J-218750D01*
G01*
X174775000Y-98476250D01*
G75*
G02*
X174556250Y-98695000I-218750J0D01*
G01*
X174118750Y-98695000D01*
G75*
G02*
X173900000Y-98476250I0J218750D01*
G01*
G37*
G36*
G01*
X172325000Y-98476250D02*
X172325000Y-97963750D01*
G75*
G02*
X172543750Y-97745000I218750J0D01*
G01*
X172981250Y-97745000D01*
G75*
G02*
X173200000Y-97963750I0J-218750D01*
G01*
X173200000Y-98476250D01*
G75*
G02*
X172981250Y-98695000I-218750J0D01*
G01*
X172543750Y-98695000D01*
G75*
G02*
X172325000Y-98476250I0J218750D01*
G01*
G37*
%TD*%
%TO.C,FB10*%
G36*
G01*
X115290000Y-111453750D02*
X115290000Y-111966250D01*
G75*
G02*
X115071250Y-112185000I-218750J0D01*
G01*
X114633750Y-112185000D01*
G75*
G02*
X114415000Y-111966250I0J218750D01*
G01*
X114415000Y-111453750D01*
G75*
G02*
X114633750Y-111235000I218750J0D01*
G01*
X115071250Y-111235000D01*
G75*
G02*
X115290000Y-111453750I0J-218750D01*
G01*
G37*
G36*
G01*
X116865000Y-111453750D02*
X116865000Y-111966250D01*
G75*
G02*
X116646250Y-112185000I-218750J0D01*
G01*
X116208750Y-112185000D01*
G75*
G02*
X115990000Y-111966250I0J218750D01*
G01*
X115990000Y-111453750D01*
G75*
G02*
X116208750Y-111235000I218750J0D01*
G01*
X116646250Y-111235000D01*
G75*
G02*
X116865000Y-111453750I0J-218750D01*
G01*
G37*
%TD*%
%TO.C,FB9*%
G36*
G01*
X166294899Y-101981766D02*
X166807399Y-101981766D01*
G75*
G02*
X167026149Y-102200516I0J-218750D01*
G01*
X167026149Y-102638016D01*
G75*
G02*
X166807399Y-102856766I-218750J0D01*
G01*
X166294899Y-102856766D01*
G75*
G02*
X166076149Y-102638016I0J218750D01*
G01*
X166076149Y-102200516D01*
G75*
G02*
X166294899Y-101981766I218750J0D01*
G01*
G37*
G36*
G01*
X166294899Y-100406766D02*
X166807399Y-100406766D01*
G75*
G02*
X167026149Y-100625516I0J-218750D01*
G01*
X167026149Y-101063016D01*
G75*
G02*
X166807399Y-101281766I-218750J0D01*
G01*
X166294899Y-101281766D01*
G75*
G02*
X166076149Y-101063016I0J218750D01*
G01*
X166076149Y-100625516D01*
G75*
G02*
X166294899Y-100406766I218750J0D01*
G01*
G37*
%TD*%
%TO.C,FB8*%
G36*
G01*
X157250000Y-116443750D02*
X157250000Y-116956250D01*
G75*
G02*
X157031250Y-117175000I-218750J0D01*
G01*
X156593750Y-117175000D01*
G75*
G02*
X156375000Y-116956250I0J218750D01*
G01*
X156375000Y-116443750D01*
G75*
G02*
X156593750Y-116225000I218750J0D01*
G01*
X157031250Y-116225000D01*
G75*
G02*
X157250000Y-116443750I0J-218750D01*
G01*
G37*
G36*
G01*
X158825000Y-116443750D02*
X158825000Y-116956250D01*
G75*
G02*
X158606250Y-117175000I-218750J0D01*
G01*
X158168750Y-117175000D01*
G75*
G02*
X157950000Y-116956250I0J218750D01*
G01*
X157950000Y-116443750D01*
G75*
G02*
X158168750Y-116225000I218750J0D01*
G01*
X158606250Y-116225000D01*
G75*
G02*
X158825000Y-116443750I0J-218750D01*
G01*
G37*
%TD*%
%TO.C,FB2*%
G36*
G01*
X131650000Y-113106250D02*
X131650000Y-112593750D01*
G75*
G02*
X131868750Y-112375000I218750J0D01*
G01*
X132306250Y-112375000D01*
G75*
G02*
X132525000Y-112593750I0J-218750D01*
G01*
X132525000Y-113106250D01*
G75*
G02*
X132306250Y-113325000I-218750J0D01*
G01*
X131868750Y-113325000D01*
G75*
G02*
X131650000Y-113106250I0J218750D01*
G01*
G37*
G36*
G01*
X130075000Y-113106250D02*
X130075000Y-112593750D01*
G75*
G02*
X130293750Y-112375000I218750J0D01*
G01*
X130731250Y-112375000D01*
G75*
G02*
X130950000Y-112593750I0J-218750D01*
G01*
X130950000Y-113106250D01*
G75*
G02*
X130731250Y-113325000I-218750J0D01*
G01*
X130293750Y-113325000D01*
G75*
G02*
X130075000Y-113106250I0J218750D01*
G01*
G37*
%TD*%
%TO.C,FB1*%
G36*
G01*
X139600000Y-113306250D02*
X139600000Y-112793750D01*
G75*
G02*
X139818750Y-112575000I218750J0D01*
G01*
X140256250Y-112575000D01*
G75*
G02*
X140475000Y-112793750I0J-218750D01*
G01*
X140475000Y-113306250D01*
G75*
G02*
X140256250Y-113525000I-218750J0D01*
G01*
X139818750Y-113525000D01*
G75*
G02*
X139600000Y-113306250I0J218750D01*
G01*
G37*
G36*
G01*
X138025000Y-113306250D02*
X138025000Y-112793750D01*
G75*
G02*
X138243750Y-112575000I218750J0D01*
G01*
X138681250Y-112575000D01*
G75*
G02*
X138900000Y-112793750I0J-218750D01*
G01*
X138900000Y-113306250D01*
G75*
G02*
X138681250Y-113525000I-218750J0D01*
G01*
X138243750Y-113525000D01*
G75*
G02*
X138025000Y-113306250I0J218750D01*
G01*
G37*
%TD*%
%TO.C,C1*%
G36*
G01*
X115275000Y-109950000D02*
X115275000Y-110450000D01*
G75*
G02*
X115050000Y-110675000I-225000J0D01*
G01*
X114600000Y-110675000D01*
G75*
G02*
X114375000Y-110450000I0J225000D01*
G01*
X114375000Y-109950000D01*
G75*
G02*
X114600000Y-109725000I225000J0D01*
G01*
X115050000Y-109725000D01*
G75*
G02*
X115275000Y-109950000I0J-225000D01*
G01*
G37*
G36*
G01*
X116825000Y-109950000D02*
X116825000Y-110450000D01*
G75*
G02*
X116600000Y-110675000I-225000J0D01*
G01*
X116150000Y-110675000D01*
G75*
G02*
X115925000Y-110450000I0J225000D01*
G01*
X115925000Y-109950000D01*
G75*
G02*
X116150000Y-109725000I225000J0D01*
G01*
X116600000Y-109725000D01*
G75*
G02*
X116825000Y-109950000I0J-225000D01*
G01*
G37*
%TD*%
%TO.C,C35*%
G36*
G01*
X166751148Y-103640245D02*
X166751148Y-103300245D01*
G75*
G02*
X166891148Y-103160245I140000J0D01*
G01*
X167171148Y-103160245D01*
G75*
G02*
X167311148Y-103300245I0J-140000D01*
G01*
X167311148Y-103640245D01*
G75*
G02*
X167171148Y-103780245I-140000J0D01*
G01*
X166891148Y-103780245D01*
G75*
G02*
X166751148Y-103640245I0J140000D01*
G01*
G37*
G36*
G01*
X165791148Y-103640245D02*
X165791148Y-103300245D01*
G75*
G02*
X165931148Y-103160245I140000J0D01*
G01*
X166211148Y-103160245D01*
G75*
G02*
X166351148Y-103300245I0J-140000D01*
G01*
X166351148Y-103640245D01*
G75*
G02*
X166211148Y-103780245I-140000J0D01*
G01*
X165931148Y-103780245D01*
G75*
G02*
X165791148Y-103640245I0J140000D01*
G01*
G37*
%TD*%
%TO.C,C29*%
G36*
G01*
X173560000Y-100995000D02*
X174060000Y-100995000D01*
G75*
G02*
X174285000Y-101220000I0J-225000D01*
G01*
X174285000Y-101670000D01*
G75*
G02*
X174060000Y-101895000I-225000J0D01*
G01*
X173560000Y-101895000D01*
G75*
G02*
X173335000Y-101670000I0J225000D01*
G01*
X173335000Y-101220000D01*
G75*
G02*
X173560000Y-100995000I225000J0D01*
G01*
G37*
G36*
G01*
X173560000Y-99445000D02*
X174060000Y-99445000D01*
G75*
G02*
X174285000Y-99670000I0J-225000D01*
G01*
X174285000Y-100120000D01*
G75*
G02*
X174060000Y-100345000I-225000J0D01*
G01*
X173560000Y-100345000D01*
G75*
G02*
X173335000Y-100120000I0J225000D01*
G01*
X173335000Y-99670000D01*
G75*
G02*
X173560000Y-99445000I225000J0D01*
G01*
G37*
%TD*%
%TO.C,C28*%
G36*
G01*
X161750000Y-114875000D02*
X161250000Y-114875000D01*
G75*
G02*
X161025000Y-114650000I0J225000D01*
G01*
X161025000Y-114200000D01*
G75*
G02*
X161250000Y-113975000I225000J0D01*
G01*
X161750000Y-113975000D01*
G75*
G02*
X161975000Y-114200000I0J-225000D01*
G01*
X161975000Y-114650000D01*
G75*
G02*
X161750000Y-114875000I-225000J0D01*
G01*
G37*
G36*
G01*
X161750000Y-116425000D02*
X161250000Y-116425000D01*
G75*
G02*
X161025000Y-116200000I0J225000D01*
G01*
X161025000Y-115750000D01*
G75*
G02*
X161250000Y-115525000I225000J0D01*
G01*
X161750000Y-115525000D01*
G75*
G02*
X161975000Y-115750000I0J-225000D01*
G01*
X161975000Y-116200000D01*
G75*
G02*
X161750000Y-116425000I-225000J0D01*
G01*
G37*
%TD*%
%TO.C,C26*%
G36*
G01*
X157275000Y-114950000D02*
X157275000Y-115450000D01*
G75*
G02*
X157050000Y-115675000I-225000J0D01*
G01*
X156600000Y-115675000D01*
G75*
G02*
X156375000Y-115450000I0J225000D01*
G01*
X156375000Y-114950000D01*
G75*
G02*
X156600000Y-114725000I225000J0D01*
G01*
X157050000Y-114725000D01*
G75*
G02*
X157275000Y-114950000I0J-225000D01*
G01*
G37*
G36*
G01*
X158825000Y-114950000D02*
X158825000Y-115450000D01*
G75*
G02*
X158600000Y-115675000I-225000J0D01*
G01*
X158150000Y-115675000D01*
G75*
G02*
X157925000Y-115450000I0J225000D01*
G01*
X157925000Y-114950000D01*
G75*
G02*
X158150000Y-114725000I225000J0D01*
G01*
X158600000Y-114725000D01*
G75*
G02*
X158825000Y-114950000I0J-225000D01*
G01*
G37*
%TD*%
%TO.C,C25*%
G36*
G01*
X148150000Y-117875000D02*
X148650000Y-117875000D01*
G75*
G02*
X148875000Y-118100000I0J-225000D01*
G01*
X148875000Y-118550000D01*
G75*
G02*
X148650000Y-118775000I-225000J0D01*
G01*
X148150000Y-118775000D01*
G75*
G02*
X147925000Y-118550000I0J225000D01*
G01*
X147925000Y-118100000D01*
G75*
G02*
X148150000Y-117875000I225000J0D01*
G01*
G37*
G36*
G01*
X148150000Y-116325000D02*
X148650000Y-116325000D01*
G75*
G02*
X148875000Y-116550000I0J-225000D01*
G01*
X148875000Y-117000000D01*
G75*
G02*
X148650000Y-117225000I-225000J0D01*
G01*
X148150000Y-117225000D01*
G75*
G02*
X147925000Y-117000000I0J225000D01*
G01*
X147925000Y-116550000D01*
G75*
G02*
X148150000Y-116325000I225000J0D01*
G01*
G37*
%TD*%
%TO.C,C24*%
G36*
G01*
X153650000Y-117975000D02*
X154150000Y-117975000D01*
G75*
G02*
X154375000Y-118200000I0J-225000D01*
G01*
X154375000Y-118650000D01*
G75*
G02*
X154150000Y-118875000I-225000J0D01*
G01*
X153650000Y-118875000D01*
G75*
G02*
X153425000Y-118650000I0J225000D01*
G01*
X153425000Y-118200000D01*
G75*
G02*
X153650000Y-117975000I225000J0D01*
G01*
G37*
G36*
G01*
X153650000Y-116425000D02*
X154150000Y-116425000D01*
G75*
G02*
X154375000Y-116650000I0J-225000D01*
G01*
X154375000Y-117100000D01*
G75*
G02*
X154150000Y-117325000I-225000J0D01*
G01*
X153650000Y-117325000D01*
G75*
G02*
X153425000Y-117100000I0J225000D01*
G01*
X153425000Y-116650000D01*
G75*
G02*
X153650000Y-116425000I225000J0D01*
G01*
G37*
%TD*%
%TO.C,R2*%
G36*
G01*
X158688520Y-99169909D02*
X158426891Y-98908280D01*
G75*
G02*
X158426891Y-98717362I95459J95459D01*
G01*
X158617810Y-98526443D01*
G75*
G02*
X158808728Y-98526443I95459J-95459D01*
G01*
X159070357Y-98788072D01*
G75*
G02*
X159070357Y-98978990I-95459J-95459D01*
G01*
X158879438Y-99169909D01*
G75*
G02*
X158688520Y-99169909I-95459J95459D01*
G01*
G37*
G36*
G01*
X157967272Y-99891157D02*
X157705643Y-99629528D01*
G75*
G02*
X157705643Y-99438610I95459J95459D01*
G01*
X157896562Y-99247691D01*
G75*
G02*
X158087480Y-99247691I95459J-95459D01*
G01*
X158349109Y-99509320D01*
G75*
G02*
X158349109Y-99700238I-95459J-95459D01*
G01*
X158158190Y-99891157D01*
G75*
G02*
X157967272Y-99891157I-95459J95459D01*
G01*
G37*
%TD*%
%TO.C,R1*%
G36*
G01*
X157376280Y-98587291D02*
X157637909Y-98848920D01*
G75*
G02*
X157637909Y-99039838I-95459J-95459D01*
G01*
X157446990Y-99230757D01*
G75*
G02*
X157256072Y-99230757I-95459J95459D01*
G01*
X156994443Y-98969128D01*
G75*
G02*
X156994443Y-98778210I95459J95459D01*
G01*
X157185362Y-98587291D01*
G75*
G02*
X157376280Y-98587291I95459J-95459D01*
G01*
G37*
G36*
G01*
X158097528Y-97866043D02*
X158359157Y-98127672D01*
G75*
G02*
X158359157Y-98318590I-95459J-95459D01*
G01*
X158168238Y-98509509D01*
G75*
G02*
X157977320Y-98509509I-95459J95459D01*
G01*
X157715691Y-98247880D01*
G75*
G02*
X157715691Y-98056962I95459J95459D01*
G01*
X157906610Y-97866043D01*
G75*
G02*
X158097528Y-97866043I95459J-95459D01*
G01*
G37*
%TD*%
%TO.C,C34*%
G36*
G01*
X133130000Y-111500000D02*
X133470000Y-111500000D01*
G75*
G02*
X133610000Y-111640000I0J-140000D01*
G01*
X133610000Y-111920000D01*
G75*
G02*
X133470000Y-112060000I-140000J0D01*
G01*
X133130000Y-112060000D01*
G75*
G02*
X132990000Y-111920000I0J140000D01*
G01*
X132990000Y-111640000D01*
G75*
G02*
X133130000Y-111500000I140000J0D01*
G01*
G37*
G36*
G01*
X133130000Y-110540000D02*
X133470000Y-110540000D01*
G75*
G02*
X133610000Y-110680000I0J-140000D01*
G01*
X133610000Y-110960000D01*
G75*
G02*
X133470000Y-111100000I-140000J0D01*
G01*
X133130000Y-111100000D01*
G75*
G02*
X132990000Y-110960000I0J140000D01*
G01*
X132990000Y-110680000D01*
G75*
G02*
X133130000Y-110540000I140000J0D01*
G01*
G37*
%TD*%
%TO.C,C33*%
G36*
G01*
X137930000Y-111500000D02*
X138270000Y-111500000D01*
G75*
G02*
X138410000Y-111640000I0J-140000D01*
G01*
X138410000Y-111920000D01*
G75*
G02*
X138270000Y-112060000I-140000J0D01*
G01*
X137930000Y-112060000D01*
G75*
G02*
X137790000Y-111920000I0J140000D01*
G01*
X137790000Y-111640000D01*
G75*
G02*
X137930000Y-111500000I140000J0D01*
G01*
G37*
G36*
G01*
X137930000Y-110540000D02*
X138270000Y-110540000D01*
G75*
G02*
X138410000Y-110680000I0J-140000D01*
G01*
X138410000Y-110960000D01*
G75*
G02*
X138270000Y-111100000I-140000J0D01*
G01*
X137930000Y-111100000D01*
G75*
G02*
X137790000Y-110960000I0J140000D01*
G01*
X137790000Y-110680000D01*
G75*
G02*
X137930000Y-110540000I140000J0D01*
G01*
G37*
%TD*%
%TO.C,C32*%
G36*
G01*
X131070000Y-95500000D02*
X130730000Y-95500000D01*
G75*
G02*
X130590000Y-95360000I0J140000D01*
G01*
X130590000Y-95080000D01*
G75*
G02*
X130730000Y-94940000I140000J0D01*
G01*
X131070000Y-94940000D01*
G75*
G02*
X131210000Y-95080000I0J-140000D01*
G01*
X131210000Y-95360000D01*
G75*
G02*
X131070000Y-95500000I-140000J0D01*
G01*
G37*
G36*
G01*
X131070000Y-96460000D02*
X130730000Y-96460000D01*
G75*
G02*
X130590000Y-96320000I0J140000D01*
G01*
X130590000Y-96040000D01*
G75*
G02*
X130730000Y-95900000I140000J0D01*
G01*
X131070000Y-95900000D01*
G75*
G02*
X131210000Y-96040000I0J-140000D01*
G01*
X131210000Y-96320000D01*
G75*
G02*
X131070000Y-96460000I-140000J0D01*
G01*
G37*
%TD*%
%TO.C,C31*%
G36*
G01*
X135870000Y-95500000D02*
X135530000Y-95500000D01*
G75*
G02*
X135390000Y-95360000I0J140000D01*
G01*
X135390000Y-95080000D01*
G75*
G02*
X135530000Y-94940000I140000J0D01*
G01*
X135870000Y-94940000D01*
G75*
G02*
X136010000Y-95080000I0J-140000D01*
G01*
X136010000Y-95360000D01*
G75*
G02*
X135870000Y-95500000I-140000J0D01*
G01*
G37*
G36*
G01*
X135870000Y-96460000D02*
X135530000Y-96460000D01*
G75*
G02*
X135390000Y-96320000I0J140000D01*
G01*
X135390000Y-96040000D01*
G75*
G02*
X135530000Y-95900000I140000J0D01*
G01*
X135870000Y-95900000D01*
G75*
G02*
X136010000Y-96040000I0J-140000D01*
G01*
X136010000Y-96320000D01*
G75*
G02*
X135870000Y-96460000I-140000J0D01*
G01*
G37*
%TD*%
%TO.C,C30*%
G36*
G01*
X139630000Y-111500000D02*
X139970000Y-111500000D01*
G75*
G02*
X140110000Y-111640000I0J-140000D01*
G01*
X140110000Y-111920000D01*
G75*
G02*
X139970000Y-112060000I-140000J0D01*
G01*
X139630000Y-112060000D01*
G75*
G02*
X139490000Y-111920000I0J140000D01*
G01*
X139490000Y-111640000D01*
G75*
G02*
X139630000Y-111500000I140000J0D01*
G01*
G37*
G36*
G01*
X139630000Y-110540000D02*
X139970000Y-110540000D01*
G75*
G02*
X140110000Y-110680000I0J-140000D01*
G01*
X140110000Y-110960000D01*
G75*
G02*
X139970000Y-111100000I-140000J0D01*
G01*
X139630000Y-111100000D01*
G75*
G02*
X139490000Y-110960000I0J140000D01*
G01*
X139490000Y-110680000D01*
G75*
G02*
X139630000Y-110540000I140000J0D01*
G01*
G37*
%TD*%
%TO.C,C27*%
G36*
G01*
X161012000Y-118255600D02*
X161352000Y-118255600D01*
G75*
G02*
X161492000Y-118395600I0J-140000D01*
G01*
X161492000Y-118675600D01*
G75*
G02*
X161352000Y-118815600I-140000J0D01*
G01*
X161012000Y-118815600D01*
G75*
G02*
X160872000Y-118675600I0J140000D01*
G01*
X160872000Y-118395600D01*
G75*
G02*
X161012000Y-118255600I140000J0D01*
G01*
G37*
G36*
G01*
X161012000Y-117295600D02*
X161352000Y-117295600D01*
G75*
G02*
X161492000Y-117435600I0J-140000D01*
G01*
X161492000Y-117715600D01*
G75*
G02*
X161352000Y-117855600I-140000J0D01*
G01*
X161012000Y-117855600D01*
G75*
G02*
X160872000Y-117715600I0J140000D01*
G01*
X160872000Y-117435600D01*
G75*
G02*
X161012000Y-117295600I140000J0D01*
G01*
G37*
%TD*%
%TO.C,C21*%
G36*
G01*
X118730000Y-111500000D02*
X119070000Y-111500000D01*
G75*
G02*
X119210000Y-111640000I0J-140000D01*
G01*
X119210000Y-111920000D01*
G75*
G02*
X119070000Y-112060000I-140000J0D01*
G01*
X118730000Y-112060000D01*
G75*
G02*
X118590000Y-111920000I0J140000D01*
G01*
X118590000Y-111640000D01*
G75*
G02*
X118730000Y-111500000I140000J0D01*
G01*
G37*
G36*
G01*
X118730000Y-110540000D02*
X119070000Y-110540000D01*
G75*
G02*
X119210000Y-110680000I0J-140000D01*
G01*
X119210000Y-110960000D01*
G75*
G02*
X119070000Y-111100000I-140000J0D01*
G01*
X118730000Y-111100000D01*
G75*
G02*
X118590000Y-110960000I0J140000D01*
G01*
X118590000Y-110680000D01*
G75*
G02*
X118730000Y-110540000I140000J0D01*
G01*
G37*
%TD*%
%TO.C,C18*%
G36*
G01*
X129130000Y-111500000D02*
X129470000Y-111500000D01*
G75*
G02*
X129610000Y-111640000I0J-140000D01*
G01*
X129610000Y-111920000D01*
G75*
G02*
X129470000Y-112060000I-140000J0D01*
G01*
X129130000Y-112060000D01*
G75*
G02*
X128990000Y-111920000I0J140000D01*
G01*
X128990000Y-111640000D01*
G75*
G02*
X129130000Y-111500000I140000J0D01*
G01*
G37*
G36*
G01*
X129130000Y-110540000D02*
X129470000Y-110540000D01*
G75*
G02*
X129610000Y-110680000I0J-140000D01*
G01*
X129610000Y-110960000D01*
G75*
G02*
X129470000Y-111100000I-140000J0D01*
G01*
X129130000Y-111100000D01*
G75*
G02*
X128990000Y-110960000I0J140000D01*
G01*
X128990000Y-110680000D01*
G75*
G02*
X129130000Y-110540000I140000J0D01*
G01*
G37*
%TD*%
%TO.C,C16*%
G36*
G01*
X148234817Y-97398025D02*
X148475233Y-97157609D01*
G75*
G02*
X148673223Y-97157609I98995J-98995D01*
G01*
X148871213Y-97355599D01*
G75*
G02*
X148871213Y-97553589I-98995J-98995D01*
G01*
X148630797Y-97794005D01*
G75*
G02*
X148432807Y-97794005I-98995J98995D01*
G01*
X148234817Y-97596015D01*
G75*
G02*
X148234817Y-97398025I98995J98995D01*
G01*
G37*
G36*
G01*
X147555995Y-96719203D02*
X147796411Y-96478787D01*
G75*
G02*
X147994401Y-96478787I98995J-98995D01*
G01*
X148192391Y-96676777D01*
G75*
G02*
X148192391Y-96874767I-98995J-98995D01*
G01*
X147951975Y-97115183D01*
G75*
G02*
X147753985Y-97115183I-98995J98995D01*
G01*
X147555995Y-96917193D01*
G75*
G02*
X147555995Y-96719203I98995J98995D01*
G01*
G37*
%TD*%
%TO.C,C11*%
G36*
G01*
X148941924Y-96690918D02*
X149182340Y-96450502D01*
G75*
G02*
X149380330Y-96450502I98995J-98995D01*
G01*
X149578320Y-96648492D01*
G75*
G02*
X149578320Y-96846482I-98995J-98995D01*
G01*
X149337904Y-97086898D01*
G75*
G02*
X149139914Y-97086898I-98995J98995D01*
G01*
X148941924Y-96888908D01*
G75*
G02*
X148941924Y-96690918I98995J98995D01*
G01*
G37*
G36*
G01*
X148263102Y-96012096D02*
X148503518Y-95771680D01*
G75*
G02*
X148701508Y-95771680I98995J-98995D01*
G01*
X148899498Y-95969670D01*
G75*
G02*
X148899498Y-96167660I-98995J-98995D01*
G01*
X148659082Y-96408076D01*
G75*
G02*
X148461092Y-96408076I-98995J98995D01*
G01*
X148263102Y-96210086D01*
G75*
G02*
X148263102Y-96012096I98995J98995D01*
G01*
G37*
%TD*%
%TO.C,C9*%
G36*
G01*
X145188371Y-99521213D02*
X145428787Y-99761629D01*
G75*
G02*
X145428787Y-99959619I-98995J-98995D01*
G01*
X145230797Y-100157609D01*
G75*
G02*
X145032807Y-100157609I-98995J98995D01*
G01*
X144792391Y-99917193D01*
G75*
G02*
X144792391Y-99719203I98995J98995D01*
G01*
X144990381Y-99521213D01*
G75*
G02*
X145188371Y-99521213I98995J-98995D01*
G01*
G37*
G36*
G01*
X145867193Y-98842391D02*
X146107609Y-99082807D01*
G75*
G02*
X146107609Y-99280797I-98995J-98995D01*
G01*
X145909619Y-99478787D01*
G75*
G02*
X145711629Y-99478787I-98995J98995D01*
G01*
X145471213Y-99238371D01*
G75*
G02*
X145471213Y-99040381I98995J98995D01*
G01*
X145669203Y-98842391D01*
G75*
G02*
X145867193Y-98842391I98995J-98995D01*
G01*
G37*
%TD*%
%TO.C,C7*%
G36*
G01*
X157227229Y-97866787D02*
X156986813Y-97626371D01*
G75*
G02*
X156986813Y-97428381I98995J98995D01*
G01*
X157184803Y-97230391D01*
G75*
G02*
X157382793Y-97230391I98995J-98995D01*
G01*
X157623209Y-97470807D01*
G75*
G02*
X157623209Y-97668797I-98995J-98995D01*
G01*
X157425219Y-97866787D01*
G75*
G02*
X157227229Y-97866787I-98995J98995D01*
G01*
G37*
G36*
G01*
X156548407Y-98545609D02*
X156307991Y-98305193D01*
G75*
G02*
X156307991Y-98107203I98995J98995D01*
G01*
X156505981Y-97909213D01*
G75*
G02*
X156703971Y-97909213I98995J-98995D01*
G01*
X156944387Y-98149629D01*
G75*
G02*
X156944387Y-98347619I-98995J-98995D01*
G01*
X156746397Y-98545609D01*
G75*
G02*
X156548407Y-98545609I-98995J98995D01*
G01*
G37*
%TD*%
%TO.C,C5*%
G36*
G01*
X145938371Y-100221213D02*
X146178787Y-100461629D01*
G75*
G02*
X146178787Y-100659619I-98995J-98995D01*
G01*
X145980797Y-100857609D01*
G75*
G02*
X145782807Y-100857609I-98995J98995D01*
G01*
X145542391Y-100617193D01*
G75*
G02*
X145542391Y-100419203I98995J98995D01*
G01*
X145740381Y-100221213D01*
G75*
G02*
X145938371Y-100221213I98995J-98995D01*
G01*
G37*
G36*
G01*
X146617193Y-99542391D02*
X146857609Y-99782807D01*
G75*
G02*
X146857609Y-99980797I-98995J-98995D01*
G01*
X146659619Y-100178787D01*
G75*
G02*
X146461629Y-100178787I-98995J98995D01*
G01*
X146221213Y-99938371D01*
G75*
G02*
X146221213Y-99740381I98995J98995D01*
G01*
X146419203Y-99542391D01*
G75*
G02*
X146617193Y-99542391I98995J-98995D01*
G01*
G37*
%TD*%
D15*
%TO.C,D28*%
X175600000Y-98820000D03*
X176300000Y-98820000D03*
%TD*%
%TO.C,D29*%
X113490000Y-111210000D03*
X112790000Y-111210000D03*
%TD*%
%TO.C,D27*%
X175600000Y-97500000D03*
X176300000Y-97500000D03*
%TD*%
%TO.C,D26*%
X175600000Y-101020000D03*
X176300000Y-101020000D03*
%TD*%
%TO.C,D25*%
X175600000Y-103220000D03*
X176300000Y-103220000D03*
%TD*%
D16*
%TO.C,D23*%
X175000000Y-104750000D03*
X175000000Y-105450000D03*
%TD*%
%TO.C,D21*%
X175000000Y-107750000D03*
X175000000Y-108450000D03*
%TD*%
D15*
%TO.C,D20*%
X113490000Y-112450000D03*
X112790000Y-112450000D03*
%TD*%
%TO.C,D19*%
X113490000Y-109010000D03*
X112790000Y-109010000D03*
%TD*%
%TO.C,D18*%
X113490000Y-106810000D03*
X112790000Y-106810000D03*
%TD*%
%TO.C,D17*%
X175600000Y-102120000D03*
X176300000Y-102120000D03*
%TD*%
%TO.C,D16*%
X175600000Y-99920000D03*
X176300000Y-99920000D03*
%TD*%
D16*
%TO.C,D14*%
X175000000Y-107150000D03*
X175000000Y-106450000D03*
%TD*%
%TO.C,D12*%
X114110000Y-104740000D03*
X114110000Y-104040000D03*
%TD*%
%TO.C,D10*%
X114100000Y-101950000D03*
X114100000Y-101250000D03*
%TD*%
%TO.C,D8*%
X174997000Y-110150000D03*
X174997000Y-109450000D03*
%TD*%
D15*
%TO.C,D7*%
X113490000Y-107910000D03*
X112790000Y-107910000D03*
%TD*%
%TO.C,D6*%
X113490000Y-110110000D03*
X112790000Y-110110000D03*
%TD*%
D16*
%TO.C,D4*%
X114110000Y-102770000D03*
X114110000Y-103470000D03*
%TD*%
%TO.C,D2*%
X114100000Y-99550000D03*
X114100000Y-100250000D03*
%TD*%
D17*
%TO.C,J4*%
X178500000Y-109450000D03*
X178500000Y-108950000D03*
X178500000Y-108450000D03*
X178500000Y-107950000D03*
X178500000Y-107450000D03*
X178500000Y-106950000D03*
X178500000Y-106450000D03*
X178500000Y-105950000D03*
X178500000Y-105450000D03*
X178500000Y-104950000D03*
X178500000Y-104450000D03*
X178500000Y-103950000D03*
X178500000Y-103450000D03*
X178500000Y-102950000D03*
X178500000Y-102450000D03*
X178500000Y-101950000D03*
X178500000Y-101450000D03*
X178500000Y-100950000D03*
X178500000Y-100450000D03*
D18*
X179500000Y-97450000D03*
X179500000Y-111950000D03*
X184400000Y-96850000D03*
X184400000Y-112550000D03*
%TD*%
%TO.C,J2*%
X104590000Y-96850000D03*
X104590000Y-112550000D03*
X109490000Y-97450000D03*
X109490000Y-111950000D03*
D17*
X110490000Y-108950000D03*
X110490000Y-108450000D03*
X110490000Y-107950000D03*
X110490000Y-107450000D03*
X110490000Y-106950000D03*
X110490000Y-106450000D03*
X110490000Y-105950000D03*
X110490000Y-105450000D03*
X110490000Y-104950000D03*
X110490000Y-104450000D03*
X110490000Y-103950000D03*
X110490000Y-103450000D03*
X110490000Y-102950000D03*
X110490000Y-102450000D03*
X110490000Y-101950000D03*
X110490000Y-101450000D03*
X110490000Y-100950000D03*
X110490000Y-100450000D03*
X110490000Y-99950000D03*
%TD*%
D19*
%TO.C,U4*%
X159564000Y-116300000D03*
X159564000Y-116700000D03*
X159564000Y-117100000D03*
X160300000Y-117100000D03*
X160300000Y-116700000D03*
X160300000Y-116300000D03*
%TD*%
D20*
%TO.C,U3*%
X150100000Y-116700000D03*
X150100000Y-118600000D03*
X152300000Y-118600000D03*
X152300000Y-117650000D03*
X152300000Y-116700000D03*
%TD*%
D12*
%TO.C,J3*%
X138340000Y-116900000D03*
D13*
X135800000Y-116900000D03*
%TD*%
M02*
