M48
; DRILL file {KiCad (5.1.10)-1} date 07/24/21 21:30:05
; FORMAT={-:-/ absolute / inch / decimal}
; #@! TF.CreationDate,2021-07-24T21:30:05+02:00
; #@! TF.GenerationSoftware,Kicad,Pcbnew,(5.1.10)-1
; #@! TF.FileFunction,Plated,1,4,PTH
FMAT,2
INCH
T1C0.0079
T2C0.0157
T3C0.0394
T4C0.0512
T5C0.1181
%
G90
G05
T1
X4.4276Y-4.1298
X4.4276Y-4.1576
X4.4287Y-3.9165
X4.4316Y-4.0117
X4.4316Y-4.0394
X4.4575Y-3.9169
X4.4877Y-4.3359
X4.4877Y-4.3799
X4.489Y-4.2484
X4.489Y-4.2882
X4.4913Y-4.4339
X4.5126Y-4.2161
X4.5163Y-4.2396
X4.5181Y-4.1957
X4.5335Y-3.9527
X4.5335Y-3.9804
X4.5343Y-4.0708
X4.5343Y-4.0985
X4.5453Y-4.2969
X4.5537Y-4.256
X4.5537Y-4.3699
X4.5837Y-4.2779
X4.5997Y-4.4799
X4.6012Y-3.9894
X4.6807Y-4.4307
X4.6823Y-3.7906
X5.006Y-4.524
X5.006Y-4.632
X5.0906Y-4.4295
X5.1201Y-3.7547
X5.1477Y-4.3919
X5.1777Y-3.7719
X5.2047Y-4.378
X5.2209Y-3.7988
X5.2308Y-3.7709
X5.247Y-4.429
X5.2537Y-4.4739
X5.2705Y-3.7535
X5.338Y-4.412
X5.352Y-4.374
X5.3589Y-4.258
X5.3737Y-3.3759
X5.3737Y-3.8038
X5.3957Y-4.3659
X5.408Y-3.9722
X5.418Y-4.408
X5.438Y-3.81
X5.4705Y-3.9587
X5.4917Y-3.8039
X5.524Y-3.87
X5.5249Y-4.2691
X5.5251Y-4.3061
X5.5317Y-4.3979
X5.5337Y-4.3619
X5.5577Y-4.4179
X5.5587Y-3.8827
X5.561Y-4.0285
X5.5731Y-4.3559
X5.5904Y-3.9806
X5.5994Y-3.7805
X5.6057Y-3.6796
X5.6177Y-4.4259
X5.6213Y-3.9657
X5.6372Y-3.9366
X5.6734Y-3.906
X5.7017Y-3.8839
X5.7094Y-3.9635
X5.7222Y-4.4323
X5.7254Y-4.2687
X5.7579Y-4.6142
X5.7591Y-4.0136
X5.7617Y-3.5774
X5.7735Y-4.451
X5.7837Y-4.5879
X5.7854Y-4.2835
X5.7877Y-3.7939
X5.7903Y-4.1488
X5.7913Y-4.5179
X5.7957Y-4.6719
X5.8049Y-4.0432
X5.8083Y-3.9635
X5.8237Y-3.8619
X5.8277Y-3.7559
X5.8436Y-4.1672
X5.8524Y-4.2815
X5.8557Y-4.5539
X5.8583Y-4.2028
X5.863Y-3.75
X5.8848Y-4.2864
X5.8957Y-3.7559
X5.9017Y-3.7919
X5.939Y-3.811
X5.9437Y-4.4959
X5.9557Y-4.6319
X5.9677Y-4.5259
X5.9697Y-3.9559
X5.9777Y-3.8279
X5.9777Y-3.8759
X5.9843Y-3.6713
X5.9846Y-4.2682
X5.9848Y-4.315
X5.9863Y-4.2913
X5.9945Y-3.6937
X5.9977Y-4.4699
X6.0098Y-4.2677
X6.0291Y-4.2125
X6.0295Y-4.5365
X6.0315Y-3.6969
X6.0354Y-4.2402
X6.0437Y-3.7259
X6.0477Y-3.8799
X6.0577Y-4.2119
X6.0737Y-3.9619
X6.0965Y-4.1772
X6.1037Y-4.6659
X6.1217Y-3.944
X6.122Y-3.7992
X6.1417Y-3.7776
X6.1466Y-3.983
X6.1591Y-3.8192
X6.1684Y-4.1382
X6.1757Y-4.6439
X6.1777Y-4.3499
X6.1817Y-4.4859
X6.1937Y-3.7979
X6.2015Y-3.7496
X6.2146Y-4.0472
X6.2386Y-3.7378
X6.2407Y-4.21
X6.2497Y-3.8519
X6.2624Y-3.754
X6.2684Y-3.9665
X6.2685Y-4.2138
X6.2717Y-4.4979
X6.2874Y-4.0984
X6.2997Y-3.7337
X6.3016Y-3.9697
X6.3134Y-4.0524
X6.3302Y-3.8498
X6.3421Y-3.7583
X6.3537Y-4.5999
X6.3599Y-3.7349
X6.3817Y-4.6579
X6.4897Y-3.7719
X6.5257Y-3.9459
X6.702Y-4.452
X6.7357Y-3.8199
X6.7894Y-4.1189
X6.7897Y-4.4859
X6.8477Y-4.0459
X6.8501Y-4.2755
X6.8501Y-4.3032
X6.8502Y-4.1574
X6.8502Y-4.1851
X6.8897Y-3.8959
X6.8913Y-4.0138
X6.8913Y-4.039
X6.8925Y-3.9772
X6.8937Y-3.8319
X6.8953Y-3.9343
X6.9217Y-4.3366
X6.9476Y-4.0983
X6.9476Y-4.1261
X6.9505Y-4.2165
X6.9505Y-4.2442
X6.9776Y-4.348
T2
X4.2772Y-4.1319
X4.2776Y-4.0138
X4.2778Y-4.0748
X4.2785Y-4.25
X4.2795Y-3.9665
X7.0974Y-4.1122
X7.0974Y-4.2303
X7.0974Y-4.2894
X7.0984Y-3.9941
X7.0988Y-4.1713
T3
X5.3465Y-4.6024
X5.4465Y-4.6024
X6.311Y-3.5437
X6.311Y-3.6437
X6.411Y-3.5437
X6.411Y-3.6437
X6.511Y-3.5437
X6.511Y-3.6437
X6.611Y-3.5437
X6.611Y-3.6437
X6.711Y-3.5437
X6.711Y-3.6437
T4
X4.1177Y-3.813
X4.1177Y-4.4311
X4.3106Y-3.8366
X4.3106Y-4.4075
X7.0669Y-3.8366
X7.0669Y-4.4075
X7.2598Y-3.813
X7.2598Y-4.4311
T5
X4.252Y-3.5807
X4.252Y-4.6831
X7.126Y-4.6831
T0
M30
