%TF.GenerationSoftware,KiCad,Pcbnew,(5.1.10)-1*%
%TF.CreationDate,2021-07-24T11:21:25+02:00*%
%TF.ProjectId,Trugbild,54727567-6269-46c6-942e-6b696361645f,rev?*%
%TF.SameCoordinates,Original*%
%TF.FileFunction,Copper,L1,Top*%
%TF.FilePolarity,Positive*%
%FSLAX46Y46*%
G04 Gerber Fmt 4.6, Leading zero omitted, Abs format (unit mm)*
G04 Created by KiCad (PCBNEW (5.1.10)-1) date 2021-07-24 11:21:25*
%MOMM*%
%LPD*%
G01*
G04 APERTURE LIST*
%TA.AperFunction,NonConductor*%
%ADD10C,0.300000*%
%TD*%
%TA.AperFunction,ComponentPad*%
%ADD11C,6.000000*%
%TD*%
%TA.AperFunction,ComponentPad*%
%ADD12O,1.700000X1.700000*%
%TD*%
%TA.AperFunction,ComponentPad*%
%ADD13R,1.700000X1.700000*%
%TD*%
%TA.AperFunction,SMDPad,CuDef*%
%ADD14R,0.550000X0.300000*%
%TD*%
%TA.AperFunction,ComponentPad*%
%ADD15C,1.950000*%
%TD*%
%TA.AperFunction,SMDPad,CuDef*%
%ADD16R,0.900000X1.200000*%
%TD*%
%TA.AperFunction,ViaPad*%
%ADD17C,0.800000*%
%TD*%
%TA.AperFunction,ViaPad*%
%ADD18C,0.450000*%
%TD*%
%TA.AperFunction,Conductor*%
%ADD19C,0.152400*%
%TD*%
%TA.AperFunction,Conductor*%
%ADD20C,0.889000*%
%TD*%
%TA.AperFunction,Conductor*%
%ADD21C,0.254000*%
%TD*%
%TA.AperFunction,Conductor*%
%ADD22C,0.090000*%
%TD*%
%TA.AperFunction,Conductor*%
%ADD23C,0.088900*%
%TD*%
G04 APERTURE END LIST*
D10*
X118371428Y-122538095D02*
X117628571Y-122538095D01*
X118000000Y-122538095D02*
X118000000Y-121238095D01*
X117876190Y-121423809D01*
X117752380Y-121547619D01*
X117628571Y-121609523D01*
D11*
%TO.P,REF\u002A\u002A,1*%
%TO.N,GND*%
X108000000Y-118950000D03*
%TD*%
%TO.P,REF\u002A\u002A,1*%
%TO.N,GND*%
X181000000Y-118950000D03*
%TD*%
%TO.P,REF\u002A\u002A,1*%
%TO.N,GND*%
X108000000Y-90950000D03*
%TD*%
%TO.P,U2,100*%
%TO.N,/PROG_B*%
%TA.AperFunction,SMDPad,CuDef*%
G36*
G01*
X139831546Y-102598959D02*
X138894630Y-101662043D01*
G75*
G02*
X138894630Y-101555977I53033J53033D01*
G01*
X139000696Y-101449911D01*
G75*
G02*
X139106762Y-101449911I53033J-53033D01*
G01*
X140043678Y-102386827D01*
G75*
G02*
X140043678Y-102492893I-53033J-53033D01*
G01*
X139937612Y-102598959D01*
G75*
G02*
X139831546Y-102598959I-53033J53033D01*
G01*
G37*
%TD.AperFunction*%
%TO.P,U2,99*%
%TO.N,/DQ7*%
%TA.AperFunction,SMDPad,CuDef*%
G36*
G01*
X140185099Y-102245406D02*
X139248183Y-101308490D01*
G75*
G02*
X139248183Y-101202424I53033J53033D01*
G01*
X139354249Y-101096358D01*
G75*
G02*
X139460315Y-101096358I53033J-53033D01*
G01*
X140397231Y-102033274D01*
G75*
G02*
X140397231Y-102139340I-53033J-53033D01*
G01*
X140291165Y-102245406D01*
G75*
G02*
X140185099Y-102245406I-53033J53033D01*
G01*
G37*
%TD.AperFunction*%
%TO.P,U2,98*%
%TO.N,/CKE*%
%TA.AperFunction,SMDPad,CuDef*%
G36*
G01*
X140538652Y-101891852D02*
X139601736Y-100954936D01*
G75*
G02*
X139601736Y-100848870I53033J53033D01*
G01*
X139707802Y-100742804D01*
G75*
G02*
X139813868Y-100742804I53033J-53033D01*
G01*
X140750784Y-101679720D01*
G75*
G02*
X140750784Y-101785786I-53033J-53033D01*
G01*
X140644718Y-101891852D01*
G75*
G02*
X140538652Y-101891852I-53033J53033D01*
G01*
G37*
%TD.AperFunction*%
%TO.P,U2,97*%
%TO.N,N/C*%
%TA.AperFunction,SMDPad,CuDef*%
G36*
G01*
X140892206Y-101538299D02*
X139955290Y-100601383D01*
G75*
G02*
X139955290Y-100495317I53033J53033D01*
G01*
X140061356Y-100389251D01*
G75*
G02*
X140167422Y-100389251I53033J-53033D01*
G01*
X141104338Y-101326167D01*
G75*
G02*
X141104338Y-101432233I-53033J-53033D01*
G01*
X140998272Y-101538299D01*
G75*
G02*
X140892206Y-101538299I-53033J53033D01*
G01*
G37*
%TD.AperFunction*%
%TO.P,U2,96*%
%TO.N,+3V3*%
%TA.AperFunction,SMDPad,CuDef*%
G36*
G01*
X141245759Y-101184745D02*
X140308843Y-100247829D01*
G75*
G02*
X140308843Y-100141763I53033J53033D01*
G01*
X140414909Y-100035697D01*
G75*
G02*
X140520975Y-100035697I53033J-53033D01*
G01*
X141457891Y-100972613D01*
G75*
G02*
X141457891Y-101078679I-53033J-53033D01*
G01*
X141351825Y-101184745D01*
G75*
G02*
X141245759Y-101184745I-53033J53033D01*
G01*
G37*
%TD.AperFunction*%
%TO.P,U2,95*%
%TO.N,GND*%
%TA.AperFunction,SMDPad,CuDef*%
G36*
G01*
X141599313Y-100831192D02*
X140662397Y-99894276D01*
G75*
G02*
X140662397Y-99788210I53033J53033D01*
G01*
X140768463Y-99682144D01*
G75*
G02*
X140874529Y-99682144I53033J-53033D01*
G01*
X141811445Y-100619060D01*
G75*
G02*
X141811445Y-100725126I-53033J-53033D01*
G01*
X141705379Y-100831192D01*
G75*
G02*
X141599313Y-100831192I-53033J53033D01*
G01*
G37*
%TD.AperFunction*%
%TO.P,U2,94*%
%TO.N,/DQM*%
%TA.AperFunction,SMDPad,CuDef*%
G36*
G01*
X141952866Y-100477639D02*
X141015950Y-99540723D01*
G75*
G02*
X141015950Y-99434657I53033J53033D01*
G01*
X141122016Y-99328591D01*
G75*
G02*
X141228082Y-99328591I53033J-53033D01*
G01*
X142164998Y-100265507D01*
G75*
G02*
X142164998Y-100371573I-53033J-53033D01*
G01*
X142058932Y-100477639D01*
G75*
G02*
X141952866Y-100477639I-53033J53033D01*
G01*
G37*
%TD.AperFunction*%
%TO.P,U2,93*%
%TO.N,/DQ4*%
%TA.AperFunction,SMDPad,CuDef*%
G36*
G01*
X142306419Y-100124085D02*
X141369503Y-99187169D01*
G75*
G02*
X141369503Y-99081103I53033J53033D01*
G01*
X141475569Y-98975037D01*
G75*
G02*
X141581635Y-98975037I53033J-53033D01*
G01*
X142518551Y-99911953D01*
G75*
G02*
X142518551Y-100018019I-53033J-53033D01*
G01*
X142412485Y-100124085D01*
G75*
G02*
X142306419Y-100124085I-53033J53033D01*
G01*
G37*
%TD.AperFunction*%
%TO.P,U2,92*%
%TO.N,+3V3*%
%TA.AperFunction,SMDPad,CuDef*%
G36*
G01*
X142659973Y-99770532D02*
X141723057Y-98833616D01*
G75*
G02*
X141723057Y-98727550I53033J53033D01*
G01*
X141829123Y-98621484D01*
G75*
G02*
X141935189Y-98621484I53033J-53033D01*
G01*
X142872105Y-99558400D01*
G75*
G02*
X142872105Y-99664466I-53033J-53033D01*
G01*
X142766039Y-99770532D01*
G75*
G02*
X142659973Y-99770532I-53033J53033D01*
G01*
G37*
%TD.AperFunction*%
%TO.P,U2,91*%
%TO.N,GND*%
%TA.AperFunction,SMDPad,CuDef*%
G36*
G01*
X143013526Y-99416978D02*
X142076610Y-98480062D01*
G75*
G02*
X142076610Y-98373996I53033J53033D01*
G01*
X142182676Y-98267930D01*
G75*
G02*
X142288742Y-98267930I53033J-53033D01*
G01*
X143225658Y-99204846D01*
G75*
G02*
X143225658Y-99310912I-53033J-53033D01*
G01*
X143119592Y-99416978D01*
G75*
G02*
X143013526Y-99416978I-53033J53033D01*
G01*
G37*
%TD.AperFunction*%
%TO.P,U2,90*%
%TO.N,Net-(R19-Pad1)*%
%TA.AperFunction,SMDPad,CuDef*%
G36*
G01*
X143367080Y-99063425D02*
X142430164Y-98126509D01*
G75*
G02*
X142430164Y-98020443I53033J53033D01*
G01*
X142536230Y-97914377D01*
G75*
G02*
X142642296Y-97914377I53033J-53033D01*
G01*
X143579212Y-98851293D01*
G75*
G02*
X143579212Y-98957359I-53033J-53033D01*
G01*
X143473146Y-99063425D01*
G75*
G02*
X143367080Y-99063425I-53033J53033D01*
G01*
G37*
%TD.AperFunction*%
%TO.P,U2,89*%
%TO.N,/CK_IN_N*%
%TA.AperFunction,SMDPad,CuDef*%
G36*
G01*
X143720633Y-98709872D02*
X142783717Y-97772956D01*
G75*
G02*
X142783717Y-97666890I53033J53033D01*
G01*
X142889783Y-97560824D01*
G75*
G02*
X142995849Y-97560824I53033J-53033D01*
G01*
X143932765Y-98497740D01*
G75*
G02*
X143932765Y-98603806I-53033J-53033D01*
G01*
X143826699Y-98709872D01*
G75*
G02*
X143720633Y-98709872I-53033J53033D01*
G01*
G37*
%TD.AperFunction*%
%TO.P,U2,88*%
%TO.N,/CK_IN_P*%
%TA.AperFunction,SMDPad,CuDef*%
G36*
G01*
X144074186Y-98356318D02*
X143137270Y-97419402D01*
G75*
G02*
X143137270Y-97313336I53033J53033D01*
G01*
X143243336Y-97207270D01*
G75*
G02*
X143349402Y-97207270I53033J-53033D01*
G01*
X144286318Y-98144186D01*
G75*
G02*
X144286318Y-98250252I-53033J-53033D01*
G01*
X144180252Y-98356318D01*
G75*
G02*
X144074186Y-98356318I-53033J53033D01*
G01*
G37*
%TD.AperFunction*%
%TO.P,U2,87*%
%TO.N,GND*%
%TA.AperFunction,SMDPad,CuDef*%
G36*
G01*
X144427740Y-98002765D02*
X143490824Y-97065849D01*
G75*
G02*
X143490824Y-96959783I53033J53033D01*
G01*
X143596890Y-96853717D01*
G75*
G02*
X143702956Y-96853717I53033J-53033D01*
G01*
X144639872Y-97790633D01*
G75*
G02*
X144639872Y-97896699I-53033J-53033D01*
G01*
X144533806Y-98002765D01*
G75*
G02*
X144427740Y-98002765I-53033J53033D01*
G01*
G37*
%TD.AperFunction*%
%TO.P,U2,86*%
%TO.N,/D0_IN_N*%
%TA.AperFunction,SMDPad,CuDef*%
G36*
G01*
X144781293Y-97649212D02*
X143844377Y-96712296D01*
G75*
G02*
X143844377Y-96606230I53033J53033D01*
G01*
X143950443Y-96500164D01*
G75*
G02*
X144056509Y-96500164I53033J-53033D01*
G01*
X144993425Y-97437080D01*
G75*
G02*
X144993425Y-97543146I-53033J-53033D01*
G01*
X144887359Y-97649212D01*
G75*
G02*
X144781293Y-97649212I-53033J53033D01*
G01*
G37*
%TD.AperFunction*%
%TO.P,U2,85*%
%TO.N,/D0_IN_P*%
%TA.AperFunction,SMDPad,CuDef*%
G36*
G01*
X145134846Y-97295658D02*
X144197930Y-96358742D01*
G75*
G02*
X144197930Y-96252676I53033J53033D01*
G01*
X144303996Y-96146610D01*
G75*
G02*
X144410062Y-96146610I53033J-53033D01*
G01*
X145346978Y-97083526D01*
G75*
G02*
X145346978Y-97189592I-53033J-53033D01*
G01*
X145240912Y-97295658D01*
G75*
G02*
X145134846Y-97295658I-53033J53033D01*
G01*
G37*
%TD.AperFunction*%
%TO.P,U2,84*%
%TO.N,/D1_IN_N*%
%TA.AperFunction,SMDPad,CuDef*%
G36*
G01*
X145488400Y-96942105D02*
X144551484Y-96005189D01*
G75*
G02*
X144551484Y-95899123I53033J53033D01*
G01*
X144657550Y-95793057D01*
G75*
G02*
X144763616Y-95793057I53033J-53033D01*
G01*
X145700532Y-96729973D01*
G75*
G02*
X145700532Y-96836039I-53033J-53033D01*
G01*
X145594466Y-96942105D01*
G75*
G02*
X145488400Y-96942105I-53033J53033D01*
G01*
G37*
%TD.AperFunction*%
%TO.P,U2,83*%
%TO.N,/D1_IN_P*%
%TA.AperFunction,SMDPad,CuDef*%
G36*
G01*
X145841953Y-96588551D02*
X144905037Y-95651635D01*
G75*
G02*
X144905037Y-95545569I53033J53033D01*
G01*
X145011103Y-95439503D01*
G75*
G02*
X145117169Y-95439503I53033J-53033D01*
G01*
X146054085Y-96376419D01*
G75*
G02*
X146054085Y-96482485I-53033J-53033D01*
G01*
X145948019Y-96588551D01*
G75*
G02*
X145841953Y-96588551I-53033J53033D01*
G01*
G37*
%TD.AperFunction*%
%TO.P,U2,82*%
%TO.N,N/C*%
%TA.AperFunction,SMDPad,CuDef*%
G36*
G01*
X146195507Y-96234998D02*
X145258591Y-95298082D01*
G75*
G02*
X145258591Y-95192016I53033J53033D01*
G01*
X145364657Y-95085950D01*
G75*
G02*
X145470723Y-95085950I53033J-53033D01*
G01*
X146407639Y-96022866D01*
G75*
G02*
X146407639Y-96128932I-53033J-53033D01*
G01*
X146301573Y-96234998D01*
G75*
G02*
X146195507Y-96234998I-53033J53033D01*
G01*
G37*
%TD.AperFunction*%
%TO.P,U2,81*%
%TO.N,+1V2*%
%TA.AperFunction,SMDPad,CuDef*%
G36*
G01*
X146549060Y-95881445D02*
X145612144Y-94944529D01*
G75*
G02*
X145612144Y-94838463I53033J53033D01*
G01*
X145718210Y-94732397D01*
G75*
G02*
X145824276Y-94732397I53033J-53033D01*
G01*
X146761192Y-95669313D01*
G75*
G02*
X146761192Y-95775379I-53033J-53033D01*
G01*
X146655126Y-95881445D01*
G75*
G02*
X146549060Y-95881445I-53033J53033D01*
G01*
G37*
%TD.AperFunction*%
%TO.P,U2,80*%
%TO.N,GND*%
%TA.AperFunction,SMDPad,CuDef*%
G36*
G01*
X146902613Y-95527891D02*
X145965697Y-94590975D01*
G75*
G02*
X145965697Y-94484909I53033J53033D01*
G01*
X146071763Y-94378843D01*
G75*
G02*
X146177829Y-94378843I53033J-53033D01*
G01*
X147114745Y-95315759D01*
G75*
G02*
X147114745Y-95421825I-53033J-53033D01*
G01*
X147008679Y-95527891D01*
G75*
G02*
X146902613Y-95527891I-53033J53033D01*
G01*
G37*
%TD.AperFunction*%
%TO.P,U2,79*%
%TO.N,+3V3*%
%TA.AperFunction,SMDPad,CuDef*%
G36*
G01*
X147256167Y-95174338D02*
X146319251Y-94237422D01*
G75*
G02*
X146319251Y-94131356I53033J53033D01*
G01*
X146425317Y-94025290D01*
G75*
G02*
X146531383Y-94025290I53033J-53033D01*
G01*
X147468299Y-94962206D01*
G75*
G02*
X147468299Y-95068272I-53033J-53033D01*
G01*
X147362233Y-95174338D01*
G75*
G02*
X147256167Y-95174338I-53033J53033D01*
G01*
G37*
%TD.AperFunction*%
%TO.P,U2,78*%
%TO.N,/D2_IN_N*%
%TA.AperFunction,SMDPad,CuDef*%
G36*
G01*
X147609720Y-94820784D02*
X146672804Y-93883868D01*
G75*
G02*
X146672804Y-93777802I53033J53033D01*
G01*
X146778870Y-93671736D01*
G75*
G02*
X146884936Y-93671736I53033J-53033D01*
G01*
X147821852Y-94608652D01*
G75*
G02*
X147821852Y-94714718I-53033J-53033D01*
G01*
X147715786Y-94820784D01*
G75*
G02*
X147609720Y-94820784I-53033J53033D01*
G01*
G37*
%TD.AperFunction*%
%TO.P,U2,77*%
%TO.N,/D2_IN_P*%
%TA.AperFunction,SMDPad,CuDef*%
G36*
G01*
X147963274Y-94467231D02*
X147026358Y-93530315D01*
G75*
G02*
X147026358Y-93424249I53033J53033D01*
G01*
X147132424Y-93318183D01*
G75*
G02*
X147238490Y-93318183I53033J-53033D01*
G01*
X148175406Y-94255099D01*
G75*
G02*
X148175406Y-94361165I-53033J-53033D01*
G01*
X148069340Y-94467231D01*
G75*
G02*
X147963274Y-94467231I-53033J53033D01*
G01*
G37*
%TD.AperFunction*%
%TO.P,U2,76*%
%TO.N,/TCK*%
%TA.AperFunction,SMDPad,CuDef*%
G36*
G01*
X148316827Y-94113678D02*
X147379911Y-93176762D01*
G75*
G02*
X147379911Y-93070696I53033J53033D01*
G01*
X147485977Y-92964630D01*
G75*
G02*
X147592043Y-92964630I53033J-53033D01*
G01*
X148528959Y-93901546D01*
G75*
G02*
X148528959Y-94007612I-53033J-53033D01*
G01*
X148422893Y-94113678D01*
G75*
G02*
X148316827Y-94113678I-53033J53033D01*
G01*
G37*
%TD.AperFunction*%
%TO.P,U2,75*%
%TO.N,/TDO*%
%TA.AperFunction,SMDPad,CuDef*%
G36*
G01*
X149837107Y-94113678D02*
X149731041Y-94007612D01*
G75*
G02*
X149731041Y-93901546I53033J53033D01*
G01*
X150667957Y-92964630D01*
G75*
G02*
X150774023Y-92964630I53033J-53033D01*
G01*
X150880089Y-93070696D01*
G75*
G02*
X150880089Y-93176762I-53033J-53033D01*
G01*
X149943173Y-94113678D01*
G75*
G02*
X149837107Y-94113678I-53033J53033D01*
G01*
G37*
%TD.AperFunction*%
%TO.P,U2,74*%
%TO.N,GND*%
%TA.AperFunction,SMDPad,CuDef*%
G36*
G01*
X150190660Y-94467231D02*
X150084594Y-94361165D01*
G75*
G02*
X150084594Y-94255099I53033J53033D01*
G01*
X151021510Y-93318183D01*
G75*
G02*
X151127576Y-93318183I53033J-53033D01*
G01*
X151233642Y-93424249D01*
G75*
G02*
X151233642Y-93530315I-53033J-53033D01*
G01*
X150296726Y-94467231D01*
G75*
G02*
X150190660Y-94467231I-53033J53033D01*
G01*
G37*
%TD.AperFunction*%
%TO.P,U2,73*%
%TO.N,/A11*%
%TA.AperFunction,SMDPad,CuDef*%
G36*
G01*
X150544214Y-94820784D02*
X150438148Y-94714718D01*
G75*
G02*
X150438148Y-94608652I53033J53033D01*
G01*
X151375064Y-93671736D01*
G75*
G02*
X151481130Y-93671736I53033J-53033D01*
G01*
X151587196Y-93777802D01*
G75*
G02*
X151587196Y-93883868I-53033J-53033D01*
G01*
X150650280Y-94820784D01*
G75*
G02*
X150544214Y-94820784I-53033J53033D01*
G01*
G37*
%TD.AperFunction*%
%TO.P,U2,72*%
%TO.N,/A12*%
%TA.AperFunction,SMDPad,CuDef*%
G36*
G01*
X150897767Y-95174338D02*
X150791701Y-95068272D01*
G75*
G02*
X150791701Y-94962206I53033J53033D01*
G01*
X151728617Y-94025290D01*
G75*
G02*
X151834683Y-94025290I53033J-53033D01*
G01*
X151940749Y-94131356D01*
G75*
G02*
X151940749Y-94237422I-53033J-53033D01*
G01*
X151003833Y-95174338D01*
G75*
G02*
X150897767Y-95174338I-53033J53033D01*
G01*
G37*
%TD.AperFunction*%
%TO.P,U2,71*%
%TO.N,/A9*%
%TA.AperFunction,SMDPad,CuDef*%
G36*
G01*
X151251321Y-95527891D02*
X151145255Y-95421825D01*
G75*
G02*
X151145255Y-95315759I53033J53033D01*
G01*
X152082171Y-94378843D01*
G75*
G02*
X152188237Y-94378843I53033J-53033D01*
G01*
X152294303Y-94484909D01*
G75*
G02*
X152294303Y-94590975I-53033J-53033D01*
G01*
X151357387Y-95527891D01*
G75*
G02*
X151251321Y-95527891I-53033J53033D01*
G01*
G37*
%TD.AperFunction*%
%TO.P,U2,70*%
%TO.N,/CLK*%
%TA.AperFunction,SMDPad,CuDef*%
G36*
G01*
X151604874Y-95881445D02*
X151498808Y-95775379D01*
G75*
G02*
X151498808Y-95669313I53033J53033D01*
G01*
X152435724Y-94732397D01*
G75*
G02*
X152541790Y-94732397I53033J-53033D01*
G01*
X152647856Y-94838463D01*
G75*
G02*
X152647856Y-94944529I-53033J-53033D01*
G01*
X151710940Y-95881445D01*
G75*
G02*
X151604874Y-95881445I-53033J53033D01*
G01*
G37*
%TD.AperFunction*%
%TO.P,U2,69*%
%TO.N,GND*%
%TA.AperFunction,SMDPad,CuDef*%
G36*
G01*
X151958427Y-96234998D02*
X151852361Y-96128932D01*
G75*
G02*
X151852361Y-96022866I53033J53033D01*
G01*
X152789277Y-95085950D01*
G75*
G02*
X152895343Y-95085950I53033J-53033D01*
G01*
X153001409Y-95192016D01*
G75*
G02*
X153001409Y-95298082I-53033J-53033D01*
G01*
X152064493Y-96234998D01*
G75*
G02*
X151958427Y-96234998I-53033J53033D01*
G01*
G37*
%TD.AperFunction*%
%TO.P,U2,68*%
%TO.N,N/C*%
%TA.AperFunction,SMDPad,CuDef*%
G36*
G01*
X152311981Y-96588551D02*
X152205915Y-96482485D01*
G75*
G02*
X152205915Y-96376419I53033J53033D01*
G01*
X153142831Y-95439503D01*
G75*
G02*
X153248897Y-95439503I53033J-53033D01*
G01*
X153354963Y-95545569D01*
G75*
G02*
X153354963Y-95651635I-53033J-53033D01*
G01*
X152418047Y-96588551D01*
G75*
G02*
X152311981Y-96588551I-53033J53033D01*
G01*
G37*
%TD.AperFunction*%
%TO.P,U2,67*%
%TO.N,+3V3*%
%TA.AperFunction,SMDPad,CuDef*%
G36*
G01*
X152665534Y-96942105D02*
X152559468Y-96836039D01*
G75*
G02*
X152559468Y-96729973I53033J53033D01*
G01*
X153496384Y-95793057D01*
G75*
G02*
X153602450Y-95793057I53033J-53033D01*
G01*
X153708516Y-95899123D01*
G75*
G02*
X153708516Y-96005189I-53033J-53033D01*
G01*
X152771600Y-96942105D01*
G75*
G02*
X152665534Y-96942105I-53033J53033D01*
G01*
G37*
%TD.AperFunction*%
%TO.P,U2,66*%
%TO.N,+1V2*%
%TA.AperFunction,SMDPad,CuDef*%
G36*
G01*
X153019088Y-97295658D02*
X152913022Y-97189592D01*
G75*
G02*
X152913022Y-97083526I53033J53033D01*
G01*
X153849938Y-96146610D01*
G75*
G02*
X153956004Y-96146610I53033J-53033D01*
G01*
X154062070Y-96252676D01*
G75*
G02*
X154062070Y-96358742I-53033J-53033D01*
G01*
X153125154Y-97295658D01*
G75*
G02*
X153019088Y-97295658I-53033J53033D01*
G01*
G37*
%TD.AperFunction*%
%TO.P,U2,65*%
%TO.N,/A7*%
%TA.AperFunction,SMDPad,CuDef*%
G36*
G01*
X153372641Y-97649212D02*
X153266575Y-97543146D01*
G75*
G02*
X153266575Y-97437080I53033J53033D01*
G01*
X154203491Y-96500164D01*
G75*
G02*
X154309557Y-96500164I53033J-53033D01*
G01*
X154415623Y-96606230D01*
G75*
G02*
X154415623Y-96712296I-53033J-53033D01*
G01*
X153478707Y-97649212D01*
G75*
G02*
X153372641Y-97649212I-53033J53033D01*
G01*
G37*
%TD.AperFunction*%
%TO.P,U2,64*%
%TO.N,/A8*%
%TA.AperFunction,SMDPad,CuDef*%
G36*
G01*
X153726194Y-98002765D02*
X153620128Y-97896699D01*
G75*
G02*
X153620128Y-97790633I53033J53033D01*
G01*
X154557044Y-96853717D01*
G75*
G02*
X154663110Y-96853717I53033J-53033D01*
G01*
X154769176Y-96959783D01*
G75*
G02*
X154769176Y-97065849I-53033J-53033D01*
G01*
X153832260Y-98002765D01*
G75*
G02*
X153726194Y-98002765I-53033J53033D01*
G01*
G37*
%TD.AperFunction*%
%TO.P,U2,63*%
%TO.N,GND*%
%TA.AperFunction,SMDPad,CuDef*%
G36*
G01*
X154079748Y-98356318D02*
X153973682Y-98250252D01*
G75*
G02*
X153973682Y-98144186I53033J53033D01*
G01*
X154910598Y-97207270D01*
G75*
G02*
X155016664Y-97207270I53033J-53033D01*
G01*
X155122730Y-97313336D01*
G75*
G02*
X155122730Y-97419402I-53033J-53033D01*
G01*
X154185814Y-98356318D01*
G75*
G02*
X154079748Y-98356318I-53033J53033D01*
G01*
G37*
%TD.AperFunction*%
%TO.P,U2,62*%
%TO.N,/HPD_OUT*%
%TA.AperFunction,SMDPad,CuDef*%
G36*
G01*
X154433301Y-98709872D02*
X154327235Y-98603806D01*
G75*
G02*
X154327235Y-98497740I53033J53033D01*
G01*
X155264151Y-97560824D01*
G75*
G02*
X155370217Y-97560824I53033J-53033D01*
G01*
X155476283Y-97666890D01*
G75*
G02*
X155476283Y-97772956I-53033J-53033D01*
G01*
X154539367Y-98709872D01*
G75*
G02*
X154433301Y-98709872I-53033J53033D01*
G01*
G37*
%TD.AperFunction*%
%TO.P,U2,61*%
%TO.N,/A6*%
%TA.AperFunction,SMDPad,CuDef*%
G36*
G01*
X154786854Y-99063425D02*
X154680788Y-98957359D01*
G75*
G02*
X154680788Y-98851293I53033J53033D01*
G01*
X155617704Y-97914377D01*
G75*
G02*
X155723770Y-97914377I53033J-53033D01*
G01*
X155829836Y-98020443D01*
G75*
G02*
X155829836Y-98126509I-53033J-53033D01*
G01*
X154892920Y-99063425D01*
G75*
G02*
X154786854Y-99063425I-53033J53033D01*
G01*
G37*
%TD.AperFunction*%
%TO.P,U2,60*%
%TO.N,/SDA_OUT*%
%TA.AperFunction,SMDPad,CuDef*%
G36*
G01*
X155140408Y-99416978D02*
X155034342Y-99310912D01*
G75*
G02*
X155034342Y-99204846I53033J53033D01*
G01*
X155971258Y-98267930D01*
G75*
G02*
X156077324Y-98267930I53033J-53033D01*
G01*
X156183390Y-98373996D01*
G75*
G02*
X156183390Y-98480062I-53033J-53033D01*
G01*
X155246474Y-99416978D01*
G75*
G02*
X155140408Y-99416978I-53033J53033D01*
G01*
G37*
%TD.AperFunction*%
%TO.P,U2,59*%
%TO.N,/SCL_OUT*%
%TA.AperFunction,SMDPad,CuDef*%
G36*
G01*
X155493961Y-99770532D02*
X155387895Y-99664466D01*
G75*
G02*
X155387895Y-99558400I53033J53033D01*
G01*
X156324811Y-98621484D01*
G75*
G02*
X156430877Y-98621484I53033J-53033D01*
G01*
X156536943Y-98727550D01*
G75*
G02*
X156536943Y-98833616I-53033J-53033D01*
G01*
X155600027Y-99770532D01*
G75*
G02*
X155493961Y-99770532I-53033J53033D01*
G01*
G37*
%TD.AperFunction*%
%TO.P,U2,58*%
%TO.N,GND*%
%TA.AperFunction,SMDPad,CuDef*%
G36*
G01*
X155847515Y-100124085D02*
X155741449Y-100018019D01*
G75*
G02*
X155741449Y-99911953I53033J53033D01*
G01*
X156678365Y-98975037D01*
G75*
G02*
X156784431Y-98975037I53033J-53033D01*
G01*
X156890497Y-99081103D01*
G75*
G02*
X156890497Y-99187169I-53033J-53033D01*
G01*
X155953581Y-100124085D01*
G75*
G02*
X155847515Y-100124085I-53033J53033D01*
G01*
G37*
%TD.AperFunction*%
%TO.P,U2,57*%
%TO.N,/UTIL_OUT*%
%TA.AperFunction,SMDPad,CuDef*%
G36*
G01*
X156201068Y-100477639D02*
X156095002Y-100371573D01*
G75*
G02*
X156095002Y-100265507I53033J53033D01*
G01*
X157031918Y-99328591D01*
G75*
G02*
X157137984Y-99328591I53033J-53033D01*
G01*
X157244050Y-99434657D01*
G75*
G02*
X157244050Y-99540723I-53033J-53033D01*
G01*
X156307134Y-100477639D01*
G75*
G02*
X156201068Y-100477639I-53033J53033D01*
G01*
G37*
%TD.AperFunction*%
%TO.P,U2,56*%
%TO.N,/CEC_OUT*%
%TA.AperFunction,SMDPad,CuDef*%
G36*
G01*
X156554621Y-100831192D02*
X156448555Y-100725126D01*
G75*
G02*
X156448555Y-100619060I53033J53033D01*
G01*
X157385471Y-99682144D01*
G75*
G02*
X157491537Y-99682144I53033J-53033D01*
G01*
X157597603Y-99788210D01*
G75*
G02*
X157597603Y-99894276I-53033J-53033D01*
G01*
X156660687Y-100831192D01*
G75*
G02*
X156554621Y-100831192I-53033J53033D01*
G01*
G37*
%TD.AperFunction*%
%TO.P,U2,55*%
%TO.N,+3V3*%
%TA.AperFunction,SMDPad,CuDef*%
G36*
G01*
X156908175Y-101184745D02*
X156802109Y-101078679D01*
G75*
G02*
X156802109Y-100972613I53033J53033D01*
G01*
X157739025Y-100035697D01*
G75*
G02*
X157845091Y-100035697I53033J-53033D01*
G01*
X157951157Y-100141763D01*
G75*
G02*
X157951157Y-100247829I-53033J-53033D01*
G01*
X157014241Y-101184745D01*
G75*
G02*
X156908175Y-101184745I-53033J53033D01*
G01*
G37*
%TD.AperFunction*%
%TO.P,U2,54*%
%TO.N,/DONE*%
%TA.AperFunction,SMDPad,CuDef*%
G36*
G01*
X157261728Y-101538299D02*
X157155662Y-101432233D01*
G75*
G02*
X157155662Y-101326167I53033J53033D01*
G01*
X158092578Y-100389251D01*
G75*
G02*
X158198644Y-100389251I53033J-53033D01*
G01*
X158304710Y-100495317D01*
G75*
G02*
X158304710Y-100601383I-53033J-53033D01*
G01*
X157367794Y-101538299D01*
G75*
G02*
X157261728Y-101538299I-53033J53033D01*
G01*
G37*
%TD.AperFunction*%
%TO.P,U2,53*%
%TO.N,/SCK*%
%TA.AperFunction,SMDPad,CuDef*%
G36*
G01*
X157615282Y-101891852D02*
X157509216Y-101785786D01*
G75*
G02*
X157509216Y-101679720I53033J53033D01*
G01*
X158446132Y-100742804D01*
G75*
G02*
X158552198Y-100742804I53033J-53033D01*
G01*
X158658264Y-100848870D01*
G75*
G02*
X158658264Y-100954936I-53033J-53033D01*
G01*
X157721348Y-101891852D01*
G75*
G02*
X157615282Y-101891852I-53033J53033D01*
G01*
G37*
%TD.AperFunction*%
%TO.P,U2,52*%
%TO.N,/DQ3*%
%TA.AperFunction,SMDPad,CuDef*%
G36*
G01*
X157968835Y-102245406D02*
X157862769Y-102139340D01*
G75*
G02*
X157862769Y-102033274I53033J53033D01*
G01*
X158799685Y-101096358D01*
G75*
G02*
X158905751Y-101096358I53033J-53033D01*
G01*
X159011817Y-101202424D01*
G75*
G02*
X159011817Y-101308490I-53033J-53033D01*
G01*
X158074901Y-102245406D01*
G75*
G02*
X157968835Y-102245406I-53033J53033D01*
G01*
G37*
%TD.AperFunction*%
%TO.P,U2,51*%
%TO.N,/SO*%
%TA.AperFunction,SMDPad,CuDef*%
G36*
G01*
X158322388Y-102598959D02*
X158216322Y-102492893D01*
G75*
G02*
X158216322Y-102386827I53033J53033D01*
G01*
X159153238Y-101449911D01*
G75*
G02*
X159259304Y-101449911I53033J-53033D01*
G01*
X159365370Y-101555977D01*
G75*
G02*
X159365370Y-101662043I-53033J-53033D01*
G01*
X158428454Y-102598959D01*
G75*
G02*
X158322388Y-102598959I-53033J53033D01*
G01*
G37*
%TD.AperFunction*%
%TO.P,U2,50*%
%TO.N,/DQ0*%
%TA.AperFunction,SMDPad,CuDef*%
G36*
G01*
X159153238Y-104950089D02*
X158216322Y-104013173D01*
G75*
G02*
X158216322Y-103907107I53033J53033D01*
G01*
X158322388Y-103801041D01*
G75*
G02*
X158428454Y-103801041I53033J-53033D01*
G01*
X159365370Y-104737957D01*
G75*
G02*
X159365370Y-104844023I-53033J-53033D01*
G01*
X159259304Y-104950089D01*
G75*
G02*
X159153238Y-104950089I-53033J53033D01*
G01*
G37*
%TD.AperFunction*%
%TO.P,U2,49*%
%TO.N,/CK_OUT_N*%
%TA.AperFunction,SMDPad,CuDef*%
G36*
G01*
X158799685Y-105303642D02*
X157862769Y-104366726D01*
G75*
G02*
X157862769Y-104260660I53033J53033D01*
G01*
X157968835Y-104154594D01*
G75*
G02*
X158074901Y-104154594I53033J-53033D01*
G01*
X159011817Y-105091510D01*
G75*
G02*
X159011817Y-105197576I-53033J-53033D01*
G01*
X158905751Y-105303642D01*
G75*
G02*
X158799685Y-105303642I-53033J53033D01*
G01*
G37*
%TD.AperFunction*%
%TO.P,U2,48*%
%TO.N,/CK_OUT_P*%
%TA.AperFunction,SMDPad,CuDef*%
G36*
G01*
X158446132Y-105657196D02*
X157509216Y-104720280D01*
G75*
G02*
X157509216Y-104614214I53033J53033D01*
G01*
X157615282Y-104508148D01*
G75*
G02*
X157721348Y-104508148I53033J-53033D01*
G01*
X158658264Y-105445064D01*
G75*
G02*
X158658264Y-105551130I-53033J-53033D01*
G01*
X158552198Y-105657196D01*
G75*
G02*
X158446132Y-105657196I-53033J53033D01*
G01*
G37*
%TD.AperFunction*%
%TO.P,U2,47*%
%TO.N,GND*%
%TA.AperFunction,SMDPad,CuDef*%
G36*
G01*
X158092578Y-106010749D02*
X157155662Y-105073833D01*
G75*
G02*
X157155662Y-104967767I53033J53033D01*
G01*
X157261728Y-104861701D01*
G75*
G02*
X157367794Y-104861701I53033J-53033D01*
G01*
X158304710Y-105798617D01*
G75*
G02*
X158304710Y-105904683I-53033J-53033D01*
G01*
X158198644Y-106010749D01*
G75*
G02*
X158092578Y-106010749I-53033J53033D01*
G01*
G37*
%TD.AperFunction*%
%TO.P,U2,46*%
%TO.N,/SI*%
%TA.AperFunction,SMDPad,CuDef*%
G36*
G01*
X157739025Y-106364303D02*
X156802109Y-105427387D01*
G75*
G02*
X156802109Y-105321321I53033J53033D01*
G01*
X156908175Y-105215255D01*
G75*
G02*
X157014241Y-105215255I53033J-53033D01*
G01*
X157951157Y-106152171D01*
G75*
G02*
X157951157Y-106258237I-53033J-53033D01*
G01*
X157845091Y-106364303D01*
G75*
G02*
X157739025Y-106364303I-53033J53033D01*
G01*
G37*
%TD.AperFunction*%
%TO.P,U2,45*%
%TO.N,+3V3*%
%TA.AperFunction,SMDPad,CuDef*%
G36*
G01*
X157385471Y-106717856D02*
X156448555Y-105780940D01*
G75*
G02*
X156448555Y-105674874I53033J53033D01*
G01*
X156554621Y-105568808D01*
G75*
G02*
X156660687Y-105568808I53033J-53033D01*
G01*
X157597603Y-106505724D01*
G75*
G02*
X157597603Y-106611790I-53033J-53033D01*
G01*
X157491537Y-106717856D01*
G75*
G02*
X157385471Y-106717856I-53033J53033D01*
G01*
G37*
%TD.AperFunction*%
%TO.P,U2,44*%
%TO.N,/A5*%
%TA.AperFunction,SMDPad,CuDef*%
G36*
G01*
X157031918Y-107071409D02*
X156095002Y-106134493D01*
G75*
G02*
X156095002Y-106028427I53033J53033D01*
G01*
X156201068Y-105922361D01*
G75*
G02*
X156307134Y-105922361I53033J-53033D01*
G01*
X157244050Y-106859277D01*
G75*
G02*
X157244050Y-106965343I-53033J-53033D01*
G01*
X157137984Y-107071409D01*
G75*
G02*
X157031918Y-107071409I-53033J53033D01*
G01*
G37*
%TD.AperFunction*%
%TO.P,U2,43*%
%TO.N,Net-(U2-Pad43)*%
%TA.AperFunction,SMDPad,CuDef*%
G36*
G01*
X156678365Y-107424963D02*
X155741449Y-106488047D01*
G75*
G02*
X155741449Y-106381981I53033J53033D01*
G01*
X155847515Y-106275915D01*
G75*
G02*
X155953581Y-106275915I53033J-53033D01*
G01*
X156890497Y-107212831D01*
G75*
G02*
X156890497Y-107318897I-53033J-53033D01*
G01*
X156784431Y-107424963D01*
G75*
G02*
X156678365Y-107424963I-53033J53033D01*
G01*
G37*
%TD.AperFunction*%
%TO.P,U2,42*%
%TO.N,GND*%
%TA.AperFunction,SMDPad,CuDef*%
G36*
G01*
X156324811Y-107778516D02*
X155387895Y-106841600D01*
G75*
G02*
X155387895Y-106735534I53033J53033D01*
G01*
X155493961Y-106629468D01*
G75*
G02*
X155600027Y-106629468I53033J-53033D01*
G01*
X156536943Y-107566384D01*
G75*
G02*
X156536943Y-107672450I-53033J-53033D01*
G01*
X156430877Y-107778516D01*
G75*
G02*
X156324811Y-107778516I-53033J53033D01*
G01*
G37*
%TD.AperFunction*%
%TO.P,U2,41*%
%TO.N,/D0_OUT_N*%
%TA.AperFunction,SMDPad,CuDef*%
G36*
G01*
X155971258Y-108132070D02*
X155034342Y-107195154D01*
G75*
G02*
X155034342Y-107089088I53033J53033D01*
G01*
X155140408Y-106983022D01*
G75*
G02*
X155246474Y-106983022I53033J-53033D01*
G01*
X156183390Y-107919938D01*
G75*
G02*
X156183390Y-108026004I-53033J-53033D01*
G01*
X156077324Y-108132070D01*
G75*
G02*
X155971258Y-108132070I-53033J53033D01*
G01*
G37*
%TD.AperFunction*%
%TO.P,U2,40*%
%TO.N,/D0_OUT_P*%
%TA.AperFunction,SMDPad,CuDef*%
G36*
G01*
X155617704Y-108485623D02*
X154680788Y-107548707D01*
G75*
G02*
X154680788Y-107442641I53033J53033D01*
G01*
X154786854Y-107336575D01*
G75*
G02*
X154892920Y-107336575I53033J-53033D01*
G01*
X155829836Y-108273491D01*
G75*
G02*
X155829836Y-108379557I-53033J-53033D01*
G01*
X155723770Y-108485623D01*
G75*
G02*
X155617704Y-108485623I-53033J53033D01*
G01*
G37*
%TD.AperFunction*%
%TO.P,U2,39*%
%TO.N,N/C*%
%TA.AperFunction,SMDPad,CuDef*%
G36*
G01*
X155264151Y-108839176D02*
X154327235Y-107902260D01*
G75*
G02*
X154327235Y-107796194I53033J53033D01*
G01*
X154433301Y-107690128D01*
G75*
G02*
X154539367Y-107690128I53033J-53033D01*
G01*
X155476283Y-108627044D01*
G75*
G02*
X155476283Y-108733110I-53033J-53033D01*
G01*
X155370217Y-108839176D01*
G75*
G02*
X155264151Y-108839176I-53033J53033D01*
G01*
G37*
%TD.AperFunction*%
%TO.P,U2,38*%
%TO.N,+1V2*%
%TA.AperFunction,SMDPad,CuDef*%
G36*
G01*
X154910598Y-109192730D02*
X153973682Y-108255814D01*
G75*
G02*
X153973682Y-108149748I53033J53033D01*
G01*
X154079748Y-108043682D01*
G75*
G02*
X154185814Y-108043682I53033J-53033D01*
G01*
X155122730Y-108980598D01*
G75*
G02*
X155122730Y-109086664I-53033J-53033D01*
G01*
X155016664Y-109192730D01*
G75*
G02*
X154910598Y-109192730I-53033J53033D01*
G01*
G37*
%TD.AperFunction*%
%TO.P,U2,37*%
%TO.N,/D1_OUT_N*%
%TA.AperFunction,SMDPad,CuDef*%
G36*
G01*
X154557044Y-109546283D02*
X153620128Y-108609367D01*
G75*
G02*
X153620128Y-108503301I53033J53033D01*
G01*
X153726194Y-108397235D01*
G75*
G02*
X153832260Y-108397235I53033J-53033D01*
G01*
X154769176Y-109334151D01*
G75*
G02*
X154769176Y-109440217I-53033J-53033D01*
G01*
X154663110Y-109546283D01*
G75*
G02*
X154557044Y-109546283I-53033J53033D01*
G01*
G37*
%TD.AperFunction*%
%TO.P,U2,36*%
%TO.N,/D1_OUT_P*%
%TA.AperFunction,SMDPad,CuDef*%
G36*
G01*
X154203491Y-109899836D02*
X153266575Y-108962920D01*
G75*
G02*
X153266575Y-108856854I53033J53033D01*
G01*
X153372641Y-108750788D01*
G75*
G02*
X153478707Y-108750788I53033J-53033D01*
G01*
X154415623Y-109687704D01*
G75*
G02*
X154415623Y-109793770I-53033J-53033D01*
G01*
X154309557Y-109899836D01*
G75*
G02*
X154203491Y-109899836I-53033J53033D01*
G01*
G37*
%TD.AperFunction*%
%TO.P,U2,35*%
%TO.N,/A3*%
%TA.AperFunction,SMDPad,CuDef*%
G36*
G01*
X153849938Y-110253390D02*
X152913022Y-109316474D01*
G75*
G02*
X152913022Y-109210408I53033J53033D01*
G01*
X153019088Y-109104342D01*
G75*
G02*
X153125154Y-109104342I53033J-53033D01*
G01*
X154062070Y-110041258D01*
G75*
G02*
X154062070Y-110147324I-53033J-53033D01*
G01*
X153956004Y-110253390D01*
G75*
G02*
X153849938Y-110253390I-53033J53033D01*
G01*
G37*
%TD.AperFunction*%
%TO.P,U2,34*%
%TO.N,/A1*%
%TA.AperFunction,SMDPad,CuDef*%
G36*
G01*
X153496384Y-110606943D02*
X152559468Y-109670027D01*
G75*
G02*
X152559468Y-109563961I53033J53033D01*
G01*
X152665534Y-109457895D01*
G75*
G02*
X152771600Y-109457895I53033J-53033D01*
G01*
X153708516Y-110394811D01*
G75*
G02*
X153708516Y-110500877I-53033J-53033D01*
G01*
X153602450Y-110606943D01*
G75*
G02*
X153496384Y-110606943I-53033J53033D01*
G01*
G37*
%TD.AperFunction*%
%TO.P,U2,33*%
%TO.N,/A4*%
%TA.AperFunction,SMDPad,CuDef*%
G36*
G01*
X153142831Y-110960497D02*
X152205915Y-110023581D01*
G75*
G02*
X152205915Y-109917515I53033J53033D01*
G01*
X152311981Y-109811449D01*
G75*
G02*
X152418047Y-109811449I53033J-53033D01*
G01*
X153354963Y-110748365D01*
G75*
G02*
X153354963Y-110854431I-53033J-53033D01*
G01*
X153248897Y-110960497D01*
G75*
G02*
X153142831Y-110960497I-53033J53033D01*
G01*
G37*
%TD.AperFunction*%
%TO.P,U2,32*%
%TO.N,/A2*%
%TA.AperFunction,SMDPad,CuDef*%
G36*
G01*
X152789277Y-111314050D02*
X151852361Y-110377134D01*
G75*
G02*
X151852361Y-110271068I53033J53033D01*
G01*
X151958427Y-110165002D01*
G75*
G02*
X152064493Y-110165002I53033J-53033D01*
G01*
X153001409Y-111101918D01*
G75*
G02*
X153001409Y-111207984I-53033J-53033D01*
G01*
X152895343Y-111314050D01*
G75*
G02*
X152789277Y-111314050I-53033J53033D01*
G01*
G37*
%TD.AperFunction*%
%TO.P,U2,31*%
%TO.N,/D2_OUT_N*%
%TA.AperFunction,SMDPad,CuDef*%
G36*
G01*
X152435724Y-111667603D02*
X151498808Y-110730687D01*
G75*
G02*
X151498808Y-110624621I53033J53033D01*
G01*
X151604874Y-110518555D01*
G75*
G02*
X151710940Y-110518555I53033J-53033D01*
G01*
X152647856Y-111455471D01*
G75*
G02*
X152647856Y-111561537I-53033J-53033D01*
G01*
X152541790Y-111667603D01*
G75*
G02*
X152435724Y-111667603I-53033J53033D01*
G01*
G37*
%TD.AperFunction*%
%TO.P,U2,30*%
%TO.N,/DQ5*%
%TA.AperFunction,SMDPad,CuDef*%
G36*
G01*
X152082171Y-112021157D02*
X151145255Y-111084241D01*
G75*
G02*
X151145255Y-110978175I53033J53033D01*
G01*
X151251321Y-110872109D01*
G75*
G02*
X151357387Y-110872109I53033J-53033D01*
G01*
X152294303Y-111809025D01*
G75*
G02*
X152294303Y-111915091I-53033J-53033D01*
G01*
X152188237Y-112021157D01*
G75*
G02*
X152082171Y-112021157I-53033J53033D01*
G01*
G37*
%TD.AperFunction*%
%TO.P,U2,29*%
%TO.N,/D2_OUT_P*%
%TA.AperFunction,SMDPad,CuDef*%
G36*
G01*
X151728617Y-112374710D02*
X150791701Y-111437794D01*
G75*
G02*
X150791701Y-111331728I53033J53033D01*
G01*
X150897767Y-111225662D01*
G75*
G02*
X151003833Y-111225662I53033J-53033D01*
G01*
X151940749Y-112162578D01*
G75*
G02*
X151940749Y-112268644I-53033J-53033D01*
G01*
X151834683Y-112374710D01*
G75*
G02*
X151728617Y-112374710I-53033J53033D01*
G01*
G37*
%TD.AperFunction*%
%TO.P,U2,28*%
%TO.N,/DQ6*%
%TA.AperFunction,SMDPad,CuDef*%
G36*
G01*
X151375064Y-112728264D02*
X150438148Y-111791348D01*
G75*
G02*
X150438148Y-111685282I53033J53033D01*
G01*
X150544214Y-111579216D01*
G75*
G02*
X150650280Y-111579216I53033J-53033D01*
G01*
X151587196Y-112516132D01*
G75*
G02*
X151587196Y-112622198I-53033J-53033D01*
G01*
X151481130Y-112728264D01*
G75*
G02*
X151375064Y-112728264I-53033J53033D01*
G01*
G37*
%TD.AperFunction*%
%TO.P,U2,27*%
%TO.N,/CS*%
%TA.AperFunction,SMDPad,CuDef*%
G36*
G01*
X151021510Y-113081817D02*
X150084594Y-112144901D01*
G75*
G02*
X150084594Y-112038835I53033J53033D01*
G01*
X150190660Y-111932769D01*
G75*
G02*
X150296726Y-111932769I53033J-53033D01*
G01*
X151233642Y-112869685D01*
G75*
G02*
X151233642Y-112975751I-53033J-53033D01*
G01*
X151127576Y-113081817D01*
G75*
G02*
X151021510Y-113081817I-53033J53033D01*
G01*
G37*
%TD.AperFunction*%
%TO.P,U2,26*%
%TO.N,+3V3*%
%TA.AperFunction,SMDPad,CuDef*%
G36*
G01*
X150667957Y-113435370D02*
X149731041Y-112498454D01*
G75*
G02*
X149731041Y-112392388I53033J53033D01*
G01*
X149837107Y-112286322D01*
G75*
G02*
X149943173Y-112286322I53033J-53033D01*
G01*
X150880089Y-113223238D01*
G75*
G02*
X150880089Y-113329304I-53033J-53033D01*
G01*
X150774023Y-113435370D01*
G75*
G02*
X150667957Y-113435370I-53033J53033D01*
G01*
G37*
%TD.AperFunction*%
%TO.P,U2,25*%
%TO.N,/DQ1*%
%TA.AperFunction,SMDPad,CuDef*%
G36*
G01*
X147485977Y-113435370D02*
X147379911Y-113329304D01*
G75*
G02*
X147379911Y-113223238I53033J53033D01*
G01*
X148316827Y-112286322D01*
G75*
G02*
X148422893Y-112286322I53033J-53033D01*
G01*
X148528959Y-112392388D01*
G75*
G02*
X148528959Y-112498454I-53033J-53033D01*
G01*
X147592043Y-113435370D01*
G75*
G02*
X147485977Y-113435370I-53033J53033D01*
G01*
G37*
%TD.AperFunction*%
%TO.P,U2,24*%
%TO.N,/BA0*%
%TA.AperFunction,SMDPad,CuDef*%
G36*
G01*
X147132424Y-113081817D02*
X147026358Y-112975751D01*
G75*
G02*
X147026358Y-112869685I53033J53033D01*
G01*
X147963274Y-111932769D01*
G75*
G02*
X148069340Y-111932769I53033J-53033D01*
G01*
X148175406Y-112038835D01*
G75*
G02*
X148175406Y-112144901I-53033J-53033D01*
G01*
X147238490Y-113081817D01*
G75*
G02*
X147132424Y-113081817I-53033J53033D01*
G01*
G37*
%TD.AperFunction*%
%TO.P,U2,23*%
%TO.N,/DQ2*%
%TA.AperFunction,SMDPad,CuDef*%
G36*
G01*
X146778870Y-112728264D02*
X146672804Y-112622198D01*
G75*
G02*
X146672804Y-112516132I53033J53033D01*
G01*
X147609720Y-111579216D01*
G75*
G02*
X147715786Y-111579216I53033J-53033D01*
G01*
X147821852Y-111685282D01*
G75*
G02*
X147821852Y-111791348I-53033J-53033D01*
G01*
X146884936Y-112728264D01*
G75*
G02*
X146778870Y-112728264I-53033J53033D01*
G01*
G37*
%TD.AperFunction*%
%TO.P,U2,22*%
%TO.N,+3V3*%
%TA.AperFunction,SMDPad,CuDef*%
G36*
G01*
X146425317Y-112374710D02*
X146319251Y-112268644D01*
G75*
G02*
X146319251Y-112162578I53033J53033D01*
G01*
X147256167Y-111225662D01*
G75*
G02*
X147362233Y-111225662I53033J-53033D01*
G01*
X147468299Y-111331728D01*
G75*
G02*
X147468299Y-111437794I-53033J-53033D01*
G01*
X146531383Y-112374710D01*
G75*
G02*
X146425317Y-112374710I-53033J53033D01*
G01*
G37*
%TD.AperFunction*%
%TO.P,U2,21*%
%TO.N,N/C*%
%TA.AperFunction,SMDPad,CuDef*%
G36*
G01*
X146071763Y-112021157D02*
X145965697Y-111915091D01*
G75*
G02*
X145965697Y-111809025I53033J53033D01*
G01*
X146902613Y-110872109D01*
G75*
G02*
X147008679Y-110872109I53033J-53033D01*
G01*
X147114745Y-110978175D01*
G75*
G02*
X147114745Y-111084241I-53033J-53033D01*
G01*
X146177829Y-112021157D01*
G75*
G02*
X146071763Y-112021157I-53033J53033D01*
G01*
G37*
%TD.AperFunction*%
%TO.P,U2,20*%
%TO.N,/CS#*%
%TA.AperFunction,SMDPad,CuDef*%
G36*
G01*
X145718210Y-111667603D02*
X145612144Y-111561537D01*
G75*
G02*
X145612144Y-111455471I53033J53033D01*
G01*
X146549060Y-110518555D01*
G75*
G02*
X146655126Y-110518555I53033J-53033D01*
G01*
X146761192Y-110624621D01*
G75*
G02*
X146761192Y-110730687I-53033J-53033D01*
G01*
X145824276Y-111667603D01*
G75*
G02*
X145718210Y-111667603I-53033J53033D01*
G01*
G37*
%TD.AperFunction*%
%TO.P,U2,19*%
%TO.N,/RAS#*%
%TA.AperFunction,SMDPad,CuDef*%
G36*
G01*
X145364657Y-111314050D02*
X145258591Y-111207984D01*
G75*
G02*
X145258591Y-111101918I53033J53033D01*
G01*
X146195507Y-110165002D01*
G75*
G02*
X146301573Y-110165002I53033J-53033D01*
G01*
X146407639Y-110271068D01*
G75*
G02*
X146407639Y-110377134I-53033J-53033D01*
G01*
X145470723Y-111314050D01*
G75*
G02*
X145364657Y-111314050I-53033J53033D01*
G01*
G37*
%TD.AperFunction*%
%TO.P,U2,18*%
%TO.N,GND*%
%TA.AperFunction,SMDPad,CuDef*%
G36*
G01*
X145011103Y-110960497D02*
X144905037Y-110854431D01*
G75*
G02*
X144905037Y-110748365I53033J53033D01*
G01*
X145841953Y-109811449D01*
G75*
G02*
X145948019Y-109811449I53033J-53033D01*
G01*
X146054085Y-109917515D01*
G75*
G02*
X146054085Y-110023581I-53033J-53033D01*
G01*
X145117169Y-110960497D01*
G75*
G02*
X145011103Y-110960497I-53033J53033D01*
G01*
G37*
%TD.AperFunction*%
%TO.P,U2,17*%
%TO.N,+1V2*%
%TA.AperFunction,SMDPad,CuDef*%
G36*
G01*
X144657550Y-110606943D02*
X144551484Y-110500877D01*
G75*
G02*
X144551484Y-110394811I53033J53033D01*
G01*
X145488400Y-109457895D01*
G75*
G02*
X145594466Y-109457895I53033J-53033D01*
G01*
X145700532Y-109563961D01*
G75*
G02*
X145700532Y-109670027I-53033J-53033D01*
G01*
X144763616Y-110606943D01*
G75*
G02*
X144657550Y-110606943I-53033J53033D01*
G01*
G37*
%TD.AperFunction*%
%TO.P,U2,16*%
%TO.N,/CAS#*%
%TA.AperFunction,SMDPad,CuDef*%
G36*
G01*
X144303996Y-110253390D02*
X144197930Y-110147324D01*
G75*
G02*
X144197930Y-110041258I53033J53033D01*
G01*
X145134846Y-109104342D01*
G75*
G02*
X145240912Y-109104342I53033J-53033D01*
G01*
X145346978Y-109210408D01*
G75*
G02*
X145346978Y-109316474I-53033J-53033D01*
G01*
X144410062Y-110253390D01*
G75*
G02*
X144303996Y-110253390I-53033J53033D01*
G01*
G37*
%TD.AperFunction*%
%TO.P,U2,15*%
%TO.N,/WE#*%
%TA.AperFunction,SMDPad,CuDef*%
G36*
G01*
X143950443Y-109899836D02*
X143844377Y-109793770D01*
G75*
G02*
X143844377Y-109687704I53033J53033D01*
G01*
X144781293Y-108750788D01*
G75*
G02*
X144887359Y-108750788I53033J-53033D01*
G01*
X144993425Y-108856854D01*
G75*
G02*
X144993425Y-108962920I-53033J-53033D01*
G01*
X144056509Y-109899836D01*
G75*
G02*
X143950443Y-109899836I-53033J53033D01*
G01*
G37*
%TD.AperFunction*%
%TO.P,U2,14*%
%TO.N,GND*%
%TA.AperFunction,SMDPad,CuDef*%
G36*
G01*
X143596890Y-109546283D02*
X143490824Y-109440217D01*
G75*
G02*
X143490824Y-109334151I53033J53033D01*
G01*
X144427740Y-108397235D01*
G75*
G02*
X144533806Y-108397235I53033J-53033D01*
G01*
X144639872Y-108503301D01*
G75*
G02*
X144639872Y-108609367I-53033J-53033D01*
G01*
X143702956Y-109546283D01*
G75*
G02*
X143596890Y-109546283I-53033J53033D01*
G01*
G37*
%TD.AperFunction*%
%TO.P,U2,13*%
%TO.N,/BA1*%
%TA.AperFunction,SMDPad,CuDef*%
G36*
G01*
X143243336Y-109192730D02*
X143137270Y-109086664D01*
G75*
G02*
X143137270Y-108980598I53033J53033D01*
G01*
X144074186Y-108043682D01*
G75*
G02*
X144180252Y-108043682I53033J-53033D01*
G01*
X144286318Y-108149748D01*
G75*
G02*
X144286318Y-108255814I-53033J-53033D01*
G01*
X143349402Y-109192730D01*
G75*
G02*
X143243336Y-109192730I-53033J53033D01*
G01*
G37*
%TD.AperFunction*%
%TO.P,U2,12*%
%TO.N,/A10*%
%TA.AperFunction,SMDPad,CuDef*%
G36*
G01*
X142889783Y-108839176D02*
X142783717Y-108733110D01*
G75*
G02*
X142783717Y-108627044I53033J53033D01*
G01*
X143720633Y-107690128D01*
G75*
G02*
X143826699Y-107690128I53033J-53033D01*
G01*
X143932765Y-107796194D01*
G75*
G02*
X143932765Y-107902260I-53033J-53033D01*
G01*
X142995849Y-108839176D01*
G75*
G02*
X142889783Y-108839176I-53033J53033D01*
G01*
G37*
%TD.AperFunction*%
%TO.P,U2,11*%
%TO.N,+3V3*%
%TA.AperFunction,SMDPad,CuDef*%
G36*
G01*
X142536230Y-108485623D02*
X142430164Y-108379557D01*
G75*
G02*
X142430164Y-108273491I53033J53033D01*
G01*
X143367080Y-107336575D01*
G75*
G02*
X143473146Y-107336575I53033J-53033D01*
G01*
X143579212Y-107442641D01*
G75*
G02*
X143579212Y-107548707I-53033J-53033D01*
G01*
X142642296Y-108485623D01*
G75*
G02*
X142536230Y-108485623I-53033J53033D01*
G01*
G37*
%TD.AperFunction*%
%TO.P,U2,10*%
%TO.N,/HPD_IN*%
%TA.AperFunction,SMDPad,CuDef*%
G36*
G01*
X142182676Y-108132070D02*
X142076610Y-108026004D01*
G75*
G02*
X142076610Y-107919938I53033J53033D01*
G01*
X143013526Y-106983022D01*
G75*
G02*
X143119592Y-106983022I53033J-53033D01*
G01*
X143225658Y-107089088D01*
G75*
G02*
X143225658Y-107195154I-53033J-53033D01*
G01*
X142288742Y-108132070D01*
G75*
G02*
X142182676Y-108132070I-53033J53033D01*
G01*
G37*
%TD.AperFunction*%
%TO.P,U2,9*%
%TO.N,/A0*%
%TA.AperFunction,SMDPad,CuDef*%
G36*
G01*
X141829123Y-107778516D02*
X141723057Y-107672450D01*
G75*
G02*
X141723057Y-107566384I53033J53033D01*
G01*
X142659973Y-106629468D01*
G75*
G02*
X142766039Y-106629468I53033J-53033D01*
G01*
X142872105Y-106735534D01*
G75*
G02*
X142872105Y-106841600I-53033J-53033D01*
G01*
X141935189Y-107778516D01*
G75*
G02*
X141829123Y-107778516I-53033J53033D01*
G01*
G37*
%TD.AperFunction*%
%TO.P,U2,8*%
%TO.N,GND*%
%TA.AperFunction,SMDPad,CuDef*%
G36*
G01*
X141475569Y-107424963D02*
X141369503Y-107318897D01*
G75*
G02*
X141369503Y-107212831I53033J53033D01*
G01*
X142306419Y-106275915D01*
G75*
G02*
X142412485Y-106275915I53033J-53033D01*
G01*
X142518551Y-106381981D01*
G75*
G02*
X142518551Y-106488047I-53033J-53033D01*
G01*
X141581635Y-107424963D01*
G75*
G02*
X141475569Y-107424963I-53033J53033D01*
G01*
G37*
%TD.AperFunction*%
%TO.P,U2,7*%
%TO.N,N/C*%
%TA.AperFunction,SMDPad,CuDef*%
G36*
G01*
X141122016Y-107071409D02*
X141015950Y-106965343D01*
G75*
G02*
X141015950Y-106859277I53033J53033D01*
G01*
X141952866Y-105922361D01*
G75*
G02*
X142058932Y-105922361I53033J-53033D01*
G01*
X142164998Y-106028427D01*
G75*
G02*
X142164998Y-106134493I-53033J-53033D01*
G01*
X141228082Y-107071409D01*
G75*
G02*
X141122016Y-107071409I-53033J53033D01*
G01*
G37*
%TD.AperFunction*%
%TO.P,U2,6*%
%TO.N,/CEC_IN*%
%TA.AperFunction,SMDPad,CuDef*%
G36*
G01*
X140768463Y-106717856D02*
X140662397Y-106611790D01*
G75*
G02*
X140662397Y-106505724I53033J53033D01*
G01*
X141599313Y-105568808D01*
G75*
G02*
X141705379Y-105568808I53033J-53033D01*
G01*
X141811445Y-105674874D01*
G75*
G02*
X141811445Y-105780940I-53033J-53033D01*
G01*
X140874529Y-106717856D01*
G75*
G02*
X140768463Y-106717856I-53033J53033D01*
G01*
G37*
%TD.AperFunction*%
%TO.P,U2,5*%
%TO.N,/SDA_IN*%
%TA.AperFunction,SMDPad,CuDef*%
G36*
G01*
X140414909Y-106364303D02*
X140308843Y-106258237D01*
G75*
G02*
X140308843Y-106152171I53033J53033D01*
G01*
X141245759Y-105215255D01*
G75*
G02*
X141351825Y-105215255I53033J-53033D01*
G01*
X141457891Y-105321321D01*
G75*
G02*
X141457891Y-105427387I-53033J-53033D01*
G01*
X140520975Y-106364303D01*
G75*
G02*
X140414909Y-106364303I-53033J53033D01*
G01*
G37*
%TD.AperFunction*%
%TO.P,U2,4*%
%TO.N,/UTIL_IN*%
%TA.AperFunction,SMDPad,CuDef*%
G36*
G01*
X140061356Y-106010749D02*
X139955290Y-105904683D01*
G75*
G02*
X139955290Y-105798617I53033J53033D01*
G01*
X140892206Y-104861701D01*
G75*
G02*
X140998272Y-104861701I53033J-53033D01*
G01*
X141104338Y-104967767D01*
G75*
G02*
X141104338Y-105073833I-53033J-53033D01*
G01*
X140167422Y-106010749D01*
G75*
G02*
X140061356Y-106010749I-53033J53033D01*
G01*
G37*
%TD.AperFunction*%
%TO.P,U2,3*%
%TO.N,/SCL_IN*%
%TA.AperFunction,SMDPad,CuDef*%
G36*
G01*
X139707802Y-105657196D02*
X139601736Y-105551130D01*
G75*
G02*
X139601736Y-105445064I53033J53033D01*
G01*
X140538652Y-104508148D01*
G75*
G02*
X140644718Y-104508148I53033J-53033D01*
G01*
X140750784Y-104614214D01*
G75*
G02*
X140750784Y-104720280I-53033J-53033D01*
G01*
X139813868Y-105657196D01*
G75*
G02*
X139707802Y-105657196I-53033J53033D01*
G01*
G37*
%TD.AperFunction*%
%TO.P,U2,2*%
%TO.N,/TDI*%
%TA.AperFunction,SMDPad,CuDef*%
G36*
G01*
X139354249Y-105303642D02*
X139248183Y-105197576D01*
G75*
G02*
X139248183Y-105091510I53033J53033D01*
G01*
X140185099Y-104154594D01*
G75*
G02*
X140291165Y-104154594I53033J-53033D01*
G01*
X140397231Y-104260660D01*
G75*
G02*
X140397231Y-104366726I-53033J-53033D01*
G01*
X139460315Y-105303642D01*
G75*
G02*
X139354249Y-105303642I-53033J53033D01*
G01*
G37*
%TD.AperFunction*%
%TO.P,U2,1*%
%TO.N,/TMS*%
%TA.AperFunction,SMDPad,CuDef*%
G36*
G01*
X139000696Y-104950089D02*
X138894630Y-104844023D01*
G75*
G02*
X138894630Y-104737957I53033J53033D01*
G01*
X139831546Y-103801041D01*
G75*
G02*
X139937612Y-103801041I53033J-53033D01*
G01*
X140043678Y-103907107D01*
G75*
G02*
X140043678Y-104013173I-53033J-53033D01*
G01*
X139106762Y-104950089D01*
G75*
G02*
X139000696Y-104950089I-53033J53033D01*
G01*
G37*
%TD.AperFunction*%
%TD*%
D12*
%TO.P,J1,10*%
%TO.N,GND*%
X170460000Y-90010000D03*
%TO.P,J1,9*%
%TO.N,/TDI*%
X170460000Y-92550000D03*
%TO.P,J1,8*%
%TO.N,N/C*%
X167920000Y-90010000D03*
%TO.P,J1,7*%
X167920000Y-92550000D03*
%TO.P,J1,6*%
X165380000Y-90010000D03*
%TO.P,J1,5*%
%TO.N,/TMS*%
X165380000Y-92550000D03*
%TO.P,J1,4*%
%TO.N,+3V3*%
X162840000Y-90010000D03*
%TO.P,J1,3*%
%TO.N,/TDO*%
X162840000Y-92550000D03*
%TO.P,J1,2*%
%TO.N,GND*%
X160300000Y-90010000D03*
D13*
%TO.P,J1,1*%
%TO.N,/TCK*%
X160300000Y-92550000D03*
%TD*%
%TO.P,R17,2*%
%TO.N,/CK_IN_N*%
%TA.AperFunction,SMDPad,CuDef*%
G36*
G01*
X140327243Y-96628672D02*
X140185821Y-96487250D01*
G75*
G02*
X140185821Y-96345828I70711J70711D01*
G01*
X140369669Y-96161980D01*
G75*
G02*
X140511091Y-96161980I70711J-70711D01*
G01*
X140652513Y-96303402D01*
G75*
G02*
X140652513Y-96444824I-70711J-70711D01*
G01*
X140468665Y-96628672D01*
G75*
G02*
X140327243Y-96628672I-70711J70711D01*
G01*
G37*
%TD.AperFunction*%
%TO.P,R17,1*%
%TO.N,+3V3*%
%TA.AperFunction,SMDPad,CuDef*%
G36*
G01*
X139874695Y-97081220D02*
X139733273Y-96939798D01*
G75*
G02*
X139733273Y-96798376I70711J70711D01*
G01*
X139917121Y-96614528D01*
G75*
G02*
X140058543Y-96614528I70711J-70711D01*
G01*
X140199965Y-96755950D01*
G75*
G02*
X140199965Y-96897372I-70711J-70711D01*
G01*
X140016117Y-97081220D01*
G75*
G02*
X139874695Y-97081220I-70711J70711D01*
G01*
G37*
%TD.AperFunction*%
%TD*%
%TO.P,R16,2*%
%TO.N,/CK_IN_P*%
%TA.AperFunction,SMDPad,CuDef*%
G36*
G01*
X141048494Y-95700128D02*
X141189916Y-95841550D01*
G75*
G02*
X141189916Y-95982972I-70711J-70711D01*
G01*
X141006068Y-96166820D01*
G75*
G02*
X140864646Y-96166820I-70711J70711D01*
G01*
X140723224Y-96025398D01*
G75*
G02*
X140723224Y-95883976I70711J70711D01*
G01*
X140907072Y-95700128D01*
G75*
G02*
X141048494Y-95700128I70711J-70711D01*
G01*
G37*
%TD.AperFunction*%
%TO.P,R16,1*%
%TO.N,+3V3*%
%TA.AperFunction,SMDPad,CuDef*%
G36*
G01*
X141501042Y-95247580D02*
X141642464Y-95389002D01*
G75*
G02*
X141642464Y-95530424I-70711J-70711D01*
G01*
X141458616Y-95714272D01*
G75*
G02*
X141317194Y-95714272I-70711J70711D01*
G01*
X141175772Y-95572850D01*
G75*
G02*
X141175772Y-95431428I70711J70711D01*
G01*
X141359620Y-95247580D01*
G75*
G02*
X141501042Y-95247580I70711J-70711D01*
G01*
G37*
%TD.AperFunction*%
%TD*%
%TO.P,R15,2*%
%TO.N,/D0_IN_N*%
%TA.AperFunction,SMDPad,CuDef*%
G36*
G01*
X142381098Y-95663472D02*
X142239676Y-95522050D01*
G75*
G02*
X142239676Y-95380628I70711J70711D01*
G01*
X142423524Y-95196780D01*
G75*
G02*
X142564946Y-95196780I70711J-70711D01*
G01*
X142706368Y-95338202D01*
G75*
G02*
X142706368Y-95479624I-70711J-70711D01*
G01*
X142522520Y-95663472D01*
G75*
G02*
X142381098Y-95663472I-70711J70711D01*
G01*
G37*
%TD.AperFunction*%
%TO.P,R15,1*%
%TO.N,+3V3*%
%TA.AperFunction,SMDPad,CuDef*%
G36*
G01*
X141928550Y-96116020D02*
X141787128Y-95974598D01*
G75*
G02*
X141787128Y-95833176I70711J70711D01*
G01*
X141970976Y-95649328D01*
G75*
G02*
X142112398Y-95649328I70711J-70711D01*
G01*
X142253820Y-95790750D01*
G75*
G02*
X142253820Y-95932172I-70711J-70711D01*
G01*
X142069972Y-96116020D01*
G75*
G02*
X141928550Y-96116020I-70711J70711D01*
G01*
G37*
%TD.AperFunction*%
%TD*%
%TO.P,R14,2*%
%TO.N,/D0_IN_P*%
%TA.AperFunction,SMDPad,CuDef*%
G36*
G01*
X143061335Y-94687243D02*
X143202757Y-94828665D01*
G75*
G02*
X143202757Y-94970087I-70711J-70711D01*
G01*
X143018909Y-95153935D01*
G75*
G02*
X142877487Y-95153935I-70711J70711D01*
G01*
X142736065Y-95012513D01*
G75*
G02*
X142736065Y-94871091I70711J70711D01*
G01*
X142919913Y-94687243D01*
G75*
G02*
X143061335Y-94687243I70711J-70711D01*
G01*
G37*
%TD.AperFunction*%
%TO.P,R14,1*%
%TO.N,+3V3*%
%TA.AperFunction,SMDPad,CuDef*%
G36*
G01*
X143513883Y-94234695D02*
X143655305Y-94376117D01*
G75*
G02*
X143655305Y-94517539I-70711J-70711D01*
G01*
X143471457Y-94701387D01*
G75*
G02*
X143330035Y-94701387I-70711J70711D01*
G01*
X143188613Y-94559965D01*
G75*
G02*
X143188613Y-94418543I70711J70711D01*
G01*
X143372461Y-94234695D01*
G75*
G02*
X143513883Y-94234695I70711J-70711D01*
G01*
G37*
%TD.AperFunction*%
%TD*%
%TO.P,R13,2*%
%TO.N,/D1_IN_N*%
%TA.AperFunction,SMDPad,CuDef*%
G36*
G01*
X143118665Y-93814179D02*
X142977243Y-93672757D01*
G75*
G02*
X142977243Y-93531335I70711J70711D01*
G01*
X143161091Y-93347487D01*
G75*
G02*
X143302513Y-93347487I70711J-70711D01*
G01*
X143443935Y-93488909D01*
G75*
G02*
X143443935Y-93630331I-70711J-70711D01*
G01*
X143260087Y-93814179D01*
G75*
G02*
X143118665Y-93814179I-70711J70711D01*
G01*
G37*
%TD.AperFunction*%
%TO.P,R13,1*%
%TO.N,+3V3*%
%TA.AperFunction,SMDPad,CuDef*%
G36*
G01*
X142666117Y-94266727D02*
X142524695Y-94125305D01*
G75*
G02*
X142524695Y-93983883I70711J70711D01*
G01*
X142708543Y-93800035D01*
G75*
G02*
X142849965Y-93800035I70711J-70711D01*
G01*
X142991387Y-93941457D01*
G75*
G02*
X142991387Y-94082879I-70711J-70711D01*
G01*
X142807539Y-94266727D01*
G75*
G02*
X142666117Y-94266727I-70711J70711D01*
G01*
G37*
%TD.AperFunction*%
%TD*%
%TO.P,R12,2*%
%TO.N,/D1_IN_P*%
%TA.AperFunction,SMDPad,CuDef*%
G36*
G01*
X143805973Y-92818571D02*
X143947395Y-92959993D01*
G75*
G02*
X143947395Y-93101415I-70711J-70711D01*
G01*
X143763547Y-93285263D01*
G75*
G02*
X143622125Y-93285263I-70711J70711D01*
G01*
X143480703Y-93143841D01*
G75*
G02*
X143480703Y-93002419I70711J70711D01*
G01*
X143664551Y-92818571D01*
G75*
G02*
X143805973Y-92818571I70711J-70711D01*
G01*
G37*
%TD.AperFunction*%
%TO.P,R12,1*%
%TO.N,+3V3*%
%TA.AperFunction,SMDPad,CuDef*%
G36*
G01*
X144258521Y-92366023D02*
X144399943Y-92507445D01*
G75*
G02*
X144399943Y-92648867I-70711J-70711D01*
G01*
X144216095Y-92832715D01*
G75*
G02*
X144074673Y-92832715I-70711J70711D01*
G01*
X143933251Y-92691293D01*
G75*
G02*
X143933251Y-92549871I70711J70711D01*
G01*
X144117099Y-92366023D01*
G75*
G02*
X144258521Y-92366023I70711J-70711D01*
G01*
G37*
%TD.AperFunction*%
%TD*%
%TO.P,R11,2*%
%TO.N,/D2_IN_N*%
%TA.AperFunction,SMDPad,CuDef*%
G36*
G01*
X145244228Y-92737194D02*
X145102806Y-92595772D01*
G75*
G02*
X145102806Y-92454350I70711J70711D01*
G01*
X145286654Y-92270502D01*
G75*
G02*
X145428076Y-92270502I70711J-70711D01*
G01*
X145569498Y-92411924D01*
G75*
G02*
X145569498Y-92553346I-70711J-70711D01*
G01*
X145385650Y-92737194D01*
G75*
G02*
X145244228Y-92737194I-70711J70711D01*
G01*
G37*
%TD.AperFunction*%
%TO.P,R11,1*%
%TO.N,+3V3*%
%TA.AperFunction,SMDPad,CuDef*%
G36*
G01*
X144791680Y-93189742D02*
X144650258Y-93048320D01*
G75*
G02*
X144650258Y-92906898I70711J70711D01*
G01*
X144834106Y-92723050D01*
G75*
G02*
X144975528Y-92723050I70711J-70711D01*
G01*
X145116950Y-92864472D01*
G75*
G02*
X145116950Y-93005894I-70711J-70711D01*
G01*
X144933102Y-93189742D01*
G75*
G02*
X144791680Y-93189742I-70711J70711D01*
G01*
G37*
%TD.AperFunction*%
%TD*%
%TO.P,R10,2*%
%TO.N,/D2_IN_P*%
%TA.AperFunction,SMDPad,CuDef*%
G36*
G01*
X145951335Y-91747243D02*
X146092757Y-91888665D01*
G75*
G02*
X146092757Y-92030087I-70711J-70711D01*
G01*
X145908909Y-92213935D01*
G75*
G02*
X145767487Y-92213935I-70711J70711D01*
G01*
X145626065Y-92072513D01*
G75*
G02*
X145626065Y-91931091I70711J70711D01*
G01*
X145809913Y-91747243D01*
G75*
G02*
X145951335Y-91747243I70711J-70711D01*
G01*
G37*
%TD.AperFunction*%
%TO.P,R10,1*%
%TO.N,+3V3*%
%TA.AperFunction,SMDPad,CuDef*%
G36*
G01*
X146403883Y-91294695D02*
X146545305Y-91436117D01*
G75*
G02*
X146545305Y-91577539I-70711J-70711D01*
G01*
X146361457Y-91761387D01*
G75*
G02*
X146220035Y-91761387I-70711J70711D01*
G01*
X146078613Y-91619965D01*
G75*
G02*
X146078613Y-91478543I70711J70711D01*
G01*
X146262461Y-91294695D01*
G75*
G02*
X146403883Y-91294695I70711J-70711D01*
G01*
G37*
%TD.AperFunction*%
%TD*%
%TO.P,R3,2*%
%TO.N,/PROG_B*%
%TA.AperFunction,SMDPad,CuDef*%
G36*
G01*
X138300520Y-101261109D02*
X138038891Y-100999480D01*
G75*
G02*
X138038891Y-100808562I95459J95459D01*
G01*
X138229810Y-100617643D01*
G75*
G02*
X138420728Y-100617643I95459J-95459D01*
G01*
X138682357Y-100879272D01*
G75*
G02*
X138682357Y-101070190I-95459J-95459D01*
G01*
X138491438Y-101261109D01*
G75*
G02*
X138300520Y-101261109I-95459J95459D01*
G01*
G37*
%TD.AperFunction*%
%TO.P,R3,1*%
%TO.N,+3V3*%
%TA.AperFunction,SMDPad,CuDef*%
G36*
G01*
X137579272Y-101982357D02*
X137317643Y-101720728D01*
G75*
G02*
X137317643Y-101529810I95459J95459D01*
G01*
X137508562Y-101338891D01*
G75*
G02*
X137699480Y-101338891I95459J-95459D01*
G01*
X137961109Y-101600520D01*
G75*
G02*
X137961109Y-101791438I-95459J-95459D01*
G01*
X137770190Y-101982357D01*
G75*
G02*
X137579272Y-101982357I-95459J95459D01*
G01*
G37*
%TD.AperFunction*%
%TD*%
%TO.P,C22,2*%
%TO.N,GND*%
%TA.AperFunction,SMDPad,CuDef*%
G36*
G01*
X143498960Y-111360624D02*
X143739376Y-111601040D01*
G75*
G02*
X143739376Y-111799030I-98995J-98995D01*
G01*
X143541386Y-111997020D01*
G75*
G02*
X143343396Y-111997020I-98995J98995D01*
G01*
X143102980Y-111756604D01*
G75*
G02*
X143102980Y-111558614I98995J98995D01*
G01*
X143300970Y-111360624D01*
G75*
G02*
X143498960Y-111360624I98995J-98995D01*
G01*
G37*
%TD.AperFunction*%
%TO.P,C22,1*%
%TO.N,+1V2*%
%TA.AperFunction,SMDPad,CuDef*%
G36*
G01*
X144177782Y-110681802D02*
X144418198Y-110922218D01*
G75*
G02*
X144418198Y-111120208I-98995J-98995D01*
G01*
X144220208Y-111318198D01*
G75*
G02*
X144022218Y-111318198I-98995J98995D01*
G01*
X143781802Y-111077782D01*
G75*
G02*
X143781802Y-110879792I98995J98995D01*
G01*
X143979792Y-110681802D01*
G75*
G02*
X144177782Y-110681802I98995J-98995D01*
G01*
G37*
%TD.AperFunction*%
%TD*%
%TO.P,C20,2*%
%TO.N,GND*%
%TA.AperFunction,SMDPad,CuDef*%
G36*
G01*
X141438371Y-109321213D02*
X141678787Y-109561629D01*
G75*
G02*
X141678787Y-109759619I-98995J-98995D01*
G01*
X141480797Y-109957609D01*
G75*
G02*
X141282807Y-109957609I-98995J98995D01*
G01*
X141042391Y-109717193D01*
G75*
G02*
X141042391Y-109519203I98995J98995D01*
G01*
X141240381Y-109321213D01*
G75*
G02*
X141438371Y-109321213I98995J-98995D01*
G01*
G37*
%TD.AperFunction*%
%TO.P,C20,1*%
%TO.N,+3V3*%
%TA.AperFunction,SMDPad,CuDef*%
G36*
G01*
X142117193Y-108642391D02*
X142357609Y-108882807D01*
G75*
G02*
X142357609Y-109080797I-98995J-98995D01*
G01*
X142159619Y-109278787D01*
G75*
G02*
X141961629Y-109278787I-98995J98995D01*
G01*
X141721213Y-109038371D01*
G75*
G02*
X141721213Y-108840381I98995J98995D01*
G01*
X141919203Y-108642391D01*
G75*
G02*
X142117193Y-108642391I98995J-98995D01*
G01*
G37*
%TD.AperFunction*%
%TD*%
%TO.P,C19,2*%
%TO.N,GND*%
%TA.AperFunction,SMDPad,CuDef*%
G36*
G01*
X155201040Y-95439376D02*
X154960624Y-95198960D01*
G75*
G02*
X154960624Y-95000970I98995J98995D01*
G01*
X155158614Y-94802980D01*
G75*
G02*
X155356604Y-94802980I98995J-98995D01*
G01*
X155597020Y-95043396D01*
G75*
G02*
X155597020Y-95241386I-98995J-98995D01*
G01*
X155399030Y-95439376D01*
G75*
G02*
X155201040Y-95439376I-98995J98995D01*
G01*
G37*
%TD.AperFunction*%
%TO.P,C19,1*%
%TO.N,+1V2*%
%TA.AperFunction,SMDPad,CuDef*%
G36*
G01*
X154522218Y-96118198D02*
X154281802Y-95877782D01*
G75*
G02*
X154281802Y-95679792I98995J98995D01*
G01*
X154479792Y-95481802D01*
G75*
G02*
X154677782Y-95481802I98995J-98995D01*
G01*
X154918198Y-95722218D01*
G75*
G02*
X154918198Y-95920208I-98995J-98995D01*
G01*
X154720208Y-96118198D01*
G75*
G02*
X154522218Y-96118198I-98995J98995D01*
G01*
G37*
%TD.AperFunction*%
%TD*%
%TO.P,C17,2*%
%TO.N,GND*%
%TA.AperFunction,SMDPad,CuDef*%
G36*
G01*
X151721213Y-114461629D02*
X151961629Y-114221213D01*
G75*
G02*
X152159619Y-114221213I98995J-98995D01*
G01*
X152357609Y-114419203D01*
G75*
G02*
X152357609Y-114617193I-98995J-98995D01*
G01*
X152117193Y-114857609D01*
G75*
G02*
X151919203Y-114857609I-98995J98995D01*
G01*
X151721213Y-114659619D01*
G75*
G02*
X151721213Y-114461629I98995J98995D01*
G01*
G37*
%TD.AperFunction*%
%TO.P,C17,1*%
%TO.N,+3V3*%
%TA.AperFunction,SMDPad,CuDef*%
G36*
G01*
X151042391Y-113782807D02*
X151282807Y-113542391D01*
G75*
G02*
X151480797Y-113542391I98995J-98995D01*
G01*
X151678787Y-113740381D01*
G75*
G02*
X151678787Y-113938371I-98995J-98995D01*
G01*
X151438371Y-114178787D01*
G75*
G02*
X151240381Y-114178787I-98995J98995D01*
G01*
X151042391Y-113980797D01*
G75*
G02*
X151042391Y-113782807I98995J98995D01*
G01*
G37*
%TD.AperFunction*%
%TD*%
%TO.P,C15,2*%
%TO.N,GND*%
%TA.AperFunction,SMDPad,CuDef*%
G36*
G01*
X158360624Y-107801040D02*
X158601040Y-107560624D01*
G75*
G02*
X158799030Y-107560624I98995J-98995D01*
G01*
X158997020Y-107758614D01*
G75*
G02*
X158997020Y-107956604I-98995J-98995D01*
G01*
X158756604Y-108197020D01*
G75*
G02*
X158558614Y-108197020I-98995J98995D01*
G01*
X158360624Y-107999030D01*
G75*
G02*
X158360624Y-107801040I98995J98995D01*
G01*
G37*
%TD.AperFunction*%
%TO.P,C15,1*%
%TO.N,+3V3*%
%TA.AperFunction,SMDPad,CuDef*%
G36*
G01*
X157681802Y-107122218D02*
X157922218Y-106881802D01*
G75*
G02*
X158120208Y-106881802I98995J-98995D01*
G01*
X158318198Y-107079792D01*
G75*
G02*
X158318198Y-107277782I-98995J-98995D01*
G01*
X158077782Y-107518198D01*
G75*
G02*
X157879792Y-107518198I-98995J98995D01*
G01*
X157681802Y-107320208D01*
G75*
G02*
X157681802Y-107122218I98995J98995D01*
G01*
G37*
%TD.AperFunction*%
%TD*%
%TO.P,C14,2*%
%TO.N,GND*%
%TA.AperFunction,SMDPad,CuDef*%
G36*
G01*
X156131213Y-110001629D02*
X156371629Y-109761213D01*
G75*
G02*
X156569619Y-109761213I98995J-98995D01*
G01*
X156767609Y-109959203D01*
G75*
G02*
X156767609Y-110157193I-98995J-98995D01*
G01*
X156527193Y-110397609D01*
G75*
G02*
X156329203Y-110397609I-98995J98995D01*
G01*
X156131213Y-110199619D01*
G75*
G02*
X156131213Y-110001629I98995J98995D01*
G01*
G37*
%TD.AperFunction*%
%TO.P,C14,1*%
%TO.N,+1V2*%
%TA.AperFunction,SMDPad,CuDef*%
G36*
G01*
X155452391Y-109322807D02*
X155692807Y-109082391D01*
G75*
G02*
X155890797Y-109082391I98995J-98995D01*
G01*
X156088787Y-109280381D01*
G75*
G02*
X156088787Y-109478371I-98995J-98995D01*
G01*
X155848371Y-109718787D01*
G75*
G02*
X155650381Y-109718787I-98995J98995D01*
G01*
X155452391Y-109520797D01*
G75*
G02*
X155452391Y-109322807I98995J98995D01*
G01*
G37*
%TD.AperFunction*%
%TD*%
%TO.P,C13,2*%
%TO.N,GND*%
%TA.AperFunction,SMDPad,CuDef*%
G36*
G01*
X154561629Y-94778787D02*
X154321213Y-94538371D01*
G75*
G02*
X154321213Y-94340381I98995J98995D01*
G01*
X154519203Y-94142391D01*
G75*
G02*
X154717193Y-94142391I98995J-98995D01*
G01*
X154957609Y-94382807D01*
G75*
G02*
X154957609Y-94580797I-98995J-98995D01*
G01*
X154759619Y-94778787D01*
G75*
G02*
X154561629Y-94778787I-98995J98995D01*
G01*
G37*
%TD.AperFunction*%
%TO.P,C13,1*%
%TO.N,+3V3*%
%TA.AperFunction,SMDPad,CuDef*%
G36*
G01*
X153882807Y-95457609D02*
X153642391Y-95217193D01*
G75*
G02*
X153642391Y-95019203I98995J98995D01*
G01*
X153840381Y-94821213D01*
G75*
G02*
X154038371Y-94821213I98995J-98995D01*
G01*
X154278787Y-95061629D01*
G75*
G02*
X154278787Y-95259619I-98995J-98995D01*
G01*
X154080797Y-95457609D01*
G75*
G02*
X153882807Y-95457609I-98995J98995D01*
G01*
G37*
%TD.AperFunction*%
%TD*%
%TO.P,C4,2*%
%TO.N,GND*%
%TA.AperFunction,SMDPad,CuDef*%
G36*
G01*
X145238371Y-113121213D02*
X145478787Y-113361629D01*
G75*
G02*
X145478787Y-113559619I-98995J-98995D01*
G01*
X145280797Y-113757609D01*
G75*
G02*
X145082807Y-113757609I-98995J98995D01*
G01*
X144842391Y-113517193D01*
G75*
G02*
X144842391Y-113319203I98995J98995D01*
G01*
X145040381Y-113121213D01*
G75*
G02*
X145238371Y-113121213I98995J-98995D01*
G01*
G37*
%TD.AperFunction*%
%TO.P,C4,1*%
%TO.N,+3V3*%
%TA.AperFunction,SMDPad,CuDef*%
G36*
G01*
X145917193Y-112442391D02*
X146157609Y-112682807D01*
G75*
G02*
X146157609Y-112880797I-98995J-98995D01*
G01*
X145959619Y-113078787D01*
G75*
G02*
X145761629Y-113078787I-98995J98995D01*
G01*
X145521213Y-112838371D01*
G75*
G02*
X145521213Y-112640381I98995J98995D01*
G01*
X145719203Y-112442391D01*
G75*
G02*
X145917193Y-112442391I98995J-98995D01*
G01*
G37*
%TD.AperFunction*%
%TD*%
D14*
%TO.P,D24,2*%
%TO.N,GND*%
X175000000Y-103250000D03*
%TO.P,D24,1*%
%TO.N,/CK_OUT_N*%
X175000000Y-103950000D03*
%TD*%
%TO.P,D22,2*%
%TO.N,GND*%
X175000000Y-106250000D03*
%TO.P,D22,1*%
%TO.N,/D1_OUT_N*%
X175000000Y-106950000D03*
%TD*%
%TO.P,D15,2*%
%TO.N,GND*%
X175000000Y-105650000D03*
%TO.P,D15,1*%
%TO.N,/CK_OUT_P*%
X175000000Y-104950000D03*
%TD*%
%TO.P,D13,2*%
%TO.N,GND*%
X114100000Y-106450000D03*
%TO.P,D13,1*%
%TO.N,/CK_IN_N*%
X114100000Y-105750000D03*
%TD*%
%TO.P,D11,2*%
%TO.N,GND*%
X114100000Y-103450000D03*
%TO.P,D11,1*%
%TO.N,/D1_IN_N*%
X114100000Y-102750000D03*
%TD*%
%TO.P,D9,2*%
%TO.N,GND*%
X175000000Y-108650000D03*
%TO.P,D9,1*%
%TO.N,/D1_OUT_P*%
X175000000Y-107950000D03*
%TD*%
%TO.P,D5,2*%
%TO.N,GND*%
X114100000Y-104050000D03*
%TO.P,D5,1*%
%TO.N,/CK_IN_P*%
X114100000Y-104750000D03*
%TD*%
%TO.P,D3,2*%
%TO.N,GND*%
X114100000Y-101050000D03*
%TO.P,D3,1*%
%TO.N,/D1_IN_P*%
X114100000Y-101750000D03*
%TD*%
D15*
%TO.P,J4,SH*%
%TO.N,GND*%
X179500000Y-97450000D03*
X179500000Y-111950000D03*
X184400000Y-96850000D03*
X184400000Y-112550000D03*
%TD*%
D16*
%TO.P,D1,2*%
%TO.N,GND*%
X138650000Y-114000000D03*
%TO.P,D1,1*%
%TO.N,+5V*%
X135350000Y-114000000D03*
%TD*%
D15*
%TO.P,J2,SH*%
%TO.N,GND*%
X104590000Y-96850000D03*
X104590000Y-112550000D03*
X109490000Y-97450000D03*
X109490000Y-111950000D03*
%TD*%
D12*
%TO.P,J3,2*%
%TO.N,GND*%
X138340000Y-116900000D03*
D13*
%TO.P,J3,1*%
%TO.N,+5V*%
X135800000Y-116900000D03*
%TD*%
D17*
%TO.N,GND*%
X108650000Y-101950000D03*
X180275000Y-107450000D03*
X180300000Y-101450000D03*
X180310000Y-105950000D03*
X180275000Y-104450000D03*
X180275000Y-108950000D03*
X108700000Y-100750000D03*
X108655000Y-103500000D03*
X108640000Y-104950000D03*
X108675000Y-107950000D03*
D18*
X175810000Y-110150000D03*
X175040000Y-102590000D03*
X175040000Y-101950000D03*
X175070000Y-101020000D03*
X175140000Y-99930000D03*
X175100000Y-97330000D03*
X170230000Y-113080000D03*
X159220000Y-107030000D03*
X160360000Y-102930000D03*
X113220000Y-99490000D03*
X114080000Y-112620000D03*
X114020000Y-108920000D03*
X114020000Y-107910000D03*
X133870000Y-95338222D03*
X132610000Y-96490000D03*
X118930000Y-96280000D03*
X132200000Y-111200000D03*
X129300000Y-112510000D03*
X118890000Y-112540000D03*
X115450000Y-109140000D03*
X114620000Y-107090000D03*
X116870000Y-101330000D03*
X114760000Y-106570000D03*
X112490000Y-99480000D03*
X172450000Y-104620000D03*
X177230000Y-110440000D03*
X130050000Y-95370000D03*
X147212000Y-118665200D03*
X151276000Y-117649200D03*
X155035200Y-118512800D03*
X157016400Y-113940800D03*
X162096400Y-118309600D03*
X159302400Y-114245600D03*
X161385200Y-116836400D03*
X155492400Y-100177600D03*
X153612800Y-98548400D03*
X157575200Y-95297200D03*
X151834800Y-97227600D03*
X149752000Y-95398800D03*
X149904400Y-96313200D03*
X147923200Y-98091200D03*
X144824400Y-98650000D03*
X148646120Y-95332790D03*
X136493200Y-85746800D03*
X146907200Y-116531600D03*
X142690800Y-112416800D03*
X141556282Y-110639126D03*
X151580800Y-114956800D03*
X156914800Y-110486400D03*
X140506400Y-111705600D03*
X145018151Y-100672551D03*
X174999600Y-98954800D03*
X173932800Y-102764800D03*
X157321200Y-96465600D03*
X113988800Y-110130800D03*
X113988800Y-111248400D03*
X135940800Y-111099600D03*
X133272547Y-112495820D03*
X137617200Y-111963200D03*
X138125200Y-96774000D03*
X140309600Y-98298000D03*
X140205754Y-108209440D03*
%TO.N,+3V3*%
X148736000Y-115668000D03*
X156864000Y-117954000D03*
X172459600Y-113940800D03*
X133445200Y-113636000D03*
X141166800Y-112213600D03*
X148024800Y-95398800D03*
X145344143Y-112580943D03*
X150971200Y-114194800D03*
X158513667Y-106933036D03*
X153511200Y-94636800D03*
X146348400Y-90866589D03*
X137362023Y-100893144D03*
X142223634Y-96023881D03*
X139488743Y-96617797D03*
X140336400Y-109374455D03*
X143185137Y-99989972D03*
X165754000Y-100224800D03*
X158743600Y-97837200D03*
X141935200Y-101178150D03*
X142386000Y-93722400D03*
%TO.N,+1V2*%
X147008800Y-96364000D03*
X151631600Y-100478800D03*
X151834800Y-98446800D03*
X153866800Y-106981200D03*
X153149300Y-115227100D03*
%TO.N,+5V*%
X171088000Y-97024400D03*
X164839600Y-95805200D03*
%TO.N,/TDI*%
X160786394Y-97785094D03*
X154273200Y-100631200D03*
%TO.N,/SDA_IN*%
X115665200Y-110994400D03*
%TO.N,/UTIL_IN*%
X115665200Y-108102400D03*
%TO.N,/CK_IN_N*%
X112460000Y-105602000D03*
%TO.N,/CK_IN_P*%
X112460000Y-104898000D03*
%TO.N,/D1_IN_N*%
X112563067Y-102602000D03*
%TO.N,/D1_IN_P*%
X112563067Y-101898000D03*
%TO.N,/HPD_IN*%
X116833600Y-113788400D03*
%TO.N,/SCL_IN*%
X116427200Y-108657600D03*
%TO.N,/CEC_IN*%
X114715025Y-107684860D03*
%TO.N,/D0_IN_N*%
X115170000Y-104102000D03*
%TO.N,/D0_IN_P*%
X115170000Y-103398000D03*
%TO.N,/D2_IN_N*%
X115150000Y-101102000D03*
%TO.N,/D2_IN_P*%
X115150000Y-100398000D03*
%TO.N,/SDA_OUT*%
X159022834Y-95322434D03*
%TO.N,/UTIL_OUT*%
X161541693Y-94867256D03*
%TO.N,/CK_OUT_N*%
X176470000Y-104098000D03*
%TO.N,/CK_OUT_P*%
X176470000Y-104802000D03*
%TO.N,/D1_OUT_N*%
X176542237Y-107098000D03*
%TO.N,/D1_OUT_P*%
X176542237Y-107802000D03*
%TO.N,/HPD_OUT*%
X158596872Y-94896472D03*
%TO.N,/SCL_OUT*%
X160011968Y-94835878D03*
%TO.N,/CEC_OUT*%
X161967656Y-95320856D03*
%TO.N,/D0_OUT_N*%
X173995598Y-105598000D03*
%TO.N,/D0_OUT_P*%
X173995598Y-106302000D03*
%TO.N,/D2_OUT_N*%
X173992598Y-108598000D03*
%TO.N,/D2_OUT_P*%
X173992598Y-109302000D03*
%TO.N,/DONE*%
X156123409Y-101168591D03*
%TO.N,/DQ7*%
X138950000Y-100550000D03*
%TO.N,/DQ6*%
X153138456Y-106998023D03*
%TO.N,/DQ5*%
X153300000Y-107700000D03*
%TO.N,/DQ4*%
X140963600Y-98396000D03*
%TO.N,/DQM*%
X142447190Y-100672190D03*
%TO.N,/CLK*%
X146268591Y-101931409D03*
X150850000Y-96800000D03*
X147531755Y-100673614D03*
%TO.N,/CKE*%
X141250000Y-102310010D03*
%TO.N,/A12*%
X152350000Y-93800000D03*
%TO.N,/A11*%
X152000000Y-93250000D03*
%TO.N,/A9*%
X153200000Y-93900000D03*
%TO.N,/A8*%
X155500000Y-96500000D03*
%TO.N,/A7*%
X156000000Y-95950000D03*
%TO.N,/A6*%
X156441782Y-97008591D03*
%TO.N,/A5*%
X147443591Y-102696390D03*
%TO.N,/A4*%
X152000000Y-109600000D03*
%TO.N,/A3*%
X152650000Y-108400000D03*
%TO.N,/A2*%
X151990401Y-108400732D03*
%TO.N,/A1*%
X152052782Y-108999905D03*
%TO.N,/A0*%
X147049336Y-105510010D03*
%TO.N,/A10*%
X148408251Y-105866749D03*
%TO.N,/BA1*%
X148800000Y-106750000D03*
%TO.N,/BA0*%
X149475000Y-108875000D03*
%TO.N,/CS#*%
X148650000Y-108750000D03*
%TO.N,/RAS#*%
X146250000Y-117200000D03*
%TO.N,/CAS#*%
X146950000Y-108800000D03*
%TO.N,/WE#*%
X145425000Y-108425000D03*
%TO.N,/DQ3*%
X157850000Y-102800000D03*
%TO.N,/DQ2*%
X146645744Y-113054256D03*
%TO.N,/DQ1*%
X147100000Y-114753600D03*
%TO.N,/DQ0*%
X159700000Y-104100000D03*
%TO.N,Net-(U2-Pad43)*%
X154850000Y-106100000D03*
%TO.N,/VDDQ_RAM*%
X137052000Y-110892800D03*
X131514800Y-95805200D03*
X136493200Y-96617586D03*
X132861344Y-95780144D03*
X136117049Y-108152286D03*
X135585200Y-112064800D03*
%TO.N,/VDD_RAM*%
X140557200Y-110791200D03*
X130752800Y-111553200D03*
X127152400Y-117652800D03*
X127152400Y-114909600D03*
%TO.N,/CS*%
X152342800Y-113534400D03*
%TO.N,/SCK*%
X159216744Y-100748744D03*
%TO.N,/SO*%
X159800952Y-100895675D03*
%TO.N,/SI*%
X156677640Y-105110539D03*
%TO.N,Net-(R19-Pad1)*%
X144105292Y-99212400D03*
%TD*%
D19*
%TO.N,*%
X121000000Y-120950000D02*
X121000000Y-122950000D01*
X119000000Y-120950000D02*
X121000000Y-120950000D01*
X119000000Y-120950000D02*
X119000000Y-122950000D01*
X125000000Y-120950000D02*
X125000000Y-122950000D01*
X123000000Y-120950000D02*
X125000000Y-120950000D01*
X121000000Y-120950000D02*
X123000000Y-120950000D01*
X117000000Y-120950000D02*
X119000000Y-120950000D01*
X125000000Y-122950000D02*
X117000000Y-122950000D01*
X117000000Y-122950000D02*
X117000000Y-120950000D01*
D20*
%TO.N,GND*%
X138650000Y-116590000D02*
X138340000Y-116900000D01*
X138650000Y-114000000D02*
X138650000Y-116590000D01*
D21*
X114100000Y-101050000D02*
X114060000Y-101050000D01*
X114060000Y-101050000D02*
X112490000Y-99480000D01*
X114100000Y-104050000D02*
X114100000Y-103730000D01*
X114100000Y-103730000D02*
X114100000Y-103450000D01*
D20*
X108685000Y-103730000D02*
X108665000Y-103750000D01*
X113150000Y-103740000D02*
X108685000Y-103730000D01*
D21*
X113460000Y-104050000D02*
X113150000Y-103740000D01*
X114100000Y-104050000D02*
X113460000Y-104050000D01*
X113440000Y-103450000D02*
X113150000Y-103740000D01*
X114100000Y-103450000D02*
X113440000Y-103450000D01*
X175000000Y-106250000D02*
X175000000Y-105650000D01*
X176390000Y-105650000D02*
X176690000Y-105950000D01*
X175000000Y-105650000D02*
X176390000Y-105650000D01*
D20*
X176690000Y-105950000D02*
X175960000Y-105950000D01*
X180310000Y-105950000D02*
X176690000Y-105950000D01*
D21*
X176390000Y-106250000D02*
X176690000Y-105950000D01*
X175000000Y-106250000D02*
X176390000Y-106250000D01*
X175000000Y-108650000D02*
X176020000Y-108650000D01*
X176020000Y-108650000D02*
X177260000Y-109890000D01*
X177260000Y-110410000D02*
X177230000Y-110440000D01*
X177260000Y-109890000D02*
X177260000Y-110410000D01*
X155687934Y-100177600D02*
X155492400Y-100177600D01*
X156315973Y-99549561D02*
X155687934Y-100177600D01*
X154548206Y-97781794D02*
X153781600Y-98548400D01*
X153781600Y-98548400D02*
X153612800Y-98548400D01*
X156738589Y-94460589D02*
X157575200Y-95297200D01*
X154639411Y-94460589D02*
X156738589Y-94460589D01*
X155278822Y-95100000D02*
X154639411Y-94460589D01*
X155278822Y-95121178D02*
X155278822Y-95100000D01*
X151834800Y-96252559D02*
X151834800Y-97227600D01*
X152426885Y-95660474D02*
X151834800Y-96252559D01*
X150659118Y-93892707D02*
X149650400Y-94901425D01*
X149650400Y-95297200D02*
X149752000Y-95398800D01*
X149650400Y-94901425D02*
X149650400Y-95297200D01*
X144824400Y-98187293D02*
X144065348Y-97428241D01*
X144824400Y-98650000D02*
X144824400Y-98187293D01*
X148646120Y-95523994D02*
X148646120Y-95332790D01*
X148266913Y-95903201D02*
X148646120Y-95523994D01*
X147490055Y-95903201D02*
X148266913Y-95903201D01*
X146540221Y-94953367D02*
X147490055Y-95903201D01*
X145160589Y-114784989D02*
X146907200Y-116531600D01*
X145160589Y-113439411D02*
X145160589Y-114784989D01*
X143421178Y-111686422D02*
X142690800Y-112416800D01*
X143421178Y-111678822D02*
X143421178Y-111686422D01*
X141360589Y-109639411D02*
X141360589Y-109987811D01*
X141556282Y-110183504D02*
X141556282Y-110639126D01*
X141360589Y-109987811D02*
X141556282Y-110183504D01*
X145479561Y-110453991D02*
X145479561Y-110385973D01*
X144254730Y-111678822D02*
X145479561Y-110453991D01*
X143421178Y-111678822D02*
X144254730Y-111678822D01*
X151998189Y-114539411D02*
X151580800Y-114956800D01*
X152039411Y-114539411D02*
X151998189Y-114539411D01*
X156507811Y-110079411D02*
X156914800Y-110486400D01*
X156449411Y-110079411D02*
X156507811Y-110079411D01*
X159220000Y-107337644D02*
X158678822Y-107878822D01*
X159220000Y-107030000D02*
X159220000Y-107337644D01*
X159220000Y-106926039D02*
X159220000Y-107030000D01*
X157730186Y-105436225D02*
X159220000Y-106926039D01*
X156737078Y-107878822D02*
X158678822Y-107878822D01*
X156062248Y-107203992D02*
X156737078Y-107878822D01*
X155962419Y-107203992D02*
X156062248Y-107203992D01*
X144316400Y-99716800D02*
X144824400Y-99208800D01*
X143625309Y-99716800D02*
X144316400Y-99716800D01*
X142750963Y-98842454D02*
X143625309Y-99716800D01*
X144824400Y-99208800D02*
X144824400Y-98650000D01*
X142651134Y-98842454D02*
X142750963Y-98842454D01*
X175000000Y-103250000D02*
X174418000Y-103250000D01*
X174418000Y-103250000D02*
X173932800Y-102764800D01*
X143421178Y-109615929D02*
X144065348Y-108971759D01*
X143421178Y-111678822D02*
X143421178Y-109615929D01*
X114640000Y-106450000D02*
X114760000Y-106570000D01*
X114100000Y-106450000D02*
X114640000Y-106450000D01*
X140309600Y-99329347D02*
X140309600Y-98298000D01*
X141236921Y-100256668D02*
X140309600Y-99329347D01*
X140585026Y-108209440D02*
X140205754Y-108209440D01*
X141944027Y-106850439D02*
X140585026Y-108209440D01*
%TO.N,+3V3*%
X147693961Y-95400000D02*
X146893775Y-94599814D01*
X148000000Y-95400000D02*
X147693961Y-95400000D01*
X150360846Y-112860846D02*
X151360589Y-113860589D01*
X150305565Y-112860846D02*
X150360846Y-112860846D01*
X145933372Y-112760589D02*
X146893775Y-111800186D01*
X145839411Y-112760589D02*
X145933372Y-112760589D01*
X142039411Y-108876376D02*
X143004688Y-107911099D01*
X142039411Y-108960589D02*
X142039411Y-108876376D01*
X153960589Y-95540984D02*
X153133992Y-96367581D01*
X153960589Y-95139411D02*
X153960589Y-95540984D01*
X148023600Y-95400000D02*
X148024800Y-95398800D01*
X148000000Y-95400000D02*
X148023600Y-95400000D01*
X145523789Y-112760589D02*
X145344143Y-112580943D01*
X145839411Y-112760589D02*
X145523789Y-112760589D01*
X151305411Y-113860589D02*
X150971200Y-114194800D01*
X151360589Y-113860589D02*
X151305411Y-113860589D01*
X158000000Y-107120253D02*
X157023079Y-106143332D01*
X158000000Y-107200000D02*
X158000000Y-107120253D01*
X158246703Y-107200000D02*
X158513667Y-106933036D01*
X158000000Y-107200000D02*
X158246703Y-107200000D01*
X153960589Y-95086189D02*
X153511200Y-94636800D01*
X153960589Y-95139411D02*
X153960589Y-95086189D01*
X144526577Y-92599369D02*
X144883604Y-92956396D01*
X144166597Y-92599369D02*
X144526577Y-92599369D01*
X145391779Y-93097818D02*
X146893775Y-94599814D01*
X145025026Y-93097818D02*
X145391779Y-93097818D01*
X144883604Y-92956396D02*
X145025026Y-93097818D01*
X146311959Y-90903030D02*
X146348400Y-90866589D01*
X146311959Y-91528041D02*
X146311959Y-90903030D01*
X139966619Y-96891959D02*
X140911860Y-97837200D01*
X141775233Y-98673660D02*
X142297581Y-99196008D01*
X141775233Y-98461119D02*
X141775233Y-98673660D01*
X141151314Y-97837200D02*
X141775233Y-98461119D01*
X140911860Y-97837200D02*
X141151314Y-97837200D01*
X137639376Y-101170497D02*
X137362023Y-100893144D01*
X137639376Y-101660624D02*
X137639376Y-101170497D01*
X141854638Y-95894982D02*
X141409118Y-95449462D01*
X142020474Y-95894982D02*
X141854638Y-95894982D01*
X142094735Y-95894982D02*
X142223634Y-96023881D01*
X142020474Y-95894982D02*
X142094735Y-95894982D01*
X139762905Y-96891959D02*
X139488743Y-96617797D01*
X139966619Y-96891959D02*
X139762905Y-96891959D01*
X143051279Y-94326619D02*
X142758041Y-94033381D01*
X143280537Y-94326619D02*
X143051279Y-94326619D01*
X143421959Y-94468041D02*
X143280537Y-94326619D01*
X142297581Y-99196008D02*
X143091545Y-99989972D01*
X143091545Y-99989972D02*
X143185137Y-99989972D01*
X158743600Y-99243254D02*
X157376633Y-100610221D01*
X158743600Y-97837200D02*
X158743600Y-99243254D01*
X141451296Y-101178150D02*
X141935200Y-101178150D01*
X140883367Y-100610221D02*
X141451296Y-101178150D01*
X140750266Y-108960589D02*
X140336400Y-109374455D01*
X142039411Y-108960589D02*
X140750266Y-108960589D01*
X142436800Y-93712140D02*
X142396260Y-93712140D01*
X142758041Y-94033381D02*
X142436800Y-93712140D01*
X142396260Y-93712140D02*
X142386000Y-93722400D01*
%TO.N,+1V2*%
X144158427Y-111000000D02*
X145126008Y-110032419D01*
X144100000Y-111000000D02*
X144158427Y-111000000D01*
X154408680Y-95800000D02*
X153487546Y-96721134D01*
X154600000Y-95800000D02*
X154408680Y-95800000D01*
X146186668Y-95306921D02*
X147008800Y-96129053D01*
X147008800Y-96129053D02*
X147008800Y-96364000D01*
X155330589Y-109400589D02*
X154548206Y-108618206D01*
X155770589Y-109400589D02*
X155330589Y-109400589D01*
X145648355Y-109510072D02*
X145126008Y-110032419D01*
X150087178Y-106493622D02*
X147070728Y-109510072D01*
X153531622Y-106493622D02*
X150087178Y-106493622D01*
X153804401Y-106766401D02*
X153531622Y-106493622D01*
X147070728Y-109510072D02*
X145648355Y-109510072D01*
X153804401Y-107774572D02*
X153804401Y-106766401D01*
X154548206Y-108518377D02*
X153804401Y-107774572D01*
X154548206Y-108618206D02*
X154548206Y-108518377D01*
X151834800Y-98373880D02*
X153487546Y-96721134D01*
X151834800Y-98446800D02*
X151834800Y-98373880D01*
X149091600Y-98446800D02*
X147008800Y-96364000D01*
X151834800Y-98446800D02*
X149091600Y-98446800D01*
X146939190Y-102377210D02*
X148837600Y-100478800D01*
X148837600Y-100478800D02*
X151631600Y-100478800D01*
X146939190Y-102938503D02*
X146939190Y-102377210D01*
X149539065Y-105538378D02*
X146939190Y-102938503D01*
X149548800Y-105538378D02*
X149539065Y-105538378D01*
X149548800Y-105955244D02*
X149548800Y-105538378D01*
X150087178Y-106493622D02*
X149548800Y-105955244D01*
D20*
%TO.N,+5V*%
X135800000Y-116900000D02*
X135800000Y-115930000D01*
X135350000Y-115480000D02*
X135350000Y-114000000D01*
X135800000Y-115930000D02*
X135350000Y-115480000D01*
D21*
X171088000Y-94992400D02*
X171088000Y-97024400D01*
X170376800Y-94281200D02*
X171088000Y-94992400D01*
X165246000Y-94281200D02*
X170376800Y-94281200D01*
X164839600Y-94687600D02*
X165246000Y-94281200D01*
X164839600Y-95805200D02*
X164839600Y-94687600D01*
D19*
%TO.N,/TDI*%
X140840373Y-104208827D02*
X140342998Y-104208827D01*
X145421300Y-99627900D02*
X140840373Y-104208827D01*
X153269900Y-99627900D02*
X145421300Y-99627900D01*
X154273200Y-100631200D02*
X153269900Y-99627900D01*
X140342998Y-104208827D02*
X139822707Y-104729118D01*
X169781200Y-92550000D02*
X170460000Y-92550000D01*
X168507200Y-93824000D02*
X169781200Y-92550000D01*
X164537066Y-93824000D02*
X168507200Y-93824000D01*
X160600810Y-97760256D02*
X164537066Y-93824000D01*
X160761556Y-97760256D02*
X160600810Y-97760256D01*
X160786394Y-97785094D02*
X160761556Y-97760256D01*
%TO.N,/TMS*%
X160296000Y-97634000D02*
X165380000Y-92550000D01*
X160296000Y-101568000D02*
X160296000Y-97634000D01*
X158610399Y-103253601D02*
X160296000Y-101568000D01*
X157566931Y-103253601D02*
X158610399Y-103253601D01*
X153636419Y-99323089D02*
X157566931Y-103253601D01*
X145218111Y-99323089D02*
X153636419Y-99323089D01*
X140637183Y-103904017D02*
X145218111Y-99323089D01*
X139940702Y-103904017D02*
X140637183Y-103904017D01*
X139469154Y-104375565D02*
X139940702Y-103904017D01*
%TO.N,/TDO*%
X161058000Y-94332000D02*
X162840000Y-92550000D01*
X158134000Y-94332000D02*
X161058000Y-94332000D01*
X156598399Y-92796399D02*
X158134000Y-94332000D01*
X151048320Y-92796399D02*
X156598399Y-92796399D01*
X150305565Y-93539154D02*
X151048320Y-92796399D01*
%TO.N,/TCK*%
X160300000Y-92550000D02*
X160050000Y-92300000D01*
X149193589Y-92300000D02*
X147954435Y-93539154D01*
X160050000Y-92300000D02*
X149193589Y-92300000D01*
%TO.N,/SDA_IN*%
X115665200Y-110994400D02*
X118154400Y-113483600D01*
X118300138Y-113483600D02*
X121097738Y-116281200D01*
X118154400Y-113483600D02*
X118300138Y-113483600D01*
X121097738Y-116281200D02*
X128652262Y-116281200D01*
X135229600Y-110971866D02*
X135229600Y-110947200D01*
X134311716Y-111889750D02*
X135229600Y-110971866D01*
X133043712Y-111889750D02*
X134311716Y-111889750D01*
X128652262Y-116281200D02*
X133043712Y-111889750D01*
X140240149Y-106432997D02*
X140883367Y-105789779D01*
X139768469Y-106432997D02*
X140240149Y-106432997D01*
X135229600Y-110971866D02*
X139768469Y-106432997D01*
%TO.N,/UTIL_IN*%
X140058266Y-105907773D02*
X140529814Y-105436225D01*
X139811827Y-105907773D02*
X140058266Y-105907773D01*
X134185460Y-111584940D02*
X134185460Y-111534140D01*
X132917456Y-111584940D02*
X134185460Y-111584940D01*
X121173204Y-115925600D02*
X128576797Y-115925599D01*
X116122390Y-110892790D02*
X116140394Y-110892790D01*
X115665200Y-108102400D02*
X115665200Y-108566930D01*
X128576797Y-115925599D02*
X132917456Y-111584940D01*
X134185460Y-111534140D02*
X139811827Y-105907773D01*
X116140394Y-110892790D02*
X121173204Y-115925600D01*
X116122390Y-109024120D02*
X116122390Y-110892790D01*
X115665200Y-108566930D02*
X116122390Y-109024120D01*
D21*
%TO.N,/CK_IN_N*%
X143352583Y-98135348D02*
X143358241Y-98135348D01*
X142311235Y-97094000D02*
X143352583Y-98135348D01*
X141264788Y-97094000D02*
X142311235Y-97094000D01*
X140014788Y-95844000D02*
X141264788Y-97094000D01*
X135365212Y-95844000D02*
X140014788Y-95844000D01*
X133004000Y-98205212D02*
X135365212Y-95844000D01*
X133004000Y-107905212D02*
X133004000Y-98205212D01*
X130405212Y-110504000D02*
X133004000Y-107905212D01*
X125070000Y-110504000D02*
X130405212Y-110504000D01*
X124930924Y-110519670D02*
X125070000Y-110504000D01*
X124798822Y-110565894D02*
X124930924Y-110519670D01*
X124680318Y-110640355D02*
X124798822Y-110565894D01*
X124581355Y-110739318D02*
X124680318Y-110640355D01*
X124506894Y-110857822D02*
X124581355Y-110739318D01*
X124460670Y-110989924D02*
X124506894Y-110857822D01*
X124445000Y-111129000D02*
X124460670Y-110989924D01*
X124445000Y-111545075D02*
X124445000Y-111129000D01*
X124418234Y-111782623D02*
X124445000Y-111545075D01*
X124339281Y-112008260D02*
X124418234Y-111782623D01*
X124212098Y-112210670D02*
X124339281Y-112008260D01*
X124043063Y-112379705D02*
X124212098Y-112210670D01*
X123840653Y-112506888D02*
X124043063Y-112379705D01*
X123615016Y-112585841D02*
X123840653Y-112506888D01*
X123377468Y-112612607D02*
X123615016Y-112585841D01*
X123246531Y-112612607D02*
X123377468Y-112612607D01*
X123008983Y-112585841D02*
X123246531Y-112612607D01*
X122783346Y-112506888D02*
X123008983Y-112585841D01*
X122580936Y-112379705D02*
X122783346Y-112506888D01*
X122042644Y-110739318D02*
X122117105Y-110857822D01*
X122179000Y-111129000D02*
X122179000Y-111545075D01*
X122411901Y-112210670D02*
X122580936Y-112379705D01*
X121825177Y-110565894D02*
X121943681Y-110640355D01*
X121693075Y-110519670D02*
X121825177Y-110565894D01*
X122117105Y-110857822D02*
X122163329Y-110989924D01*
X121554000Y-110504000D02*
X121693075Y-110519670D01*
X112460000Y-105602000D02*
X112558000Y-105504000D01*
X115352788Y-105504000D02*
X120352788Y-110504000D01*
X120352788Y-110504000D02*
X121554000Y-110504000D01*
X121943681Y-110640355D02*
X122042644Y-110739318D01*
X122163329Y-110989924D02*
X122179000Y-111129000D01*
X122179000Y-111545075D02*
X122205765Y-111782623D01*
X122205765Y-111782623D02*
X122284718Y-112008260D01*
X122284718Y-112008260D02*
X122411901Y-112210670D01*
D19*
X114100000Y-105550000D02*
X114054000Y-105504000D01*
X114100000Y-105750000D02*
X114100000Y-105550000D01*
D21*
X114054000Y-105504000D02*
X115352788Y-105504000D01*
X112558000Y-105504000D02*
X114054000Y-105504000D01*
%TO.N,/CK_IN_P*%
X112460000Y-104898000D02*
X112558000Y-104996000D01*
D19*
X114136000Y-104786000D02*
X114100000Y-104750000D01*
X114136000Y-104996000D02*
X114136000Y-104786000D01*
D21*
X112558000Y-104996000D02*
X114136000Y-104996000D01*
X123937000Y-111063531D02*
X123963765Y-110825983D01*
X123921329Y-111618682D02*
X123937000Y-111479607D01*
X124338936Y-110228901D02*
X124541346Y-110101718D01*
X123800644Y-111869288D02*
X123875105Y-111750784D01*
X123701681Y-111968251D02*
X123800644Y-111869288D01*
X123583177Y-112042712D02*
X123701681Y-111968251D01*
X123451075Y-112088936D02*
X123583177Y-112042712D01*
X123937000Y-111479607D02*
X123937000Y-111063531D01*
X123312000Y-112104607D02*
X123451075Y-112088936D01*
X123172924Y-112088936D02*
X123312000Y-112104607D01*
X132496000Y-97994788D02*
X135154788Y-95336000D01*
X122823355Y-111869288D02*
X122922318Y-111968251D01*
X125004531Y-109996000D02*
X130194788Y-109996000D01*
X123875105Y-111750784D02*
X123921329Y-111618682D01*
X130194788Y-109996000D02*
X132496000Y-107694788D01*
X122748894Y-111750784D02*
X122823355Y-111869288D01*
X123040822Y-112042712D02*
X123172924Y-112088936D01*
X122581281Y-110600346D02*
X122660234Y-110825983D01*
X122660234Y-110825983D02*
X122687000Y-111063531D01*
X114136000Y-104996000D02*
X115563212Y-104996000D01*
X120563212Y-109996000D02*
X121619468Y-109996000D01*
X124042718Y-110600346D02*
X124169901Y-110397936D01*
X123963765Y-110825983D02*
X124042718Y-110600346D01*
X124766983Y-110022765D02*
X125004531Y-109996000D01*
X122082653Y-110101718D02*
X122285063Y-110228901D01*
X115563212Y-104996000D02*
X120563212Y-109996000D01*
X121619468Y-109996000D02*
X121857016Y-110022765D01*
X121857016Y-110022765D02*
X122082653Y-110101718D01*
X122285063Y-110228901D02*
X122454098Y-110397936D01*
X122922318Y-111968251D02*
X123040822Y-112042712D01*
X122454098Y-110397936D02*
X122581281Y-110600346D01*
X122702670Y-111618682D02*
X122748894Y-111750784D01*
X135154788Y-95336000D02*
X140225212Y-95336000D01*
X122687000Y-111063531D02*
X122687000Y-111479607D01*
X122687000Y-111479607D02*
X122702670Y-111618682D01*
X124169901Y-110397936D02*
X124338936Y-110228901D01*
X124541346Y-110101718D02*
X124766983Y-110022765D01*
X132496000Y-107694788D02*
X132496000Y-97994788D01*
X140225212Y-95336000D02*
X141475212Y-96586000D01*
X141475212Y-96586000D02*
X142521657Y-96586000D01*
X142521657Y-96586000D02*
X143711794Y-97776137D01*
X143711794Y-97776137D02*
X143711794Y-97781794D01*
%TO.N,/D1_IN_N*%
X145120350Y-96367581D02*
X145126008Y-96367581D01*
X144146000Y-95393231D02*
X145120350Y-96367581D01*
X144146000Y-94355212D02*
X144146000Y-95393231D01*
X143044788Y-93254000D02*
X144146000Y-94355212D01*
X143210589Y-93411128D02*
X143210589Y-93580833D01*
X141133461Y-91334000D02*
X143210589Y-93411128D01*
X128938431Y-91334000D02*
X141133461Y-91334000D01*
X128780345Y-91316189D02*
X128938431Y-91334000D01*
X128630186Y-91263646D02*
X128780345Y-91316189D01*
X128495484Y-91179007D02*
X128630186Y-91263646D01*
X128382993Y-91066516D02*
X128495484Y-91179007D01*
X128298354Y-90931814D02*
X128382993Y-91066516D01*
X128245811Y-90781655D02*
X128298354Y-90931814D01*
X128228000Y-90623569D02*
X128245811Y-90781655D01*
X128228000Y-90326000D02*
X128228000Y-90623569D01*
X128221832Y-90271260D02*
X128228000Y-90326000D01*
X128203638Y-90219265D02*
X128221832Y-90271260D01*
X128174330Y-90172622D02*
X128203638Y-90219265D01*
X128135378Y-90133670D02*
X128174330Y-90172622D01*
X128088735Y-90104362D02*
X128135378Y-90133670D01*
X128036740Y-90086168D02*
X128088735Y-90104362D01*
X127982000Y-90080000D02*
X128036740Y-90086168D01*
X127674000Y-90080000D02*
X127982000Y-90080000D01*
X127619259Y-90086168D02*
X127674000Y-90080000D01*
X127567264Y-90104362D02*
X127619259Y-90086168D01*
X127520621Y-90133670D02*
X127567264Y-90104362D01*
X127481669Y-90172622D02*
X127520621Y-90133670D01*
X127452361Y-90219265D02*
X127481669Y-90172622D01*
X127434167Y-90271260D02*
X127452361Y-90219265D01*
X127428000Y-90326000D02*
X127434167Y-90271260D01*
X127428000Y-91877568D02*
X127428000Y-90326000D01*
X127410188Y-92035654D02*
X127428000Y-91877568D01*
X127357645Y-92185813D02*
X127410188Y-92035654D01*
X127273006Y-92320515D02*
X127357645Y-92185813D01*
X127160515Y-92433006D02*
X127273006Y-92320515D01*
X127025813Y-92517645D02*
X127160515Y-92433006D01*
X126875654Y-92570188D02*
X127025813Y-92517645D01*
X126717568Y-92588000D02*
X126875654Y-92570188D01*
X126322431Y-92588000D02*
X126717568Y-92588000D01*
X126164345Y-92570188D02*
X126322431Y-92588000D01*
X126014186Y-92517645D02*
X126164345Y-92570188D01*
X125879484Y-92433006D02*
X126014186Y-92517645D01*
X125766993Y-92320515D02*
X125879484Y-92433006D01*
X125682354Y-92185813D02*
X125766993Y-92320515D01*
X125629811Y-92035654D02*
X125682354Y-92185813D01*
X125612000Y-91877568D02*
X125629811Y-92035654D01*
X125612000Y-91580000D02*
X125612000Y-91877568D01*
X125605832Y-91525259D02*
X125612000Y-91580000D01*
X125587638Y-91473264D02*
X125605832Y-91525259D01*
X125558330Y-91426621D02*
X125587638Y-91473264D01*
X125519378Y-91387669D02*
X125558330Y-91426621D01*
X125472735Y-91358361D02*
X125519378Y-91387669D01*
X125420740Y-91340167D02*
X125472735Y-91358361D01*
X125366000Y-91334000D02*
X125420740Y-91340167D01*
X124075212Y-91334000D02*
X125366000Y-91334000D01*
X122504000Y-92905212D02*
X124075212Y-91334000D01*
X122504000Y-94733844D02*
X122504000Y-92905212D01*
X122485619Y-94896986D02*
X122504000Y-94733844D01*
X122431395Y-95051948D02*
X122485619Y-94896986D01*
X122344049Y-95190959D02*
X122431395Y-95051948D01*
X122227960Y-95307048D02*
X122344049Y-95190959D01*
X122088949Y-95394394D02*
X122227960Y-95307048D01*
X121933987Y-95448618D02*
X122088949Y-95394394D01*
X121770845Y-95467000D02*
X121933987Y-95448618D01*
X121471881Y-95467000D02*
X121770845Y-95467000D01*
X121411775Y-95473772D02*
X121471881Y-95467000D01*
X121354682Y-95493750D02*
X121411775Y-95473772D01*
X121303466Y-95525931D02*
X121354682Y-95493750D01*
X121260695Y-95568702D02*
X121303466Y-95525931D01*
X121228514Y-95619918D02*
X121260695Y-95568702D01*
X121208536Y-95677011D02*
X121228514Y-95619918D01*
X121201763Y-95737118D02*
X121208536Y-95677011D01*
X121201763Y-96596882D02*
X121201763Y-95737118D01*
X121208536Y-96656988D02*
X121201763Y-96596882D01*
X121228514Y-96714081D02*
X121208536Y-96656988D01*
X121260695Y-96765297D02*
X121228514Y-96714081D01*
X121303466Y-96808068D02*
X121260695Y-96765297D01*
X121354682Y-96840249D02*
X121303466Y-96808068D01*
X121411775Y-96860227D02*
X121354682Y-96840249D01*
X121471881Y-96867000D02*
X121411775Y-96860227D01*
X122250000Y-96867000D02*
X121471881Y-96867000D01*
X122250000Y-96867882D02*
X122250000Y-96867000D01*
X123073081Y-96867882D02*
X122250000Y-96867882D01*
X123236223Y-96886263D02*
X123073081Y-96867882D01*
X123391185Y-96940487D02*
X123236223Y-96886263D01*
X123530196Y-97027833D02*
X123391185Y-96940487D01*
X123646285Y-97143922D02*
X123530196Y-97027833D01*
X123733631Y-97282933D02*
X123646285Y-97143922D01*
X123787855Y-97437895D02*
X123733631Y-97282933D01*
X123806237Y-97601037D02*
X123787855Y-97437895D01*
X123806237Y-98550726D02*
X123806237Y-97601037D01*
X122714011Y-99290654D02*
X122774118Y-99283882D01*
X112563067Y-102602000D02*
X112661067Y-102504000D01*
X120355212Y-102504000D02*
X122504000Y-100355212D01*
X122504000Y-100355212D02*
X122504000Y-99554000D01*
X122504000Y-99554000D02*
X122510772Y-99493893D01*
X122510772Y-99493893D02*
X122530750Y-99436800D01*
X122530750Y-99436800D02*
X122562931Y-99385584D01*
X122562931Y-99385584D02*
X122605702Y-99342813D01*
X122605702Y-99342813D02*
X122656918Y-99310632D01*
X122656918Y-99310632D02*
X122714011Y-99290654D01*
X122774118Y-99283882D02*
X123073081Y-99283882D01*
X123073081Y-99283882D02*
X123236223Y-99265500D01*
X123236223Y-99265500D02*
X123391185Y-99211276D01*
X123391185Y-99211276D02*
X123530196Y-99123930D01*
X123530196Y-99123930D02*
X123646285Y-99007841D01*
X123646285Y-99007841D02*
X123733631Y-98868830D01*
X123733631Y-98868830D02*
X123787855Y-98713868D01*
X123787855Y-98713868D02*
X123806237Y-98550726D01*
D19*
X114100000Y-102560000D02*
X114156000Y-102504000D01*
X114100000Y-102750000D02*
X114100000Y-102560000D01*
D21*
X114156000Y-102504000D02*
X120355212Y-102504000D01*
X112661067Y-102504000D02*
X114156000Y-102504000D01*
%TO.N,/D1_IN_P*%
X144654000Y-94144788D02*
X144654000Y-95182809D01*
X143255212Y-92746000D02*
X144654000Y-94144788D01*
X144654000Y-95182809D02*
X145479561Y-96008370D01*
X145479561Y-96008370D02*
X145479561Y-96014027D01*
X125717813Y-90896354D02*
X125852515Y-90980993D01*
X125567654Y-90843811D02*
X125717813Y-90896354D01*
X125409568Y-90826000D02*
X125567654Y-90843811D01*
X123864788Y-90826000D02*
X125409568Y-90826000D01*
X121996000Y-92694788D02*
X123864788Y-90826000D01*
X121996000Y-94688882D02*
X121996000Y-92694788D01*
X121989228Y-94748988D02*
X121996000Y-94688882D01*
X121969250Y-94806081D02*
X121989228Y-94748988D01*
X121937069Y-94857297D02*
X121969250Y-94806081D01*
X121894298Y-94900068D02*
X121937069Y-94857297D01*
X121843082Y-94932249D02*
X121894298Y-94900068D01*
X121785989Y-94952227D02*
X121843082Y-94932249D01*
X121725882Y-94959000D02*
X121785989Y-94952227D01*
X121426919Y-94959000D02*
X121725882Y-94959000D01*
X121263777Y-94977381D02*
X121426919Y-94959000D01*
X121108815Y-95031605D02*
X121263777Y-94977381D01*
X120969804Y-95118951D02*
X121108815Y-95031605D01*
X120853715Y-95235040D02*
X120969804Y-95118951D01*
X120766369Y-95374051D02*
X120853715Y-95235040D01*
X120712145Y-95529013D02*
X120766369Y-95374051D01*
X120693763Y-95692155D02*
X120712145Y-95529013D01*
X120693763Y-96641844D02*
X120693763Y-95692155D01*
X120712145Y-96804986D02*
X120693763Y-96641844D01*
X120766369Y-96959948D02*
X120712145Y-96804986D01*
X120853715Y-97098959D02*
X120766369Y-96959948D01*
X120969804Y-97215048D02*
X120853715Y-97098959D01*
X121263777Y-97356618D02*
X121108815Y-97302394D01*
X121108815Y-97302394D02*
X120969804Y-97215048D01*
X122250000Y-97375000D02*
X121426919Y-97375000D01*
X122272040Y-98935833D02*
X122411051Y-98848487D01*
X112563067Y-101898000D02*
X112661067Y-101996000D01*
X122155951Y-99051922D02*
X122272040Y-98935833D01*
X123028119Y-97375882D02*
X122250000Y-97375882D01*
X122411051Y-98848487D02*
X122566013Y-98794263D01*
X122068605Y-99190933D02*
X122155951Y-99051922D01*
X122014381Y-99345895D02*
X122068605Y-99190933D01*
X123196534Y-97434813D02*
X123145318Y-97402632D01*
X121996000Y-100144788D02*
X121996000Y-99509037D01*
X122729155Y-98775882D02*
X123028119Y-98775882D01*
X121996000Y-99509037D02*
X122014381Y-99345895D01*
X120144788Y-101996000D02*
X121996000Y-100144788D01*
X122566013Y-98794263D02*
X122729155Y-98775882D01*
X123145318Y-97402632D02*
X123088225Y-97382654D01*
X123028119Y-98775882D02*
X123088225Y-98769109D01*
X123088225Y-98769109D02*
X123145318Y-98749131D01*
X123145318Y-98749131D02*
X123196534Y-98716950D01*
X121426919Y-97375000D02*
X121263777Y-97356618D01*
X123239305Y-98674179D02*
X123271486Y-98622963D01*
X123196534Y-98716950D02*
X123239305Y-98674179D01*
X123271486Y-98622963D02*
X123291464Y-98565870D01*
X123291464Y-98565870D02*
X123298237Y-98505764D01*
X123298237Y-98505764D02*
X123298237Y-97646000D01*
X123291464Y-97585893D02*
X123271486Y-97528800D01*
X123298237Y-97646000D02*
X123291464Y-97585893D01*
X123271486Y-97528800D02*
X123239305Y-97477584D01*
X123239305Y-97477584D02*
X123196534Y-97434813D01*
X123088225Y-97382654D02*
X123028119Y-97375882D01*
X122250000Y-97375882D02*
X122250000Y-97375000D01*
X125852515Y-90980993D02*
X125965006Y-91093484D01*
X125965006Y-91093484D02*
X126049645Y-91228186D01*
X126049645Y-91228186D02*
X126102188Y-91378345D01*
X126102188Y-91378345D02*
X126120000Y-91536431D01*
X126120000Y-91536431D02*
X126120000Y-91834000D01*
X126120000Y-91834000D02*
X126126167Y-91888740D01*
X126126167Y-91888740D02*
X126144361Y-91940735D01*
X126144361Y-91940735D02*
X126173669Y-91987378D01*
X126173669Y-91987378D02*
X126212621Y-92026330D01*
X126212621Y-92026330D02*
X126259264Y-92055638D01*
X126259264Y-92055638D02*
X126311259Y-92073832D01*
X126311259Y-92073832D02*
X126366000Y-92080000D01*
X126366000Y-92080000D02*
X126674000Y-92080000D01*
X126674000Y-92080000D02*
X126728740Y-92073832D01*
X126728740Y-92073832D02*
X126780735Y-92055638D01*
X126780735Y-92055638D02*
X126827378Y-92026330D01*
X126827378Y-92026330D02*
X126866330Y-91987378D01*
X126866330Y-91987378D02*
X126895638Y-91940735D01*
X126895638Y-91940735D02*
X126913832Y-91888740D01*
X126913832Y-91888740D02*
X126920000Y-91834000D01*
X126920000Y-91834000D02*
X126920000Y-90282432D01*
X126920000Y-90282432D02*
X126937811Y-90124346D01*
X126937811Y-90124346D02*
X126990354Y-89974187D01*
X126990354Y-89974187D02*
X127074993Y-89839485D01*
X127074993Y-89839485D02*
X127187484Y-89726994D01*
X127187484Y-89726994D02*
X127322186Y-89642355D01*
X127322186Y-89642355D02*
X127472345Y-89589812D01*
X127472345Y-89589812D02*
X127630431Y-89572000D01*
X127630431Y-89572000D02*
X128025568Y-89572000D01*
X128025568Y-89572000D02*
X128183654Y-89589812D01*
X128183654Y-89589812D02*
X128333813Y-89642355D01*
X128333813Y-89642355D02*
X128468515Y-89726994D01*
X128468515Y-89726994D02*
X128581006Y-89839485D01*
X128581006Y-89839485D02*
X128665645Y-89974187D01*
X128665645Y-89974187D02*
X128718188Y-90124346D01*
X128718188Y-90124346D02*
X128736000Y-90282432D01*
X128736000Y-90282432D02*
X128736000Y-90580000D01*
X128736000Y-90580000D02*
X128742167Y-90634741D01*
X128742167Y-90634741D02*
X128760361Y-90686736D01*
X128760361Y-90686736D02*
X128789669Y-90733379D01*
X128789669Y-90733379D02*
X128828621Y-90772331D01*
X128828621Y-90772331D02*
X128875264Y-90801639D01*
X128875264Y-90801639D02*
X128927259Y-90819833D01*
X128927259Y-90819833D02*
X128982000Y-90826000D01*
X128982000Y-90826000D02*
X141343883Y-90826000D01*
X141343883Y-90826000D02*
X143569800Y-93051917D01*
X143569800Y-93051917D02*
X143714049Y-93051917D01*
D19*
X114100000Y-101950000D02*
X114054000Y-101996000D01*
X114100000Y-101750000D02*
X114100000Y-101950000D01*
D21*
X114054000Y-101996000D02*
X120144788Y-101996000D01*
X112661067Y-101996000D02*
X114054000Y-101996000D01*
D19*
%TO.N,/HPD_IN*%
X136409615Y-112408785D02*
X139903200Y-108915200D01*
X139903200Y-108915200D02*
X140292747Y-108915200D01*
X120037600Y-116992400D02*
X130970427Y-116992400D01*
X135139615Y-112823212D02*
X135929185Y-112823212D01*
X116833600Y-113788400D02*
X120037600Y-116992400D01*
X130970427Y-116992400D02*
X135139615Y-112823212D01*
X135929185Y-112823212D02*
X136343612Y-112408785D01*
X136343612Y-112408785D02*
X136409615Y-112408785D01*
X140292747Y-108915200D02*
X140642897Y-108565050D01*
X140642897Y-108565050D02*
X141643630Y-108565050D01*
X141643630Y-108565050D02*
X142651134Y-107557546D01*
%TO.N,/SCL_IN*%
X116427200Y-110748530D02*
X121299460Y-115620790D01*
X116427200Y-108657600D02*
X116427200Y-110748530D01*
X128450540Y-115620790D02*
X132791200Y-111280130D01*
X121299460Y-115620790D02*
X128450540Y-115620790D01*
X132791200Y-111280130D02*
X133978802Y-111280130D01*
X133978802Y-111280130D02*
X140176260Y-105082672D01*
%TO.N,/CEC_IN*%
X129823860Y-116586010D02*
X120585479Y-116586009D01*
X133891469Y-112518401D02*
X129823860Y-116586010D01*
X134114131Y-112518401D02*
X133891469Y-112518401D01*
X120585479Y-116586009D02*
X114715025Y-110715555D01*
X135021333Y-111611199D02*
X134114131Y-112518401D01*
X114715025Y-110715555D02*
X114715025Y-107684860D01*
X136598399Y-110675071D02*
X136641535Y-110631935D01*
X135842799Y-111611199D02*
X135842799Y-111604001D01*
X135842799Y-111611199D02*
X135021333Y-111611199D01*
X136499600Y-110773870D02*
X136641535Y-110631935D01*
X136499600Y-111212130D02*
X136499600Y-110773870D01*
X136100531Y-111611199D02*
X136499600Y-111212130D01*
X135842799Y-111611199D02*
X136100531Y-111611199D01*
X136641535Y-110631935D02*
X141130138Y-106143332D01*
X141130138Y-106143332D02*
X141236921Y-106143332D01*
D21*
%TO.N,/D0_IN_N*%
X143222555Y-95884000D02*
X144413243Y-97074688D01*
X127428981Y-97853931D02*
X127485008Y-97693815D01*
X127338729Y-97997566D02*
X127428981Y-97853931D01*
X127218779Y-98117516D02*
X127338729Y-97997566D01*
X126915028Y-98263795D02*
X127075144Y-98207768D01*
X126746458Y-98282789D02*
X126915028Y-98263795D01*
X126445999Y-98282789D02*
X126746458Y-98282789D01*
X126380134Y-98290210D02*
X126445999Y-98282789D01*
X126317570Y-98312102D02*
X126380134Y-98290210D01*
X126261447Y-98347366D02*
X126317570Y-98312102D01*
X126157422Y-98512922D02*
X126179314Y-98450358D01*
X126150000Y-98578788D02*
X126157422Y-98512922D01*
X126150000Y-99036788D02*
X126150000Y-98578788D01*
X126157422Y-99102653D02*
X126150000Y-99036788D01*
X126179314Y-99165217D02*
X126157422Y-99102653D01*
X126214578Y-99221340D02*
X126179314Y-99165217D01*
X126261447Y-99268209D02*
X126214578Y-99221340D01*
X126380134Y-99325365D02*
X126317570Y-99303473D01*
X128100458Y-99332787D02*
X126445999Y-99332787D01*
X127671570Y-101428102D02*
X127734134Y-101406210D01*
X126214578Y-98394235D02*
X126261447Y-98347366D01*
X127615447Y-101463366D02*
X127671570Y-101428102D01*
X127568578Y-101510235D02*
X127615447Y-101463366D01*
X127533314Y-101566358D02*
X127568578Y-101510235D01*
X127511422Y-101628922D02*
X127533314Y-101566358D01*
X127504001Y-101694788D02*
X127511422Y-101628922D01*
X127504000Y-101905212D02*
X127504001Y-101694788D01*
X124335212Y-105074000D02*
X127504000Y-101905212D01*
X140964788Y-93754000D02*
X143094788Y-95884000D01*
X128858002Y-100641245D02*
X128858002Y-100090330D01*
X121567613Y-105087789D02*
X121690000Y-105074000D01*
X127504001Y-97525245D02*
X127504000Y-95955212D01*
X128692729Y-101113566D02*
X128782981Y-100969931D01*
X128839008Y-99921760D02*
X128782981Y-99761644D01*
X128429144Y-101323768D02*
X128572779Y-101233516D01*
X116724788Y-104004000D02*
X117794788Y-105074000D01*
X115170000Y-104102000D02*
X115268000Y-104004000D01*
X117794788Y-105074000D02*
X118474000Y-105074000D01*
X121259992Y-105281080D02*
X121347080Y-105193992D01*
X127075144Y-98207768D02*
X127218779Y-98117516D01*
X128269028Y-99351780D02*
X128100458Y-99332787D01*
X128782981Y-99761644D02*
X128692729Y-99618009D01*
X127800000Y-101398789D02*
X128100458Y-101398789D01*
X128269028Y-101379795D02*
X128429144Y-101323768D01*
X121140000Y-105624000D02*
X121153789Y-105501613D01*
X128692729Y-99618009D02*
X128572779Y-99498059D01*
X128782981Y-100969931D02*
X128839008Y-100809815D01*
X119048993Y-106180557D02*
X119122720Y-106391257D01*
X126317570Y-99303473D02*
X126261447Y-99268209D01*
X120020865Y-106955599D02*
X120143134Y-106955599D01*
X119588341Y-106856878D02*
X119799041Y-106930605D01*
X127485008Y-97693815D02*
X127504001Y-97525245D01*
X128858002Y-100090330D02*
X128839008Y-99921760D01*
X143094788Y-95884000D02*
X143222555Y-95884000D01*
X126179314Y-98450358D02*
X126214578Y-98394235D01*
X121140000Y-105958733D02*
X121140000Y-105624000D01*
X118816919Y-105193992D02*
X118904007Y-105281080D01*
X126445999Y-99332787D02*
X126380134Y-99325365D01*
X119799041Y-106930605D02*
X120020865Y-106955599D01*
X129705212Y-93754000D02*
X140964788Y-93754000D01*
X119241484Y-106580269D02*
X119399329Y-106738114D01*
X127504000Y-95955212D02*
X129705212Y-93754000D01*
X121690000Y-105074000D02*
X124335212Y-105074000D01*
X127734134Y-101406210D02*
X127800000Y-101398789D01*
X128100458Y-101398789D02*
X128269028Y-101379795D01*
X128839008Y-100809815D02*
X128858002Y-100641245D01*
X128429144Y-99407807D02*
X128269028Y-99351780D01*
X128572779Y-101233516D02*
X128692729Y-101113566D01*
X128572779Y-99498059D02*
X128429144Y-99407807D01*
X144413243Y-97074688D02*
X144418901Y-97074688D01*
X119024000Y-105624000D02*
X119024000Y-105958733D01*
X115268000Y-104004000D02*
X116724788Y-104004000D01*
X118474000Y-105074000D02*
X118596386Y-105087789D01*
X118596386Y-105087789D02*
X118712636Y-105128467D01*
X118712636Y-105128467D02*
X118816919Y-105193992D01*
X118904007Y-105281080D02*
X118969532Y-105385363D01*
X118969532Y-105385363D02*
X119010210Y-105501613D01*
X119010210Y-105501613D02*
X119024000Y-105624000D01*
X119024000Y-105958733D02*
X119048993Y-106180557D01*
X119122720Y-106391257D02*
X119241484Y-106580269D01*
X119399329Y-106738114D02*
X119588341Y-106856878D01*
X120143134Y-106955599D02*
X120364958Y-106930605D01*
X120364958Y-106930605D02*
X120575658Y-106856878D01*
X120575658Y-106856878D02*
X120764670Y-106738114D01*
X120764670Y-106738114D02*
X120922515Y-106580269D01*
X120922515Y-106580269D02*
X121041279Y-106391257D01*
X121041279Y-106391257D02*
X121115006Y-106180557D01*
X121115006Y-106180557D02*
X121140000Y-105958733D01*
X121153789Y-105501613D02*
X121194467Y-105385363D01*
X121194467Y-105385363D02*
X121259992Y-105281080D01*
X121347080Y-105193992D02*
X121451363Y-105128467D01*
X121451363Y-105128467D02*
X121567613Y-105087789D01*
%TO.N,/D0_IN_P*%
X128238553Y-99905366D02*
X128182430Y-99870102D01*
X128285422Y-99952235D02*
X128238553Y-99905366D01*
X128320686Y-100008358D02*
X128285422Y-99952235D01*
X128342578Y-100070922D02*
X128320686Y-100008358D01*
X128350000Y-100136788D02*
X128342578Y-100070922D01*
X128350000Y-100594788D02*
X128350000Y-100136788D01*
X128342578Y-100660653D02*
X128350000Y-100594788D01*
X128285422Y-100779340D02*
X128320686Y-100723217D01*
X128119866Y-100883365D02*
X128182430Y-100861473D01*
X127753542Y-100890787D02*
X128054001Y-100890787D01*
X127584972Y-100909780D02*
X127753542Y-100890787D01*
X127071019Y-101319644D02*
X127161271Y-101176009D01*
X126995999Y-101694788D02*
X126995999Y-101648330D01*
X124124788Y-104566000D02*
X126995999Y-101694788D01*
X121196341Y-104664720D02*
X121407041Y-104590993D01*
X121007329Y-104783484D02*
X121196341Y-104664720D01*
X120849484Y-104941329D02*
X121007329Y-104783484D01*
X119532000Y-105562865D02*
X119532000Y-105897599D01*
X119433279Y-105130341D02*
X119507006Y-105341041D01*
X119314515Y-104941329D02*
X119433279Y-105130341D01*
X119156670Y-104783484D02*
X119314515Y-104941329D01*
X118756958Y-104590993D02*
X118967658Y-104664720D01*
X118535134Y-104566000D02*
X118756958Y-104590993D01*
X119507006Y-105341041D02*
X119532000Y-105562865D01*
X121407041Y-104590993D02*
X121628865Y-104566000D01*
X128182430Y-100861473D02*
X128238553Y-100826209D01*
X118005212Y-104566000D02*
X118535134Y-104566000D01*
X125927221Y-97940059D02*
X126070856Y-97849807D01*
X120632000Y-105562865D02*
X120656993Y-105341041D01*
X127424856Y-100965807D02*
X127584972Y-100909780D01*
X116935212Y-103496000D02*
X118005212Y-104566000D01*
X125660992Y-99251815D02*
X125641998Y-99083245D01*
X119532000Y-105897599D02*
X119545789Y-106019985D01*
X120656993Y-105341041D02*
X120730720Y-105130341D01*
X115268000Y-103496000D02*
X116935212Y-103496000D01*
X128238553Y-100826209D02*
X128285422Y-100779340D01*
X118967658Y-104664720D02*
X119156670Y-104783484D01*
X119545789Y-106019985D02*
X119586467Y-106136235D01*
X128182430Y-99870102D02*
X128119866Y-99848210D01*
X120082000Y-106447599D02*
X120204386Y-106433809D01*
X119651992Y-106240518D02*
X119739080Y-106327606D01*
X120424919Y-106327606D02*
X120512007Y-106240518D01*
X120577532Y-106136235D02*
X120618210Y-106019985D01*
X129494788Y-93246000D02*
X141175212Y-93246000D01*
X121628865Y-104566000D02*
X124124788Y-104566000D01*
X119739080Y-106327606D02*
X119843363Y-106393131D01*
X126995999Y-101648330D02*
X127014992Y-101479760D01*
X119843363Y-106393131D02*
X119959613Y-106433809D01*
X128054001Y-100890787D02*
X128119866Y-100883365D01*
X127014992Y-101479760D02*
X127071019Y-101319644D01*
X115170000Y-103398000D02*
X115268000Y-103496000D01*
X119959613Y-106433809D02*
X120082000Y-106447599D01*
X127161271Y-101176009D02*
X127281221Y-101056059D01*
X120204386Y-106433809D02*
X120320636Y-106393131D01*
X128320686Y-100723217D02*
X128342578Y-100660653D01*
X120618210Y-106019985D02*
X120632000Y-105897599D01*
X127281221Y-101056059D02*
X127424856Y-100965807D01*
X120320636Y-106393131D02*
X120424919Y-106327606D01*
X120512007Y-106240518D02*
X120577532Y-106136235D01*
X120730720Y-105130341D02*
X120849484Y-104941329D01*
X120632000Y-105897599D02*
X120632000Y-105562865D01*
X128119866Y-99848210D02*
X128054001Y-99840789D01*
X128054001Y-99840789D02*
X126399542Y-99840789D01*
X126399542Y-99840789D02*
X126230972Y-99821795D01*
X126230972Y-99821795D02*
X126070856Y-99765768D01*
X126070856Y-99765768D02*
X125927221Y-99675516D01*
X125927221Y-99675516D02*
X125807271Y-99555566D01*
X125807271Y-99555566D02*
X125717019Y-99411931D01*
X125717019Y-99411931D02*
X125660992Y-99251815D01*
X125641998Y-99083245D02*
X125641998Y-98532330D01*
X125641998Y-98532330D02*
X125660992Y-98363760D01*
X119586467Y-106136235D02*
X119651992Y-106240518D01*
X125660992Y-98363760D02*
X125717019Y-98203644D01*
X125717019Y-98203644D02*
X125807271Y-98060009D01*
X125807271Y-98060009D02*
X125927221Y-97940059D01*
X126070856Y-97849807D02*
X126230972Y-97793780D01*
X126230972Y-97793780D02*
X126399542Y-97774787D01*
X126399542Y-97774787D02*
X126700000Y-97774787D01*
X126700000Y-97774787D02*
X126765866Y-97767365D01*
X126765866Y-97767365D02*
X126828430Y-97745473D01*
X126828430Y-97745473D02*
X126884553Y-97710209D01*
X126884553Y-97710209D02*
X126931422Y-97663340D01*
X126931422Y-97663340D02*
X126966686Y-97607217D01*
X126966686Y-97607217D02*
X126988578Y-97544653D01*
X126988578Y-97544653D02*
X126995999Y-97478788D01*
X126995999Y-97478788D02*
X126996000Y-95744788D01*
X126996000Y-95744788D02*
X129494788Y-93246000D01*
X141175212Y-93246000D02*
X143305212Y-95376000D01*
X143305212Y-95376000D02*
X143432977Y-95376000D01*
X143432977Y-95376000D02*
X144772454Y-96715477D01*
X144772454Y-96715477D02*
X144772454Y-96721134D01*
%TO.N,/D2_IN_N*%
X118765212Y-88344000D02*
X141339411Y-88344000D01*
X141339411Y-88344000D02*
X147241671Y-94246260D01*
X116305212Y-101004000D02*
X117494000Y-99815212D01*
X147241671Y-94246260D02*
X147247328Y-94246260D01*
X115248000Y-101004000D02*
X116305212Y-101004000D01*
X117494000Y-99815212D02*
X117494000Y-89615212D01*
X115150000Y-101102000D02*
X115248000Y-101004000D01*
X117494000Y-89615212D02*
X118765212Y-88344000D01*
%TO.N,/D2_IN_P*%
X115150000Y-100398000D02*
X115248000Y-100496000D01*
X115248000Y-100496000D02*
X116094788Y-100496000D01*
X141549833Y-87836000D02*
X147600882Y-93887049D01*
X116094788Y-100496000D02*
X116986000Y-99604788D01*
X116986000Y-99604788D02*
X116986000Y-89404788D01*
X116986000Y-89404788D02*
X118554788Y-87836000D01*
X118554788Y-87836000D02*
X141549833Y-87836000D01*
X147600882Y-93887049D02*
X147600882Y-93892707D01*
D19*
%TO.N,/SDA_OUT*%
X159022834Y-95435296D02*
X155615676Y-98842454D01*
X155615676Y-98842454D02*
X155608866Y-98842454D01*
X159022834Y-95322434D02*
X159022834Y-95435296D01*
%TO.N,/UTIL_OUT*%
X157930800Y-98641841D02*
X156669526Y-99903115D01*
X157930800Y-97558534D02*
X157930800Y-98641841D01*
X160622078Y-94867256D02*
X157930800Y-97558534D01*
X161541693Y-94867256D02*
X160622078Y-94867256D01*
D21*
%TO.N,/CK_OUT_N*%
X158442951Y-104729118D02*
X158437293Y-104729118D01*
X159159833Y-105446000D02*
X158442951Y-104729118D01*
X160994788Y-105446000D02*
X159159833Y-105446000D01*
X161996000Y-104444788D02*
X160994788Y-105446000D01*
X161996000Y-99694788D02*
X161996000Y-104444788D01*
X163394788Y-98296000D02*
X161996000Y-99694788D01*
X165833312Y-98296000D02*
X163394788Y-98296000D01*
X165998721Y-98277362D02*
X165833312Y-98296000D01*
X166155836Y-98222385D02*
X165998721Y-98277362D01*
X166296779Y-98133825D02*
X166155836Y-98222385D01*
X166414481Y-98016123D02*
X166296779Y-98133825D01*
X166503041Y-97875180D02*
X166414481Y-98016123D01*
X166558018Y-97718065D02*
X166503041Y-97875180D01*
X166576656Y-97552656D02*
X166558018Y-97718065D01*
X166576656Y-97226348D02*
X166576656Y-97552656D01*
X166606216Y-96963987D02*
X166576656Y-97226348D01*
X166693417Y-96714783D02*
X166606216Y-96963987D01*
X166833884Y-96491230D02*
X166693417Y-96714783D01*
X167020575Y-96304539D02*
X166833884Y-96491230D01*
X167244128Y-96164072D02*
X167020575Y-96304539D01*
X167493332Y-96076871D02*
X167244128Y-96164072D01*
X167755693Y-96047311D02*
X167493332Y-96076871D01*
X167913618Y-96047311D02*
X167755693Y-96047311D01*
X168175979Y-96076871D02*
X167913618Y-96047311D01*
X168425183Y-96164072D02*
X168175979Y-96076871D01*
X168648736Y-96304539D02*
X168425183Y-96164072D01*
X168835427Y-96491230D02*
X168648736Y-96304539D01*
X168975894Y-96714783D02*
X168835427Y-96491230D01*
X169063095Y-96963987D02*
X168975894Y-96714783D01*
X169092656Y-97226348D02*
X169063095Y-96963987D01*
X169111293Y-97718065D02*
X169092656Y-97552656D01*
X170155212Y-98296000D02*
X169836000Y-98296000D01*
X169166270Y-97875180D02*
X169111293Y-97718065D01*
X169513475Y-98222385D02*
X169372532Y-98133825D01*
X169836000Y-98296000D02*
X169670590Y-98277362D01*
X169092656Y-97552656D02*
X169092656Y-97226348D01*
X176470000Y-104098000D02*
X176372000Y-104196000D01*
X174305212Y-104196000D02*
X172604000Y-102494788D01*
X172604000Y-102494788D02*
X172604000Y-100744788D01*
X172604000Y-100744788D02*
X170155212Y-98296000D01*
X169670590Y-98277362D02*
X169513475Y-98222385D01*
X169372532Y-98133825D02*
X169254830Y-98016123D01*
X169254830Y-98016123D02*
X169166270Y-97875180D01*
D19*
X175000000Y-104090000D02*
X174894000Y-104196000D01*
X175000000Y-103950000D02*
X175000000Y-104090000D01*
D21*
X174894000Y-104196000D02*
X174305212Y-104196000D01*
X176372000Y-104196000D02*
X174894000Y-104196000D01*
%TO.N,/CK_OUT_P*%
X167364532Y-96717485D02*
X167246830Y-96835187D01*
X167505475Y-96628925D02*
X167364532Y-96717485D01*
X167103293Y-97133245D02*
X167084656Y-97298655D01*
X167841312Y-96555311D02*
X167828000Y-96555311D01*
X167246830Y-96835187D02*
X167158270Y-96976130D01*
X168006721Y-96573948D02*
X167841312Y-96555311D01*
X168163836Y-96628925D02*
X168006721Y-96573948D01*
X168304779Y-96717485D02*
X168163836Y-96628925D01*
X168422481Y-96835187D02*
X168304779Y-96717485D01*
X168511041Y-96976130D02*
X168422481Y-96835187D01*
X168566018Y-97133245D02*
X168511041Y-96976130D01*
X168584656Y-97298655D02*
X168566018Y-97133245D01*
X168584656Y-97624962D02*
X168584656Y-97298655D01*
X176470000Y-104802000D02*
X176372000Y-104704000D01*
X174094788Y-104704000D02*
X172096000Y-102705212D01*
X167662590Y-96573948D02*
X167505475Y-96628925D01*
X172096000Y-102705212D02*
X172096000Y-100955212D01*
X167158270Y-96976130D02*
X167103293Y-97133245D01*
X172096000Y-100955212D02*
X169944788Y-98804000D01*
X169944788Y-98804000D02*
X169763693Y-98804000D01*
X168614216Y-97887323D02*
X168584656Y-97624962D01*
X169763693Y-98804000D02*
X169501332Y-98774439D01*
X161205212Y-105954000D02*
X158949411Y-105954000D01*
X167828000Y-96555311D02*
X167662590Y-96573948D01*
X169501332Y-98774439D02*
X169252128Y-98687238D01*
X169252128Y-98687238D02*
X169028575Y-98546771D01*
X169028575Y-98546771D02*
X168841884Y-98360080D01*
X168841884Y-98360080D02*
X168701417Y-98136527D01*
X162504000Y-104655212D02*
X161205212Y-105954000D01*
X168701417Y-98136527D02*
X168614216Y-97887323D01*
X167084656Y-97298655D02*
X167084656Y-97624962D01*
X167084656Y-97624962D02*
X167055095Y-97887323D01*
X167055095Y-97887323D02*
X166967894Y-98136527D01*
X166967894Y-98136527D02*
X166827427Y-98360080D01*
X166827427Y-98360080D02*
X166640736Y-98546771D01*
X166640736Y-98546771D02*
X166417183Y-98687238D01*
X166417183Y-98687238D02*
X166167979Y-98774439D01*
X166167979Y-98774439D02*
X165905618Y-98804000D01*
X165905618Y-98804000D02*
X163605212Y-98804000D01*
X163605212Y-98804000D02*
X162504000Y-99905212D01*
X162504000Y-99905212D02*
X162504000Y-104655212D01*
X158949411Y-105954000D02*
X158083740Y-105088329D01*
X158083740Y-105088329D02*
X158083740Y-105082672D01*
D19*
X175000000Y-104950000D02*
X175000000Y-104770000D01*
D21*
X174934000Y-104704000D02*
X174094788Y-104704000D01*
D19*
X175000000Y-104770000D02*
X174934000Y-104704000D01*
D21*
X176372000Y-104704000D02*
X174934000Y-104704000D01*
%TO.N,/D1_OUT_N*%
X176444237Y-107196000D02*
X176542237Y-107098000D01*
X166643907Y-108266881D02*
X167714788Y-107196000D01*
X166471318Y-108439473D02*
X166643907Y-108266881D01*
X166394133Y-108501026D02*
X166471318Y-108439473D01*
X166305186Y-108543861D02*
X166394133Y-108501026D01*
X166208938Y-108565829D02*
X166305186Y-108543861D01*
X166110214Y-108565829D02*
X166208938Y-108565829D01*
X166013966Y-108543861D02*
X166110214Y-108565829D01*
X165925019Y-108501026D02*
X166013966Y-108543861D01*
X165847834Y-108439473D02*
X165925019Y-108501026D01*
X165629457Y-108221096D02*
X165847834Y-108439473D01*
X165472933Y-108096272D02*
X165629457Y-108221096D01*
X165292558Y-108009406D02*
X165472933Y-108096272D01*
X165097375Y-107964857D02*
X165292558Y-108009406D01*
X164897173Y-107964857D02*
X165097375Y-107964857D01*
X164701990Y-108009406D02*
X164897173Y-107964857D01*
X164521613Y-108096272D02*
X164701990Y-108009406D01*
X164365089Y-108221096D02*
X164521613Y-108096272D01*
X164239284Y-108346900D02*
X164365089Y-108221096D01*
X164114460Y-108503424D02*
X164239284Y-108346900D01*
X164027596Y-108683800D02*
X164114460Y-108503424D01*
X163983047Y-108878983D02*
X164027596Y-108683800D01*
X163983047Y-109079185D02*
X163983047Y-108878983D01*
X164027596Y-109274368D02*
X163983047Y-109079185D01*
X164114460Y-109454744D02*
X164027596Y-109274368D01*
X164239284Y-109611268D02*
X164114460Y-109454744D01*
X164457662Y-109829643D02*
X164239284Y-109611268D01*
X164949010Y-110320991D02*
X164457662Y-109829643D01*
X164927701Y-110342294D02*
X164949010Y-110320991D01*
X165598656Y-111013249D02*
X164927701Y-110342294D01*
X165660209Y-111090435D02*
X165598656Y-111013249D01*
X165703044Y-111179382D02*
X165660209Y-111090435D01*
X165725012Y-111374353D02*
X165725012Y-111275630D01*
X165703044Y-111470602D02*
X165725012Y-111374353D01*
X165660209Y-111559549D02*
X165703044Y-111470602D01*
X165598656Y-111636734D02*
X165660209Y-111559549D01*
X165550391Y-111685000D02*
X165598656Y-111636734D01*
X165473206Y-111746553D02*
X165550391Y-111685000D01*
X165384259Y-111789388D02*
X165473206Y-111746553D01*
X165288011Y-111811356D02*
X165384259Y-111789388D01*
X165189287Y-111811356D02*
X165288011Y-111811356D01*
X165093039Y-111789388D02*
X165189287Y-111811356D01*
X165004092Y-111746553D02*
X165093039Y-111789388D01*
X164926907Y-111685000D02*
X165004092Y-111746553D01*
X164708531Y-111466624D02*
X164926907Y-111685000D01*
X164552007Y-111341800D02*
X164708531Y-111466624D01*
X164371631Y-111254935D02*
X164552007Y-111341800D01*
X164176449Y-111210386D02*
X164371631Y-111254935D01*
X163976246Y-111210386D02*
X164176449Y-111210386D01*
X163781064Y-111254935D02*
X163976246Y-111210386D01*
X163600688Y-111341800D02*
X163781064Y-111254935D01*
X163444164Y-111466624D02*
X163600688Y-111341800D01*
X162814788Y-112096000D02*
X163444164Y-111466624D01*
X157324551Y-112096000D02*
X162814788Y-112096000D01*
X154200310Y-108971759D02*
X157324551Y-112096000D01*
X154194652Y-108971759D02*
X154200310Y-108971759D01*
X165725012Y-111275630D02*
X165703044Y-111179382D01*
D19*
X175000000Y-107182000D02*
X175014000Y-107196000D01*
X175000000Y-106950000D02*
X175000000Y-107182000D01*
D21*
X175014000Y-107196000D02*
X176444237Y-107196000D01*
X167714788Y-107196000D02*
X175014000Y-107196000D01*
%TO.N,/D1_OUT_P*%
X165286914Y-109983082D02*
X165308219Y-109961782D01*
X153841099Y-109330970D02*
X157114129Y-112604000D01*
X165996639Y-110692807D02*
X165286914Y-109983082D01*
X166121463Y-111800651D02*
X166208328Y-111620275D01*
X165996639Y-111957175D02*
X166121463Y-111800651D01*
X176444237Y-107704000D02*
X176542237Y-107802000D01*
X165870834Y-112082981D02*
X165996639Y-111957175D01*
X166252877Y-111224890D02*
X166208328Y-111029707D01*
X165714309Y-112207805D02*
X165870834Y-112082981D01*
X165533934Y-112294669D02*
X165714309Y-112207805D01*
X166121463Y-110849331D02*
X165996639Y-110692807D01*
X163841791Y-111803052D02*
X163930737Y-111760218D01*
X166208328Y-111620275D02*
X166252877Y-111425092D01*
X164943366Y-112294669D02*
X165138549Y-112339219D01*
X166208328Y-111029707D02*
X166121463Y-110849331D01*
X165138549Y-112339219D02*
X165338751Y-112339219D01*
X164762990Y-112207805D02*
X164943366Y-112294669D01*
X153841099Y-109325312D02*
X153841099Y-109330970D01*
X166252877Y-111425092D02*
X166252877Y-111224890D01*
X164310904Y-111803052D02*
X164388090Y-111864605D01*
X157114129Y-112604000D02*
X163025212Y-112604000D01*
X163025212Y-112604000D02*
X163764605Y-111864605D01*
X163764605Y-111864605D02*
X163841791Y-111803052D01*
X164606466Y-112082981D02*
X164762990Y-112207805D01*
X165338751Y-112339219D02*
X165533934Y-112294669D01*
X165683918Y-108962278D02*
X165864294Y-109049142D01*
X164221958Y-111760218D02*
X164310904Y-111803052D01*
X163930737Y-111760218D02*
X164026986Y-111738250D01*
X164026986Y-111738250D02*
X164125709Y-111738250D01*
X164125709Y-111738250D02*
X164221958Y-111760218D01*
X164388090Y-111864605D02*
X164606466Y-112082981D01*
X165308219Y-109961782D02*
X164816871Y-109470434D01*
X164816871Y-109470434D02*
X164637266Y-109290826D01*
X164637266Y-109290826D02*
X164575713Y-109213641D01*
X164575713Y-109213641D02*
X164532878Y-109124694D01*
X164532878Y-109124694D02*
X164510910Y-109028446D01*
X164510910Y-109028446D02*
X164510910Y-108929722D01*
X164510910Y-108929722D02*
X164532878Y-108833474D01*
X164532878Y-108833474D02*
X164575713Y-108744527D01*
X164575713Y-108744527D02*
X164637266Y-108667342D01*
X164637266Y-108667342D02*
X164685531Y-108619078D01*
X164685531Y-108619078D02*
X164762716Y-108557525D01*
X164762716Y-108557525D02*
X164851663Y-108514690D01*
X164851663Y-108514690D02*
X164947913Y-108492721D01*
X164947913Y-108492721D02*
X165046635Y-108492722D01*
X165046635Y-108492722D02*
X165142883Y-108514690D01*
X165142883Y-108514690D02*
X165231830Y-108557525D01*
X165231830Y-108557525D02*
X165309017Y-108619077D01*
X165309017Y-108619077D02*
X165527394Y-108837454D01*
X165527394Y-108837454D02*
X165683918Y-108962278D01*
X165864294Y-109049142D02*
X166059476Y-109093693D01*
X166059476Y-109093693D02*
X166259678Y-109093693D01*
X166259678Y-109093693D02*
X166454862Y-109049142D01*
X166454862Y-109049142D02*
X166635236Y-108962279D01*
X166635236Y-108962279D02*
X166791762Y-108837454D01*
X166791762Y-108837454D02*
X166830532Y-108798684D01*
X166830532Y-108798684D02*
X167003119Y-108626093D01*
X167003119Y-108626093D02*
X167925212Y-107704000D01*
D19*
X175000000Y-107950000D02*
X175000000Y-107708000D01*
X175000000Y-107708000D02*
X175004000Y-107704000D01*
D21*
X175004000Y-107704000D02*
X176444237Y-107704000D01*
X167925212Y-107704000D02*
X175004000Y-107704000D01*
D19*
%TO.N,/HPD_OUT*%
X157028242Y-95750801D02*
X157832799Y-95750801D01*
X155988181Y-96877255D02*
X155988181Y-96790862D01*
X155988181Y-96790862D02*
X157028242Y-95750801D01*
X154901759Y-97963677D02*
X155988181Y-96877255D01*
X154901759Y-98135348D02*
X154901759Y-97963677D01*
X158596872Y-94986728D02*
X158596872Y-94896472D01*
X157832799Y-95750801D02*
X158596872Y-94986728D01*
%TO.N,/SCL_OUT*%
X160011968Y-94974788D02*
X156864000Y-98122756D01*
X160011968Y-94835878D02*
X160011968Y-94974788D01*
X156864000Y-98294427D02*
X155962419Y-99196008D01*
X156864000Y-98122756D02*
X156864000Y-98294427D01*
%TO.N,/CEC_OUT*%
X161967656Y-95320856D02*
X160599544Y-95320856D01*
X158289999Y-98989748D02*
X157023079Y-100256668D01*
X158289999Y-97630401D02*
X158289999Y-98989748D01*
X160599544Y-95320856D02*
X158289999Y-97630401D01*
D21*
%TO.N,/D0_OUT_N*%
X173897598Y-105696000D02*
X173995598Y-105598000D01*
X171805212Y-105696000D02*
X173897598Y-105696000D01*
X170805212Y-104696000D02*
X171805212Y-105696000D01*
X168972000Y-104696000D02*
X170805212Y-104696000D01*
X168860739Y-104683464D02*
X168972000Y-104696000D01*
X168755058Y-104646485D02*
X168860739Y-104683464D01*
X168660255Y-104586916D02*
X168755058Y-104646485D01*
X168581084Y-104507745D02*
X168660255Y-104586916D01*
X168521515Y-104412942D02*
X168581084Y-104507745D01*
X168484536Y-104307261D02*
X168521515Y-104412942D01*
X168472000Y-104196000D02*
X168484536Y-104307261D01*
X168472000Y-101806814D02*
X168472000Y-104196000D01*
X168448187Y-101595474D02*
X168472000Y-101806814D01*
X168377944Y-101394731D02*
X168448187Y-101595474D01*
X168264793Y-101214652D02*
X168377944Y-101394731D01*
X168114407Y-101064266D02*
X168264793Y-101214652D01*
X167934328Y-100951115D02*
X168114407Y-101064266D01*
X167733585Y-100880872D02*
X167934328Y-100951115D01*
X167522245Y-100857059D02*
X167733585Y-100880872D01*
X167405754Y-100857059D02*
X167522245Y-100857059D01*
X167194414Y-100880872D02*
X167405754Y-100857059D01*
X166267744Y-104586916D02*
X166346915Y-104507745D01*
X155608866Y-107557546D02*
X155614523Y-107557546D01*
X155614523Y-107557546D02*
X157402977Y-109346000D01*
X157402977Y-109346000D02*
X160694788Y-109346000D01*
X160694788Y-109346000D02*
X165344788Y-104696000D01*
X165344788Y-104696000D02*
X165956000Y-104696000D01*
X165956000Y-104696000D02*
X166067260Y-104683464D01*
X166067260Y-104683464D02*
X166172941Y-104646485D01*
X166172941Y-104646485D02*
X166267744Y-104586916D01*
X166346915Y-104507745D02*
X166406484Y-104412942D01*
X166406484Y-104412942D02*
X166443463Y-104307261D01*
X166443463Y-104307261D02*
X166456000Y-104196000D01*
X166456000Y-104196000D02*
X166456000Y-101806814D01*
X166456000Y-101806814D02*
X166479812Y-101595474D01*
X166479812Y-101595474D02*
X166550055Y-101394731D01*
X166550055Y-101394731D02*
X166663206Y-101214652D01*
X166663206Y-101214652D02*
X166813592Y-101064266D01*
X166813592Y-101064266D02*
X166993671Y-100951115D01*
X166993671Y-100951115D02*
X167194414Y-100880872D01*
%TO.N,/D0_OUT_P*%
X167964000Y-104254246D02*
X167987812Y-104465586D01*
X167964000Y-101865059D02*
X167964000Y-104254246D01*
X167951463Y-101753799D02*
X167964000Y-101865059D01*
X167575260Y-101377596D02*
X167680941Y-101414575D01*
X167152255Y-101474144D02*
X167247058Y-101414575D01*
X167073084Y-101553315D02*
X167152255Y-101474144D01*
X167914484Y-101648118D02*
X167951463Y-101753799D01*
X167013515Y-101648118D02*
X167073084Y-101553315D01*
X167464000Y-101365059D02*
X167575260Y-101377596D01*
X166976536Y-101753799D02*
X167013515Y-101648118D01*
X166964000Y-101865059D02*
X166976536Y-101753799D01*
X155255312Y-107911099D02*
X155255312Y-107916757D01*
X167247058Y-101414575D02*
X167352739Y-101377596D01*
X155255312Y-107916757D02*
X157192555Y-109854000D01*
X165555212Y-105204000D02*
X166014245Y-105204000D01*
X167775744Y-101474144D02*
X167854915Y-101553315D01*
X160905212Y-109854000D02*
X165555212Y-105204000D01*
X167680941Y-101414575D02*
X167775744Y-101474144D01*
X166014245Y-105204000D02*
X166225585Y-105180188D01*
X167352739Y-101377596D02*
X167464000Y-101365059D01*
X166225585Y-105180188D02*
X166426328Y-105109945D01*
X166869944Y-104666329D02*
X166940187Y-104465586D01*
X157192555Y-109854000D02*
X160905212Y-109854000D01*
X166426328Y-105109945D02*
X166606407Y-104996794D01*
X166606407Y-104996794D02*
X166756793Y-104846408D01*
X166756793Y-104846408D02*
X166869944Y-104666329D01*
X167854915Y-101553315D02*
X167914484Y-101648118D01*
X166940187Y-104465586D02*
X166964000Y-104254246D01*
X166964000Y-104254246D02*
X166964000Y-101865059D01*
X167987812Y-104465586D02*
X168058055Y-104666329D01*
X168058055Y-104666329D02*
X168171206Y-104846408D01*
X168171206Y-104846408D02*
X168321592Y-104996794D01*
X168321592Y-104996794D02*
X168501671Y-105109945D01*
X168501671Y-105109945D02*
X168702414Y-105180188D01*
X168702414Y-105180188D02*
X168913754Y-105204000D01*
X168913754Y-105204000D02*
X170594788Y-105204000D01*
X170594788Y-105204000D02*
X171594788Y-106204000D01*
X171594788Y-106204000D02*
X173897598Y-106204000D01*
X173897598Y-106204000D02*
X173995598Y-106302000D01*
%TO.N,/D2_OUT_N*%
X171692788Y-108598000D02*
X173992598Y-108598000D01*
X165194788Y-115096000D02*
X171692788Y-108598000D01*
X161078259Y-115096000D02*
X165194788Y-115096000D01*
X160932066Y-115112471D02*
X161078259Y-115096000D01*
X160793204Y-115161061D02*
X160932066Y-115112471D01*
X160668636Y-115239333D02*
X160793204Y-115161061D01*
X160564608Y-115343361D02*
X160668636Y-115239333D01*
X160486336Y-115467929D02*
X160564608Y-115343361D01*
X160437746Y-115606791D02*
X160486336Y-115467929D01*
X160421275Y-115752984D02*
X160437746Y-115606791D01*
X160421275Y-116047276D02*
X160421275Y-115752984D01*
X160416529Y-116089393D02*
X160421275Y-116047276D01*
X160402530Y-116129399D02*
X160416529Y-116089393D01*
X160379981Y-116165287D02*
X160402530Y-116129399D01*
X160350011Y-116195257D02*
X160379981Y-116165287D01*
X160314123Y-116217806D02*
X160350011Y-116195257D01*
X160274117Y-116231805D02*
X160314123Y-116217806D01*
X160232000Y-116236551D02*
X160274117Y-116231805D01*
X158710550Y-116236551D02*
X160232000Y-116236551D01*
X158540019Y-116129399D02*
X158562568Y-116165287D01*
X157864290Y-115096000D02*
X158010483Y-115112471D01*
X158562568Y-116165287D02*
X158592538Y-116195257D01*
X158592538Y-116195257D02*
X158628426Y-116217806D01*
X158149345Y-115161061D02*
X158273913Y-115239333D01*
X152073332Y-111093079D02*
X152073332Y-111192908D01*
X152073332Y-111192908D02*
X152595680Y-111715256D01*
X158628426Y-116217806D02*
X158668432Y-116231805D01*
X152595680Y-111715256D02*
X152595680Y-111963323D01*
X158526020Y-116089393D02*
X158540019Y-116129399D01*
X152595680Y-111963323D02*
X155728357Y-115096000D01*
X158668432Y-116231805D02*
X158710550Y-116236551D01*
X155728357Y-115096000D02*
X157864290Y-115096000D01*
X158010483Y-115112471D02*
X158149345Y-115161061D01*
X158273913Y-115239333D02*
X158377941Y-115343361D01*
X158377941Y-115343361D02*
X158456213Y-115467929D01*
X158456213Y-115467929D02*
X158504803Y-115606791D01*
X158504803Y-115606791D02*
X158521275Y-115752984D01*
X158521275Y-115752984D02*
X158521275Y-116047276D01*
X158521275Y-116047276D02*
X158526020Y-116089393D01*
%TO.N,/D2_OUT_P*%
X160929275Y-116087566D02*
X160929275Y-115793275D01*
X160557345Y-116679489D02*
X160681913Y-116601217D01*
X160418483Y-116728079D02*
X160557345Y-116679489D01*
X160272290Y-116744551D02*
X160418483Y-116728079D01*
X158524066Y-116728079D02*
X158670259Y-116744551D01*
X158670259Y-116744551D02*
X160272290Y-116744551D01*
X158385204Y-116679489D02*
X158524066Y-116728079D01*
X158260636Y-116601217D02*
X158385204Y-116679489D01*
X160681913Y-116601217D02*
X160785941Y-116497189D01*
X158156608Y-116497189D02*
X158260636Y-116601217D01*
X158013275Y-116087566D02*
X158029746Y-116233759D01*
X160912803Y-116233759D02*
X160929275Y-116087566D01*
X151366225Y-111800186D02*
X151466054Y-111800186D01*
X158029746Y-116233759D02*
X158078336Y-116372621D01*
X158008529Y-115751157D02*
X158013275Y-115793275D01*
X158078336Y-116372621D02*
X158156608Y-116497189D01*
X151988402Y-112322534D02*
X152236469Y-112322534D01*
X152236469Y-112322534D02*
X155517935Y-115604000D01*
X157906123Y-115622744D02*
X157942011Y-115645293D01*
X155517935Y-115604000D02*
X157824000Y-115604000D01*
X160864213Y-116372621D02*
X160912803Y-116233759D01*
X160785941Y-116497189D02*
X160864213Y-116372621D01*
X157942011Y-115645293D02*
X157971981Y-115675263D01*
X157824000Y-115604000D02*
X157866117Y-115608745D01*
X157866117Y-115608745D02*
X157906123Y-115622744D01*
X151466054Y-111800186D02*
X151988402Y-112322534D01*
X157994530Y-115711151D02*
X158008529Y-115751157D01*
X157971981Y-115675263D02*
X157994530Y-115711151D01*
X158013275Y-115793275D02*
X158013275Y-116087566D01*
X160929275Y-115793275D02*
X160934020Y-115751157D01*
X160934020Y-115751157D02*
X160948019Y-115711151D01*
X160948019Y-115711151D02*
X160970568Y-115675263D01*
X160970568Y-115675263D02*
X161000538Y-115645293D01*
X161000538Y-115645293D02*
X161036426Y-115622744D01*
X161036426Y-115622744D02*
X161076432Y-115608745D01*
X161076432Y-115608745D02*
X161118550Y-115604000D01*
X161118550Y-115604000D02*
X165405212Y-115604000D01*
X165405212Y-115604000D02*
X171707212Y-109302000D01*
X171707212Y-109302000D02*
X173992598Y-109302000D01*
D19*
%TO.N,/DONE*%
X157258639Y-101435322D02*
X157730186Y-100963775D01*
X156390140Y-101435322D02*
X157258639Y-101435322D01*
X156123409Y-101168591D02*
X156390140Y-101435322D01*
D21*
%TO.N,/PROG_B*%
X138384095Y-100939376D02*
X139469154Y-102024435D01*
X138360624Y-100939376D02*
X138384095Y-100939376D01*
D22*
%TO.N,/DQ7*%
X138950000Y-100550000D02*
X138950000Y-100900000D01*
X139720882Y-101670882D02*
X139822707Y-101670882D01*
X138950000Y-100900000D02*
X139720882Y-101670882D01*
%TO.N,/DQ6*%
X150410000Y-111551068D02*
X151012672Y-112153740D01*
X150410000Y-109193759D02*
X150410000Y-111551068D01*
X152605736Y-106998023D02*
X150410000Y-109193759D01*
X153138456Y-106998023D02*
X152605736Y-106998023D01*
%TO.N,/DQ5*%
X151279431Y-111006285D02*
X151719779Y-111446633D01*
X152158331Y-107700000D02*
X151279431Y-108578900D01*
X151279431Y-108578900D02*
X151279431Y-111006285D01*
X153300000Y-107700000D02*
X152158331Y-107700000D01*
%TO.N,/DQ4*%
X141944027Y-99376427D02*
X141944027Y-99549561D01*
X140963600Y-98396000D02*
X141944027Y-99376427D01*
%TO.N,/DQM*%
X141678115Y-99903115D02*
X141590474Y-99903115D01*
X142447190Y-100672190D02*
X141678115Y-99903115D01*
%TO.N,/CLK*%
X150850000Y-96530253D02*
X152073332Y-95306921D01*
X150850000Y-96800000D02*
X150850000Y-96530253D01*
X147526386Y-100673614D02*
X147531755Y-100673614D01*
X146268591Y-101931409D02*
X147526386Y-100673614D01*
%TO.N,/CKE*%
X140176260Y-101317328D02*
X140257318Y-101317328D01*
X140257318Y-101317328D02*
X141250000Y-102310010D01*
%TO.N,/A12*%
X152350000Y-93800000D02*
X152200000Y-93950000D01*
X152016039Y-93950000D02*
X151366225Y-94599814D01*
X152200000Y-93950000D02*
X152016039Y-93950000D01*
%TO.N,/A11*%
X151012672Y-94237328D02*
X151012672Y-94246260D01*
X152000000Y-93250000D02*
X151012672Y-94237328D01*
%TO.N,/A9*%
X152773146Y-93900000D02*
X151719779Y-94953367D01*
X153200000Y-93900000D02*
X152773146Y-93900000D01*
%TO.N,/A8*%
X155122893Y-96500000D02*
X154194652Y-97428241D01*
X155500000Y-96500000D02*
X155122893Y-96500000D01*
D23*
%TO.N,/A7*%
X155177919Y-95950000D02*
X156000000Y-95950000D01*
X154053231Y-97074688D02*
X155177919Y-95950000D01*
X153841099Y-97074688D02*
X154053231Y-97074688D01*
D22*
%TO.N,/A6*%
X156441782Y-97302431D02*
X155255312Y-98488901D01*
X156441782Y-97008591D02*
X156441782Y-97302431D01*
%TO.N,/A5*%
X152869031Y-102696390D02*
X156669526Y-106496885D01*
X147443591Y-102696390D02*
X152869031Y-102696390D01*
%TO.N,/A4*%
X152780439Y-110380439D02*
X152780439Y-110385973D01*
X152190000Y-109790000D02*
X152780439Y-110380439D01*
X152190000Y-109790000D02*
X152000000Y-109600000D01*
%TO.N,/A3*%
X152650000Y-108400000D02*
X152650000Y-108841320D01*
X152650000Y-108841320D02*
X153487546Y-109678866D01*
%TO.N,/A2*%
X151639999Y-108751134D02*
X151639999Y-109952640D01*
X151639999Y-109952640D02*
X152426885Y-110739526D01*
X151990401Y-108400732D02*
X151639999Y-108751134D01*
%TO.N,/A1*%
X152052782Y-108999905D02*
X153085296Y-110032419D01*
X153085296Y-110032419D02*
X153133992Y-110032419D01*
%TO.N,/A0*%
X142297581Y-107203992D02*
X143991563Y-105510010D01*
X143991563Y-105510010D02*
X147049336Y-105510010D01*
%TO.N,/A10*%
X145531145Y-106091748D02*
X143358241Y-108264652D01*
X148183252Y-106091748D02*
X145531145Y-106091748D01*
X148408251Y-105866749D02*
X148183252Y-106091748D01*
%TO.N,/BA1*%
X143711794Y-108618206D02*
X145680000Y-106650000D01*
X148700000Y-106650000D02*
X148800000Y-106750000D01*
X145680000Y-106650000D02*
X148700000Y-106650000D01*
D23*
%TO.N,/BA0*%
X149475000Y-110633175D02*
X149475000Y-108875000D01*
X147600882Y-112507293D02*
X149475000Y-110633175D01*
D22*
%TO.N,/CS#*%
X146306921Y-111093079D02*
X146186668Y-111093079D01*
X148650000Y-108750000D02*
X146306921Y-111093079D01*
%TO.N,/RAS#*%
X144603976Y-111968665D02*
X145833115Y-110739526D01*
X144603976Y-115553976D02*
X144603976Y-111968665D01*
X146250000Y-117200000D02*
X144603976Y-115553976D01*
%TO.N,/CAS#*%
X145651320Y-108800000D02*
X144772454Y-109678866D01*
X146950000Y-108800000D02*
X145651320Y-108800000D01*
%TO.N,/WE#*%
X144524688Y-109325312D02*
X144418901Y-109325312D01*
X145425000Y-108425000D02*
X144524688Y-109325312D01*
%TO.N,/DQ3*%
X157996945Y-102111230D02*
X158437293Y-101670882D01*
X157996945Y-102334857D02*
X157996945Y-102111230D01*
X157850000Y-102481802D02*
X157996945Y-102334857D01*
X157850000Y-102800000D02*
X157850000Y-102481802D01*
%TO.N,/DQ2*%
X146645744Y-113054256D02*
X146645744Y-112755324D01*
X146645744Y-112755324D02*
X147247328Y-112153740D01*
%TO.N,/DQ1*%
X147100000Y-113715281D02*
X147954435Y-112860846D01*
X147100000Y-114753600D02*
X147100000Y-113715281D01*
%TO.N,/DQ0*%
X159066411Y-104100000D02*
X158790846Y-104375565D01*
X159700000Y-104100000D02*
X159066411Y-104100000D01*
D19*
%TO.N,Net-(U2-Pad43)*%
X155565534Y-106100000D02*
X156315973Y-106850439D01*
X154850000Y-106100000D02*
X155565534Y-106100000D01*
D21*
%TO.N,/VDDQ_RAM*%
X131539856Y-95780144D02*
X131514800Y-95805200D01*
X132861344Y-95780144D02*
X131539856Y-95780144D01*
X136493200Y-96617586D02*
X136493200Y-107804000D01*
X136144914Y-108152286D02*
X136117049Y-108152286D01*
X136493200Y-107804000D02*
X136144914Y-108152286D01*
X137052000Y-111210998D02*
X137052000Y-110892800D01*
X136198198Y-112064800D02*
X137052000Y-111210998D01*
X135585200Y-112064800D02*
X136198198Y-112064800D01*
%TO.N,/VDD_RAM*%
X127152400Y-114909600D02*
X128270000Y-114909600D01*
X130752800Y-112426800D02*
X130752800Y-111553200D01*
X128270000Y-114909600D02*
X130752800Y-112426800D01*
X127812800Y-118313200D02*
X127152400Y-117652800D01*
X139192000Y-118313200D02*
X127812800Y-118313200D01*
X140001999Y-117503201D02*
X139192000Y-118313200D01*
X140001999Y-111346401D02*
X140001999Y-117503201D01*
X140557200Y-110791200D02*
X140001999Y-111346401D01*
D19*
%TO.N,/CS*%
X151857896Y-113534400D02*
X152342800Y-113534400D01*
X150830789Y-112507293D02*
X151857896Y-113534400D01*
X150659118Y-112507293D02*
X150830789Y-112507293D01*
D21*
%TO.N,/SCK*%
X158083740Y-101311671D02*
X158083740Y-101317328D01*
D19*
X158652324Y-100748744D02*
X159216744Y-100748744D01*
X158083740Y-101317328D02*
X158652324Y-100748744D01*
%TO.N,/SO*%
X158790846Y-101905781D02*
X159800952Y-100895675D01*
X158790846Y-102024435D02*
X158790846Y-101905781D01*
%TO.N,/SI*%
X157356880Y-105789779D02*
X156677640Y-105110539D01*
X157376633Y-105789779D02*
X157356880Y-105789779D01*
%TO.N,Net-(R19-Pad1)*%
X143728187Y-99212400D02*
X144105292Y-99212400D01*
X143004688Y-98488901D02*
X143728187Y-99212400D01*
%TD*%
M02*
