%TF.GenerationSoftware,KiCad,Pcbnew,(5.1.10)-1*%
%TF.CreationDate,2021-07-24T11:21:25+02:00*%
%TF.ProjectId,Trugbild,54727567-6269-46c6-942e-6b696361645f,rev?*%
%TF.SameCoordinates,Original*%
%TF.FileFunction,Legend,Bot*%
%TF.FilePolarity,Positive*%
%FSLAX46Y46*%
G04 Gerber Fmt 4.6, Leading zero omitted, Abs format (unit mm)*
G04 Created by KiCad (PCBNEW (5.1.10)-1) date 2021-07-24 11:21:25*
%MOMM*%
%LPD*%
G01*
G04 APERTURE LIST*
%ADD10C,0.125000*%
%ADD11C,0.150000*%
%ADD12C,0.120000*%
%ADD13C,0.127000*%
%ADD14C,0.100000*%
G04 APERTURE END LIST*
D10*
X125316666Y-91039904D02*
X125316666Y-90239904D01*
X125316666Y-90544666D02*
X125240476Y-90506571D01*
X125088095Y-90506571D01*
X125011904Y-90544666D01*
X124973809Y-90582761D01*
X124935714Y-90658952D01*
X124935714Y-90887523D01*
X124973809Y-90963714D01*
X125011904Y-91001809D01*
X125088095Y-91039904D01*
X125240476Y-91039904D01*
X125316666Y-91001809D01*
X124669047Y-90506571D02*
X124478571Y-91039904D01*
X124288095Y-90506571D02*
X124478571Y-91039904D01*
X124554761Y-91230380D01*
X124592857Y-91268476D01*
X124669047Y-91306571D01*
X123145238Y-90239904D02*
X123145238Y-90811333D01*
X123183333Y-90925619D01*
X123259523Y-91001809D01*
X123373809Y-91039904D01*
X123450000Y-91039904D01*
X122421428Y-91039904D02*
X122421428Y-90620857D01*
X122459523Y-90544666D01*
X122535714Y-90506571D01*
X122688095Y-90506571D01*
X122764285Y-90544666D01*
X122421428Y-91001809D02*
X122497619Y-91039904D01*
X122688095Y-91039904D01*
X122764285Y-91001809D01*
X122802380Y-90925619D01*
X122802380Y-90849428D01*
X122764285Y-90773238D01*
X122688095Y-90735142D01*
X122497619Y-90735142D01*
X122421428Y-90697047D01*
X122040476Y-91039904D02*
X122040476Y-90239904D01*
X121964285Y-90735142D02*
X121735714Y-91039904D01*
X121735714Y-90506571D02*
X122040476Y-90811333D01*
X121050000Y-90506571D02*
X121050000Y-91039904D01*
X121392857Y-90506571D02*
X121392857Y-90925619D01*
X121354761Y-91001809D01*
X121278571Y-91039904D01*
X121164285Y-91039904D01*
X121088095Y-91001809D01*
X121050000Y-90963714D01*
X120669047Y-91039904D02*
X120669047Y-90239904D01*
X120669047Y-90544666D02*
X120592857Y-90506571D01*
X120440476Y-90506571D01*
X120364285Y-90544666D01*
X120326190Y-90582761D01*
X120288095Y-90658952D01*
X120288095Y-90887523D01*
X120326190Y-90963714D01*
X120364285Y-91001809D01*
X120440476Y-91039904D01*
X120592857Y-91039904D01*
X120669047Y-91001809D01*
X119335714Y-91039904D02*
X119335714Y-90239904D01*
X118878571Y-91039904D02*
X119221428Y-90582761D01*
X118878571Y-90239904D02*
X119335714Y-90697047D01*
X118192857Y-91039904D02*
X118192857Y-90620857D01*
X118230952Y-90544666D01*
X118307142Y-90506571D01*
X118459523Y-90506571D01*
X118535714Y-90544666D01*
X118192857Y-91001809D02*
X118269047Y-91039904D01*
X118459523Y-91039904D01*
X118535714Y-91001809D01*
X118573809Y-90925619D01*
X118573809Y-90849428D01*
X118535714Y-90773238D01*
X118459523Y-90735142D01*
X118269047Y-90735142D01*
X118192857Y-90697047D01*
X117811904Y-90506571D02*
X117811904Y-91192285D01*
X117850000Y-91268476D01*
X117926190Y-91306571D01*
X117964285Y-91306571D01*
X117811904Y-90239904D02*
X117850000Y-90278000D01*
X117811904Y-90316095D01*
X117773809Y-90278000D01*
X117811904Y-90239904D01*
X117811904Y-90316095D01*
X117507142Y-90506571D02*
X117088095Y-90506571D01*
X117507142Y-91039904D01*
X117088095Y-91039904D01*
X116478571Y-91001809D02*
X116554761Y-91039904D01*
X116707142Y-91039904D01*
X116783333Y-91001809D01*
X116821428Y-90925619D01*
X116821428Y-90620857D01*
X116783333Y-90544666D01*
X116707142Y-90506571D01*
X116554761Y-90506571D01*
X116478571Y-90544666D01*
X116440476Y-90620857D01*
X116440476Y-90697047D01*
X116821428Y-90773238D01*
X116097619Y-91039904D02*
X116097619Y-90506571D01*
X116097619Y-90658952D02*
X116059523Y-90582761D01*
X116021428Y-90544666D01*
X115945238Y-90506571D01*
X115869047Y-90506571D01*
D11*
X133402380Y-87694761D02*
X132259523Y-87694761D01*
X132830952Y-89694761D02*
X132830952Y-87694761D01*
X131592857Y-89694761D02*
X131592857Y-88361428D01*
X131592857Y-88742380D02*
X131497619Y-88551904D01*
X131402380Y-88456666D01*
X131211904Y-88361428D01*
X131021428Y-88361428D01*
X129497619Y-88361428D02*
X129497619Y-89694761D01*
X130354761Y-88361428D02*
X130354761Y-89409047D01*
X130259523Y-89599523D01*
X130069047Y-89694761D01*
X129783333Y-89694761D01*
X129592857Y-89599523D01*
X129497619Y-89504285D01*
X127688095Y-88361428D02*
X127688095Y-89980476D01*
X127783333Y-90170952D01*
X127878571Y-90266190D01*
X128069047Y-90361428D01*
X128354761Y-90361428D01*
X128545238Y-90266190D01*
X127688095Y-89599523D02*
X127878571Y-89694761D01*
X128259523Y-89694761D01*
X128450000Y-89599523D01*
X128545238Y-89504285D01*
X128640476Y-89313809D01*
X128640476Y-88742380D01*
X128545238Y-88551904D01*
X128450000Y-88456666D01*
X128259523Y-88361428D01*
X127878571Y-88361428D01*
X127688095Y-88456666D01*
X126735714Y-89694761D02*
X126735714Y-87694761D01*
X126735714Y-88456666D02*
X126545238Y-88361428D01*
X126164285Y-88361428D01*
X125973809Y-88456666D01*
X125878571Y-88551904D01*
X125783333Y-88742380D01*
X125783333Y-89313809D01*
X125878571Y-89504285D01*
X125973809Y-89599523D01*
X126164285Y-89694761D01*
X126545238Y-89694761D01*
X126735714Y-89599523D01*
X124926190Y-89694761D02*
X124926190Y-88361428D01*
X124926190Y-87694761D02*
X125021428Y-87790000D01*
X124926190Y-87885238D01*
X124830952Y-87790000D01*
X124926190Y-87694761D01*
X124926190Y-87885238D01*
X123688095Y-89694761D02*
X123878571Y-89599523D01*
X123973809Y-89409047D01*
X123973809Y-87694761D01*
X122069047Y-89694761D02*
X122069047Y-87694761D01*
X122069047Y-89599523D02*
X122259523Y-89694761D01*
X122640476Y-89694761D01*
X122830952Y-89599523D01*
X122926190Y-89504285D01*
X123021428Y-89313809D01*
X123021428Y-88742380D01*
X122926190Y-88551904D01*
X122830952Y-88456666D01*
X122640476Y-88361428D01*
X122259523Y-88361428D01*
X122069047Y-88456666D01*
X118545238Y-89694761D02*
X119688095Y-89694761D01*
X119116666Y-89694761D02*
X119116666Y-87694761D01*
X119307142Y-87980476D01*
X119497619Y-88170952D01*
X119688095Y-88266190D01*
X117688095Y-89504285D02*
X117592857Y-89599523D01*
X117688095Y-89694761D01*
X117783333Y-89599523D01*
X117688095Y-89504285D01*
X117688095Y-89694761D01*
X116354761Y-87694761D02*
X116164285Y-87694761D01*
X115973809Y-87790000D01*
X115878571Y-87885238D01*
X115783333Y-88075714D01*
X115688095Y-88456666D01*
X115688095Y-88932857D01*
X115783333Y-89313809D01*
X115878571Y-89504285D01*
X115973809Y-89599523D01*
X116164285Y-89694761D01*
X116354761Y-89694761D01*
X116545238Y-89599523D01*
X116640476Y-89504285D01*
X116735714Y-89313809D01*
X116830952Y-88932857D01*
X116830952Y-88456666D01*
X116735714Y-88075714D01*
X116640476Y-87885238D01*
X116545238Y-87790000D01*
X116354761Y-87694761D01*
D12*
%TO.C,GND*%
X164700000Y-116950000D02*
G75*
G03*
X164700000Y-116950000I-700000J0D01*
G01*
%TO.C,1V2*%
X164700000Y-113950000D02*
G75*
G03*
X164700000Y-113950000I-700000J0D01*
G01*
%TO.C,3V3*%
X167700000Y-113950000D02*
G75*
G03*
X167700000Y-113950000I-700000J0D01*
G01*
%TO.C,5V*%
X167700000Y-116950000D02*
G75*
G03*
X167700000Y-116950000I-700000J0D01*
G01*
%TO.C,U1*%
X140230000Y-110000000D02*
X140230000Y-108800000D01*
X140230000Y-108800000D02*
X140630000Y-108800000D01*
X140630000Y-108800000D02*
X140630000Y-98200000D01*
X118030000Y-108800000D02*
X118030000Y-98200000D01*
X140630000Y-98200000D02*
X140230000Y-98200000D01*
X118430000Y-98200000D02*
X118030000Y-98200000D01*
X118430000Y-108800000D02*
X118030000Y-108800000D01*
%TO.C,U5*%
X164610000Y-105885000D02*
X167360000Y-105885000D01*
X167360000Y-105885000D02*
X167360000Y-106145000D01*
X164610000Y-105885000D02*
X161860000Y-105885000D01*
X161860000Y-105885000D02*
X161860000Y-106145000D01*
X164610000Y-111335000D02*
X167360000Y-111335000D01*
X167360000Y-111335000D02*
X167360000Y-111075000D01*
X164610000Y-111335000D02*
X161860000Y-111335000D01*
X161860000Y-111335000D02*
X161860000Y-111075000D01*
X161860000Y-111075000D02*
X160210000Y-111075000D01*
%TO.C,R19*%
X140003641Y-89620000D02*
X139696359Y-89620000D01*
X140003641Y-88860000D02*
X139696359Y-88860000D01*
%TO.C,D30*%
X135625000Y-88535000D02*
X137910000Y-88535000D01*
X135625000Y-90005000D02*
X135625000Y-88535000D01*
X137910000Y-90005000D02*
X135625000Y-90005000D01*
%TO.C,R18*%
X159020000Y-111153641D02*
X159020000Y-110846359D01*
X159780000Y-111153641D02*
X159780000Y-110846359D01*
%TO.C,R4*%
X159050000Y-108713641D02*
X159050000Y-108406359D01*
X159810000Y-108713641D02*
X159810000Y-108406359D01*
%TO.C,FB12*%
X170600000Y-111502779D02*
X170600000Y-111177221D01*
X171620000Y-111502779D02*
X171620000Y-111177221D01*
%TO.C,C2*%
X170170000Y-110862164D02*
X170170000Y-111077836D01*
X169450000Y-110862164D02*
X169450000Y-111077836D01*
%TO.C,X1*%
X165698269Y-100549275D02*
X165698269Y-104049275D01*
X165698269Y-104049275D02*
X161498269Y-104049275D01*
%TO.C,FB11*%
X173387221Y-97710000D02*
X173712779Y-97710000D01*
X173387221Y-98730000D02*
X173712779Y-98730000D01*
%TO.C,FB10*%
X115802779Y-112220000D02*
X115477221Y-112220000D01*
X115802779Y-111200000D02*
X115477221Y-111200000D01*
%TO.C,FB9*%
X167061149Y-101468987D02*
X167061149Y-101794545D01*
X166041149Y-101468987D02*
X166041149Y-101794545D01*
%TO.C,FB8*%
X157762779Y-117210000D02*
X157437221Y-117210000D01*
X157762779Y-116190000D02*
X157437221Y-116190000D01*
%TO.C,FB2*%
X131137221Y-112340000D02*
X131462779Y-112340000D01*
X131137221Y-113360000D02*
X131462779Y-113360000D01*
%TO.C,FB1*%
X139087221Y-112540000D02*
X139412779Y-112540000D01*
X139087221Y-113560000D02*
X139412779Y-113560000D01*
%TO.C,C1*%
X115740580Y-110710000D02*
X115459420Y-110710000D01*
X115740580Y-109690000D02*
X115459420Y-109690000D01*
%TO.C,C35*%
X166443312Y-103110245D02*
X166658984Y-103110245D01*
X166443312Y-103830245D02*
X166658984Y-103830245D01*
%TO.C,C29*%
X174320000Y-100529420D02*
X174320000Y-100810580D01*
X173300000Y-100529420D02*
X173300000Y-100810580D01*
%TO.C,C28*%
X160990000Y-115340580D02*
X160990000Y-115059420D01*
X162010000Y-115340580D02*
X162010000Y-115059420D01*
%TO.C,C26*%
X157740580Y-115710000D02*
X157459420Y-115710000D01*
X157740580Y-114690000D02*
X157459420Y-114690000D01*
%TO.C,C25*%
X148910000Y-117409420D02*
X148910000Y-117690580D01*
X147890000Y-117409420D02*
X147890000Y-117690580D01*
%TO.C,C24*%
X154410000Y-117509420D02*
X154410000Y-117790580D01*
X153390000Y-117509420D02*
X153390000Y-117790580D01*
%TO.C,R2*%
X158010659Y-99048740D02*
X158227940Y-98831459D01*
X158548060Y-99586141D02*
X158765341Y-99368860D01*
%TO.C,R1*%
X158054141Y-98708460D02*
X157836860Y-98925741D01*
X157516740Y-98171059D02*
X157299459Y-98388340D01*
%TO.C,C34*%
X133660000Y-111192164D02*
X133660000Y-111407836D01*
X132940000Y-111192164D02*
X132940000Y-111407836D01*
%TO.C,C33*%
X138460000Y-111192164D02*
X138460000Y-111407836D01*
X137740000Y-111192164D02*
X137740000Y-111407836D01*
%TO.C,C32*%
X130540000Y-95807836D02*
X130540000Y-95592164D01*
X131260000Y-95807836D02*
X131260000Y-95592164D01*
%TO.C,C31*%
X135340000Y-95807836D02*
X135340000Y-95592164D01*
X136060000Y-95807836D02*
X136060000Y-95592164D01*
%TO.C,C30*%
X140160000Y-111192164D02*
X140160000Y-111407836D01*
X139440000Y-111192164D02*
X139440000Y-111407836D01*
%TO.C,C27*%
X161542000Y-117947764D02*
X161542000Y-118163436D01*
X160822000Y-117947764D02*
X160822000Y-118163436D01*
%TO.C,C21*%
X119260000Y-111192164D02*
X119260000Y-111407836D01*
X118540000Y-111192164D02*
X118540000Y-111407836D01*
%TO.C,C18*%
X129660000Y-111192164D02*
X129660000Y-111407836D01*
X128940000Y-111192164D02*
X128940000Y-111407836D01*
%TO.C,C16*%
X148391911Y-96805586D02*
X148544414Y-96958089D01*
X147882794Y-97314703D02*
X148035297Y-97467206D01*
%TO.C,C11*%
X149099018Y-96098479D02*
X149251521Y-96250982D01*
X148589901Y-96607596D02*
X148742404Y-96760099D01*
%TO.C,C9*%
X145780810Y-99678307D02*
X145628307Y-99830810D01*
X145271693Y-99169190D02*
X145119190Y-99321693D01*
%TO.C,C7*%
X156634790Y-97709693D02*
X156787293Y-97557190D01*
X157143907Y-98218810D02*
X157296410Y-98066307D01*
%TO.C,C5*%
X146530810Y-100378307D02*
X146378307Y-100530810D01*
X146021693Y-99869190D02*
X145869190Y-100021693D01*
D13*
%TO.C,J4*%
X178100000Y-98350000D02*
X178100000Y-99850000D01*
X178100000Y-110150000D02*
X178100000Y-111250000D01*
X180870000Y-112200000D02*
X183060000Y-112200000D01*
X185770000Y-112200000D02*
X187000000Y-112200000D01*
X187000000Y-112200000D02*
X187000000Y-97200000D01*
X187000000Y-97200000D02*
X185770000Y-97200000D01*
X183060000Y-97200000D02*
X180870000Y-97200000D01*
D14*
X176714000Y-109430000D02*
G75*
G03*
X176714000Y-109430000I-254000J0D01*
G01*
%TO.C,J2*%
X112784000Y-99970000D02*
G75*
G03*
X112784000Y-99970000I-254000J0D01*
G01*
D13*
X105930000Y-112200000D02*
X108120000Y-112200000D01*
X101990000Y-112200000D02*
X103220000Y-112200000D01*
X101990000Y-97200000D02*
X101990000Y-112200000D01*
X103220000Y-97200000D02*
X101990000Y-97200000D01*
X108120000Y-97200000D02*
X105930000Y-97200000D01*
X110890000Y-99250000D02*
X110890000Y-98150000D01*
X110890000Y-111050000D02*
X110890000Y-109550000D01*
D12*
%TO.C,U4*%
X160632000Y-117450000D02*
X159282000Y-117450000D01*
X159932000Y-116000000D02*
X159282000Y-116000000D01*
%TO.C,U3*%
X150300000Y-116040000D02*
X152750000Y-116040000D01*
X152100000Y-119260000D02*
X150300000Y-119260000D01*
%TO.C,GND*%
D10*
X165380952Y-117700000D02*
X165428571Y-117676190D01*
X165500000Y-117676190D01*
X165571428Y-117700000D01*
X165619047Y-117747619D01*
X165642857Y-117795238D01*
X165666666Y-117890476D01*
X165666666Y-117961904D01*
X165642857Y-118057142D01*
X165619047Y-118104761D01*
X165571428Y-118152380D01*
X165500000Y-118176190D01*
X165452380Y-118176190D01*
X165380952Y-118152380D01*
X165357142Y-118128571D01*
X165357142Y-117961904D01*
X165452380Y-117961904D01*
X165142857Y-118176190D02*
X165142857Y-117676190D01*
X164857142Y-118176190D01*
X164857142Y-117676190D01*
X164619047Y-118176190D02*
X164619047Y-117676190D01*
X164500000Y-117676190D01*
X164428571Y-117700000D01*
X164380952Y-117747619D01*
X164357142Y-117795238D01*
X164333333Y-117890476D01*
X164333333Y-117961904D01*
X164357142Y-118057142D01*
X164380952Y-118104761D01*
X164428571Y-118152380D01*
X164500000Y-118176190D01*
X164619047Y-118176190D01*
%TO.C,1V2*%
X165309523Y-115176190D02*
X165595238Y-115176190D01*
X165452380Y-115176190D02*
X165452380Y-114676190D01*
X165500000Y-114747619D01*
X165547619Y-114795238D01*
X165595238Y-114819047D01*
X165166666Y-114676190D02*
X165000000Y-115176190D01*
X164833333Y-114676190D01*
X164690476Y-114723809D02*
X164666666Y-114700000D01*
X164619047Y-114676190D01*
X164500000Y-114676190D01*
X164452380Y-114700000D01*
X164428571Y-114723809D01*
X164404761Y-114771428D01*
X164404761Y-114819047D01*
X164428571Y-114890476D01*
X164714285Y-115176190D01*
X164404761Y-115176190D01*
%TO.C,3V3*%
X169119047Y-114676190D02*
X168809523Y-114676190D01*
X168976190Y-114866666D01*
X168904761Y-114866666D01*
X168857142Y-114890476D01*
X168833333Y-114914285D01*
X168809523Y-114961904D01*
X168809523Y-115080952D01*
X168833333Y-115128571D01*
X168857142Y-115152380D01*
X168904761Y-115176190D01*
X169047619Y-115176190D01*
X169095238Y-115152380D01*
X169119047Y-115128571D01*
X168666666Y-114676190D02*
X168500000Y-115176190D01*
X168333333Y-114676190D01*
X168214285Y-114676190D02*
X167904761Y-114676190D01*
X168071428Y-114866666D01*
X168000000Y-114866666D01*
X167952380Y-114890476D01*
X167928571Y-114914285D01*
X167904761Y-114961904D01*
X167904761Y-115080952D01*
X167928571Y-115128571D01*
X167952380Y-115152380D01*
X168000000Y-115176190D01*
X168142857Y-115176190D01*
X168190476Y-115152380D01*
X168214285Y-115128571D01*
%TO.C,5V*%
X168595238Y-117676190D02*
X168833333Y-117676190D01*
X168857142Y-117914285D01*
X168833333Y-117890476D01*
X168785714Y-117866666D01*
X168666666Y-117866666D01*
X168619047Y-117890476D01*
X168595238Y-117914285D01*
X168571428Y-117961904D01*
X168571428Y-118080952D01*
X168595238Y-118128571D01*
X168619047Y-118152380D01*
X168666666Y-118176190D01*
X168785714Y-118176190D01*
X168833333Y-118152380D01*
X168857142Y-118128571D01*
X168428571Y-117676190D02*
X168261904Y-118176190D01*
X168095238Y-117676190D01*
%TO.C,U1*%
X141871652Y-103307390D02*
X141871652Y-103712152D01*
X141847842Y-103759771D01*
X141824033Y-103783580D01*
X141776414Y-103807390D01*
X141681176Y-103807390D01*
X141633557Y-103783580D01*
X141609747Y-103759771D01*
X141585938Y-103712152D01*
X141585938Y-103307390D01*
X141085938Y-103807390D02*
X141371652Y-103807390D01*
X141228795Y-103807390D02*
X141228795Y-103307390D01*
X141276414Y-103378819D01*
X141324033Y-103426438D01*
X141371652Y-103450247D01*
%TO.C,U5*%
X164990952Y-111896190D02*
X164990952Y-112300952D01*
X164967142Y-112348571D01*
X164943333Y-112372380D01*
X164895714Y-112396190D01*
X164800476Y-112396190D01*
X164752857Y-112372380D01*
X164729047Y-112348571D01*
X164705238Y-112300952D01*
X164705238Y-111896190D01*
X164229047Y-111896190D02*
X164467142Y-111896190D01*
X164490952Y-112134285D01*
X164467142Y-112110476D01*
X164419523Y-112086666D01*
X164300476Y-112086666D01*
X164252857Y-112110476D01*
X164229047Y-112134285D01*
X164205238Y-112181904D01*
X164205238Y-112300952D01*
X164229047Y-112348571D01*
X164252857Y-112372380D01*
X164300476Y-112396190D01*
X164419523Y-112396190D01*
X164467142Y-112372380D01*
X164490952Y-112348571D01*
%TO.C,R19*%
X140171428Y-88296190D02*
X140338095Y-88058095D01*
X140457142Y-88296190D02*
X140457142Y-87796190D01*
X140266666Y-87796190D01*
X140219047Y-87820000D01*
X140195238Y-87843809D01*
X140171428Y-87891428D01*
X140171428Y-87962857D01*
X140195238Y-88010476D01*
X140219047Y-88034285D01*
X140266666Y-88058095D01*
X140457142Y-88058095D01*
X139695238Y-88296190D02*
X139980952Y-88296190D01*
X139838095Y-88296190D02*
X139838095Y-87796190D01*
X139885714Y-87867619D01*
X139933333Y-87915238D01*
X139980952Y-87939047D01*
X139457142Y-88296190D02*
X139361904Y-88296190D01*
X139314285Y-88272380D01*
X139290476Y-88248571D01*
X139242857Y-88177142D01*
X139219047Y-88081904D01*
X139219047Y-87891428D01*
X139242857Y-87843809D01*
X139266666Y-87820000D01*
X139314285Y-87796190D01*
X139409523Y-87796190D01*
X139457142Y-87820000D01*
X139480952Y-87843809D01*
X139504761Y-87891428D01*
X139504761Y-88010476D01*
X139480952Y-88058095D01*
X139457142Y-88081904D01*
X139409523Y-88105714D01*
X139314285Y-88105714D01*
X139266666Y-88081904D01*
X139242857Y-88058095D01*
X139219047Y-88010476D01*
%TO.C,D30*%
X137717142Y-90926190D02*
X137717142Y-90426190D01*
X137598095Y-90426190D01*
X137526666Y-90450000D01*
X137479047Y-90497619D01*
X137455238Y-90545238D01*
X137431428Y-90640476D01*
X137431428Y-90711904D01*
X137455238Y-90807142D01*
X137479047Y-90854761D01*
X137526666Y-90902380D01*
X137598095Y-90926190D01*
X137717142Y-90926190D01*
X137264761Y-90426190D02*
X136955238Y-90426190D01*
X137121904Y-90616666D01*
X137050476Y-90616666D01*
X137002857Y-90640476D01*
X136979047Y-90664285D01*
X136955238Y-90711904D01*
X136955238Y-90830952D01*
X136979047Y-90878571D01*
X137002857Y-90902380D01*
X137050476Y-90926190D01*
X137193333Y-90926190D01*
X137240952Y-90902380D01*
X137264761Y-90878571D01*
X136645714Y-90426190D02*
X136598095Y-90426190D01*
X136550476Y-90450000D01*
X136526666Y-90473809D01*
X136502857Y-90521428D01*
X136479047Y-90616666D01*
X136479047Y-90735714D01*
X136502857Y-90830952D01*
X136526666Y-90878571D01*
X136550476Y-90902380D01*
X136598095Y-90926190D01*
X136645714Y-90926190D01*
X136693333Y-90902380D01*
X136717142Y-90878571D01*
X136740952Y-90830952D01*
X136764761Y-90735714D01*
X136764761Y-90616666D01*
X136740952Y-90521428D01*
X136717142Y-90473809D01*
X136693333Y-90450000D01*
X136645714Y-90426190D01*
%TO.C,R18*%
X158372928Y-111376590D02*
X158539595Y-111138495D01*
X158658642Y-111376590D02*
X158658642Y-110876590D01*
X158468166Y-110876590D01*
X158420547Y-110900400D01*
X158396738Y-110924209D01*
X158372928Y-110971828D01*
X158372928Y-111043257D01*
X158396738Y-111090876D01*
X158420547Y-111114685D01*
X158468166Y-111138495D01*
X158658642Y-111138495D01*
X157896738Y-111376590D02*
X158182452Y-111376590D01*
X158039595Y-111376590D02*
X158039595Y-110876590D01*
X158087214Y-110948019D01*
X158134833Y-110995638D01*
X158182452Y-111019447D01*
X157611023Y-111090876D02*
X157658642Y-111067066D01*
X157682452Y-111043257D01*
X157706261Y-110995638D01*
X157706261Y-110971828D01*
X157682452Y-110924209D01*
X157658642Y-110900400D01*
X157611023Y-110876590D01*
X157515785Y-110876590D01*
X157468166Y-110900400D01*
X157444357Y-110924209D01*
X157420547Y-110971828D01*
X157420547Y-110995638D01*
X157444357Y-111043257D01*
X157468166Y-111067066D01*
X157515785Y-111090876D01*
X157611023Y-111090876D01*
X157658642Y-111114685D01*
X157682452Y-111138495D01*
X157706261Y-111186114D01*
X157706261Y-111281352D01*
X157682452Y-111328971D01*
X157658642Y-111352780D01*
X157611023Y-111376590D01*
X157515785Y-111376590D01*
X157468166Y-111352780D01*
X157444357Y-111328971D01*
X157420547Y-111281352D01*
X157420547Y-111186114D01*
X157444357Y-111138495D01*
X157468166Y-111114685D01*
X157515785Y-111090876D01*
%TO.C,R4*%
X158541233Y-108861990D02*
X158707900Y-108623895D01*
X158826947Y-108861990D02*
X158826947Y-108361990D01*
X158636471Y-108361990D01*
X158588852Y-108385800D01*
X158565042Y-108409609D01*
X158541233Y-108457228D01*
X158541233Y-108528657D01*
X158565042Y-108576276D01*
X158588852Y-108600085D01*
X158636471Y-108623895D01*
X158826947Y-108623895D01*
X158112661Y-108528657D02*
X158112661Y-108861990D01*
X158231709Y-108338180D02*
X158350757Y-108695323D01*
X158041233Y-108695323D01*
%TO.C,FB12*%
X173501761Y-111521085D02*
X173668428Y-111521085D01*
X173668428Y-111782990D02*
X173668428Y-111282990D01*
X173430333Y-111282990D01*
X173073190Y-111521085D02*
X173001761Y-111544895D01*
X172977952Y-111568704D01*
X172954142Y-111616323D01*
X172954142Y-111687752D01*
X172977952Y-111735371D01*
X173001761Y-111759180D01*
X173049380Y-111782990D01*
X173239857Y-111782990D01*
X173239857Y-111282990D01*
X173073190Y-111282990D01*
X173025571Y-111306800D01*
X173001761Y-111330609D01*
X172977952Y-111378228D01*
X172977952Y-111425847D01*
X173001761Y-111473466D01*
X173025571Y-111497276D01*
X173073190Y-111521085D01*
X173239857Y-111521085D01*
X172477952Y-111782990D02*
X172763666Y-111782990D01*
X172620809Y-111782990D02*
X172620809Y-111282990D01*
X172668428Y-111354419D01*
X172716047Y-111402038D01*
X172763666Y-111425847D01*
X172287476Y-111330609D02*
X172263666Y-111306800D01*
X172216047Y-111282990D01*
X172097000Y-111282990D01*
X172049380Y-111306800D01*
X172025571Y-111330609D01*
X172001761Y-111378228D01*
X172001761Y-111425847D01*
X172025571Y-111497276D01*
X172311285Y-111782990D01*
X172001761Y-111782990D01*
%TO.C,C2*%
X169844233Y-112484671D02*
X169868042Y-112508480D01*
X169939471Y-112532290D01*
X169987090Y-112532290D01*
X170058519Y-112508480D01*
X170106138Y-112460861D01*
X170129947Y-112413242D01*
X170153757Y-112318004D01*
X170153757Y-112246576D01*
X170129947Y-112151338D01*
X170106138Y-112103719D01*
X170058519Y-112056100D01*
X169987090Y-112032290D01*
X169939471Y-112032290D01*
X169868042Y-112056100D01*
X169844233Y-112079909D01*
X169653757Y-112079909D02*
X169629947Y-112056100D01*
X169582328Y-112032290D01*
X169463280Y-112032290D01*
X169415661Y-112056100D01*
X169391852Y-112079909D01*
X169368042Y-112127528D01*
X169368042Y-112175147D01*
X169391852Y-112246576D01*
X169677566Y-112532290D01*
X169368042Y-112532290D01*
%TO.C,X1*%
X164003030Y-99738690D02*
X163669697Y-100238690D01*
X163669697Y-99738690D02*
X164003030Y-100238690D01*
X163217316Y-100238690D02*
X163503030Y-100238690D01*
X163360173Y-100238690D02*
X163360173Y-99738690D01*
X163407792Y-99810119D01*
X163455411Y-99857738D01*
X163503030Y-99881547D01*
%TO.C,FB11*%
X171647561Y-98249585D02*
X171814228Y-98249585D01*
X171814228Y-98511490D02*
X171814228Y-98011490D01*
X171576133Y-98011490D01*
X171218990Y-98249585D02*
X171147561Y-98273395D01*
X171123752Y-98297204D01*
X171099942Y-98344823D01*
X171099942Y-98416252D01*
X171123752Y-98463871D01*
X171147561Y-98487680D01*
X171195180Y-98511490D01*
X171385657Y-98511490D01*
X171385657Y-98011490D01*
X171218990Y-98011490D01*
X171171371Y-98035300D01*
X171147561Y-98059109D01*
X171123752Y-98106728D01*
X171123752Y-98154347D01*
X171147561Y-98201966D01*
X171171371Y-98225776D01*
X171218990Y-98249585D01*
X171385657Y-98249585D01*
X170623752Y-98511490D02*
X170909466Y-98511490D01*
X170766609Y-98511490D02*
X170766609Y-98011490D01*
X170814228Y-98082919D01*
X170861847Y-98130538D01*
X170909466Y-98154347D01*
X170147561Y-98511490D02*
X170433276Y-98511490D01*
X170290419Y-98511490D02*
X170290419Y-98011490D01*
X170338038Y-98082919D01*
X170385657Y-98130538D01*
X170433276Y-98154347D01*
%TO.C,FB10*%
X116834361Y-112803785D02*
X117001028Y-112803785D01*
X117001028Y-113065690D02*
X117001028Y-112565690D01*
X116762933Y-112565690D01*
X116405790Y-112803785D02*
X116334361Y-112827595D01*
X116310552Y-112851404D01*
X116286742Y-112899023D01*
X116286742Y-112970452D01*
X116310552Y-113018071D01*
X116334361Y-113041880D01*
X116381980Y-113065690D01*
X116572457Y-113065690D01*
X116572457Y-112565690D01*
X116405790Y-112565690D01*
X116358171Y-112589500D01*
X116334361Y-112613309D01*
X116310552Y-112660928D01*
X116310552Y-112708547D01*
X116334361Y-112756166D01*
X116358171Y-112779976D01*
X116405790Y-112803785D01*
X116572457Y-112803785D01*
X115810552Y-113065690D02*
X116096266Y-113065690D01*
X115953409Y-113065690D02*
X115953409Y-112565690D01*
X116001028Y-112637119D01*
X116048647Y-112684738D01*
X116096266Y-112708547D01*
X115501028Y-112565690D02*
X115453409Y-112565690D01*
X115405790Y-112589500D01*
X115381980Y-112613309D01*
X115358171Y-112660928D01*
X115334361Y-112756166D01*
X115334361Y-112875214D01*
X115358171Y-112970452D01*
X115381980Y-113018071D01*
X115405790Y-113041880D01*
X115453409Y-113065690D01*
X115501028Y-113065690D01*
X115548647Y-113041880D01*
X115572457Y-113018071D01*
X115596266Y-112970452D01*
X115620076Y-112875214D01*
X115620076Y-112756166D01*
X115596266Y-112660928D01*
X115572457Y-112613309D01*
X115548647Y-112589500D01*
X115501028Y-112565690D01*
%TO.C,FB9*%
X168564666Y-101805585D02*
X168731333Y-101805585D01*
X168731333Y-102067490D02*
X168731333Y-101567490D01*
X168493238Y-101567490D01*
X168136095Y-101805585D02*
X168064666Y-101829395D01*
X168040857Y-101853204D01*
X168017047Y-101900823D01*
X168017047Y-101972252D01*
X168040857Y-102019871D01*
X168064666Y-102043680D01*
X168112285Y-102067490D01*
X168302761Y-102067490D01*
X168302761Y-101567490D01*
X168136095Y-101567490D01*
X168088476Y-101591300D01*
X168064666Y-101615109D01*
X168040857Y-101662728D01*
X168040857Y-101710347D01*
X168064666Y-101757966D01*
X168088476Y-101781776D01*
X168136095Y-101805585D01*
X168302761Y-101805585D01*
X167778952Y-102067490D02*
X167683714Y-102067490D01*
X167636095Y-102043680D01*
X167612285Y-102019871D01*
X167564666Y-101948442D01*
X167540857Y-101853204D01*
X167540857Y-101662728D01*
X167564666Y-101615109D01*
X167588476Y-101591300D01*
X167636095Y-101567490D01*
X167731333Y-101567490D01*
X167778952Y-101591300D01*
X167802761Y-101615109D01*
X167826571Y-101662728D01*
X167826571Y-101781776D01*
X167802761Y-101829395D01*
X167778952Y-101853204D01*
X167731333Y-101877014D01*
X167636095Y-101877014D01*
X167588476Y-101853204D01*
X167564666Y-101829395D01*
X167540857Y-101781776D01*
%TO.C,FB8*%
X158582466Y-117832985D02*
X158749133Y-117832985D01*
X158749133Y-118094890D02*
X158749133Y-117594890D01*
X158511038Y-117594890D01*
X158153895Y-117832985D02*
X158082466Y-117856795D01*
X158058657Y-117880604D01*
X158034847Y-117928223D01*
X158034847Y-117999652D01*
X158058657Y-118047271D01*
X158082466Y-118071080D01*
X158130085Y-118094890D01*
X158320561Y-118094890D01*
X158320561Y-117594890D01*
X158153895Y-117594890D01*
X158106276Y-117618700D01*
X158082466Y-117642509D01*
X158058657Y-117690128D01*
X158058657Y-117737747D01*
X158082466Y-117785366D01*
X158106276Y-117809176D01*
X158153895Y-117832985D01*
X158320561Y-117832985D01*
X157749133Y-117809176D02*
X157796752Y-117785366D01*
X157820561Y-117761557D01*
X157844371Y-117713938D01*
X157844371Y-117690128D01*
X157820561Y-117642509D01*
X157796752Y-117618700D01*
X157749133Y-117594890D01*
X157653895Y-117594890D01*
X157606276Y-117618700D01*
X157582466Y-117642509D01*
X157558657Y-117690128D01*
X157558657Y-117713938D01*
X157582466Y-117761557D01*
X157606276Y-117785366D01*
X157653895Y-117809176D01*
X157749133Y-117809176D01*
X157796752Y-117832985D01*
X157820561Y-117856795D01*
X157844371Y-117904414D01*
X157844371Y-117999652D01*
X157820561Y-118047271D01*
X157796752Y-118071080D01*
X157749133Y-118094890D01*
X157653895Y-118094890D01*
X157606276Y-118071080D01*
X157582466Y-118047271D01*
X157558657Y-117999652D01*
X157558657Y-117904414D01*
X157582466Y-117856795D01*
X157606276Y-117832985D01*
X157653895Y-117809176D01*
%TO.C,FB2*%
X131671166Y-114061085D02*
X131837833Y-114061085D01*
X131837833Y-114322990D02*
X131837833Y-113822990D01*
X131599738Y-113822990D01*
X131242595Y-114061085D02*
X131171166Y-114084895D01*
X131147357Y-114108704D01*
X131123547Y-114156323D01*
X131123547Y-114227752D01*
X131147357Y-114275371D01*
X131171166Y-114299180D01*
X131218785Y-114322990D01*
X131409261Y-114322990D01*
X131409261Y-113822990D01*
X131242595Y-113822990D01*
X131194976Y-113846800D01*
X131171166Y-113870609D01*
X131147357Y-113918228D01*
X131147357Y-113965847D01*
X131171166Y-114013466D01*
X131194976Y-114037276D01*
X131242595Y-114061085D01*
X131409261Y-114061085D01*
X130933071Y-113870609D02*
X130909261Y-113846800D01*
X130861642Y-113822990D01*
X130742595Y-113822990D01*
X130694976Y-113846800D01*
X130671166Y-113870609D01*
X130647357Y-113918228D01*
X130647357Y-113965847D01*
X130671166Y-114037276D01*
X130956880Y-114322990D01*
X130647357Y-114322990D01*
%TO.C,FB1*%
X141831166Y-113489585D02*
X141997833Y-113489585D01*
X141997833Y-113751490D02*
X141997833Y-113251490D01*
X141759738Y-113251490D01*
X141402595Y-113489585D02*
X141331166Y-113513395D01*
X141307357Y-113537204D01*
X141283547Y-113584823D01*
X141283547Y-113656252D01*
X141307357Y-113703871D01*
X141331166Y-113727680D01*
X141378785Y-113751490D01*
X141569261Y-113751490D01*
X141569261Y-113251490D01*
X141402595Y-113251490D01*
X141354976Y-113275300D01*
X141331166Y-113299109D01*
X141307357Y-113346728D01*
X141307357Y-113394347D01*
X141331166Y-113441966D01*
X141354976Y-113465776D01*
X141402595Y-113489585D01*
X141569261Y-113489585D01*
X140807357Y-113751490D02*
X141093071Y-113751490D01*
X140950214Y-113751490D02*
X140950214Y-113251490D01*
X140997833Y-113322919D01*
X141045452Y-113370538D01*
X141093071Y-113394347D01*
%TO.C,C1*%
X117621833Y-110363771D02*
X117645642Y-110387580D01*
X117717071Y-110411390D01*
X117764690Y-110411390D01*
X117836119Y-110387580D01*
X117883738Y-110339961D01*
X117907547Y-110292342D01*
X117931357Y-110197104D01*
X117931357Y-110125676D01*
X117907547Y-110030438D01*
X117883738Y-109982819D01*
X117836119Y-109935200D01*
X117764690Y-109911390D01*
X117717071Y-109911390D01*
X117645642Y-109935200D01*
X117621833Y-109959009D01*
X117145642Y-110411390D02*
X117431357Y-110411390D01*
X117288500Y-110411390D02*
X117288500Y-109911390D01*
X117336119Y-109982819D01*
X117383738Y-110030438D01*
X117431357Y-110054247D01*
%TO.C,C35*%
X168609128Y-103747071D02*
X168632938Y-103770880D01*
X168704366Y-103794690D01*
X168751985Y-103794690D01*
X168823414Y-103770880D01*
X168871033Y-103723261D01*
X168894842Y-103675642D01*
X168918652Y-103580404D01*
X168918652Y-103508976D01*
X168894842Y-103413738D01*
X168871033Y-103366119D01*
X168823414Y-103318500D01*
X168751985Y-103294690D01*
X168704366Y-103294690D01*
X168632938Y-103318500D01*
X168609128Y-103342309D01*
X168442461Y-103294690D02*
X168132938Y-103294690D01*
X168299604Y-103485166D01*
X168228176Y-103485166D01*
X168180557Y-103508976D01*
X168156747Y-103532785D01*
X168132938Y-103580404D01*
X168132938Y-103699452D01*
X168156747Y-103747071D01*
X168180557Y-103770880D01*
X168228176Y-103794690D01*
X168371033Y-103794690D01*
X168418652Y-103770880D01*
X168442461Y-103747071D01*
X167680557Y-103294690D02*
X167918652Y-103294690D01*
X167942461Y-103532785D01*
X167918652Y-103508976D01*
X167871033Y-103485166D01*
X167751985Y-103485166D01*
X167704366Y-103508976D01*
X167680557Y-103532785D01*
X167656747Y-103580404D01*
X167656747Y-103699452D01*
X167680557Y-103747071D01*
X167704366Y-103770880D01*
X167751985Y-103794690D01*
X167871033Y-103794690D01*
X167918652Y-103770880D01*
X167942461Y-103747071D01*
%TO.C,C29*%
X172622328Y-101270571D02*
X172646138Y-101294380D01*
X172717566Y-101318190D01*
X172765185Y-101318190D01*
X172836614Y-101294380D01*
X172884233Y-101246761D01*
X172908042Y-101199142D01*
X172931852Y-101103904D01*
X172931852Y-101032476D01*
X172908042Y-100937238D01*
X172884233Y-100889619D01*
X172836614Y-100842000D01*
X172765185Y-100818190D01*
X172717566Y-100818190D01*
X172646138Y-100842000D01*
X172622328Y-100865809D01*
X172431852Y-100865809D02*
X172408042Y-100842000D01*
X172360423Y-100818190D01*
X172241376Y-100818190D01*
X172193757Y-100842000D01*
X172169947Y-100865809D01*
X172146138Y-100913428D01*
X172146138Y-100961047D01*
X172169947Y-101032476D01*
X172455661Y-101318190D01*
X172146138Y-101318190D01*
X171908042Y-101318190D02*
X171812804Y-101318190D01*
X171765185Y-101294380D01*
X171741376Y-101270571D01*
X171693757Y-101199142D01*
X171669947Y-101103904D01*
X171669947Y-100913428D01*
X171693757Y-100865809D01*
X171717566Y-100842000D01*
X171765185Y-100818190D01*
X171860423Y-100818190D01*
X171908042Y-100842000D01*
X171931852Y-100865809D01*
X171955661Y-100913428D01*
X171955661Y-101032476D01*
X171931852Y-101080095D01*
X171908042Y-101103904D01*
X171860423Y-101127714D01*
X171765185Y-101127714D01*
X171717566Y-101103904D01*
X171693757Y-101080095D01*
X171669947Y-101032476D01*
%TO.C,C28*%
X162778571Y-114778571D02*
X162802380Y-114754761D01*
X162826190Y-114683333D01*
X162826190Y-114635714D01*
X162802380Y-114564285D01*
X162754761Y-114516666D01*
X162707142Y-114492857D01*
X162611904Y-114469047D01*
X162540476Y-114469047D01*
X162445238Y-114492857D01*
X162397619Y-114516666D01*
X162350000Y-114564285D01*
X162326190Y-114635714D01*
X162326190Y-114683333D01*
X162350000Y-114754761D01*
X162373809Y-114778571D01*
X162373809Y-114969047D02*
X162350000Y-114992857D01*
X162326190Y-115040476D01*
X162326190Y-115159523D01*
X162350000Y-115207142D01*
X162373809Y-115230952D01*
X162421428Y-115254761D01*
X162469047Y-115254761D01*
X162540476Y-115230952D01*
X162826190Y-114945238D01*
X162826190Y-115254761D01*
X162540476Y-115540476D02*
X162516666Y-115492857D01*
X162492857Y-115469047D01*
X162445238Y-115445238D01*
X162421428Y-115445238D01*
X162373809Y-115469047D01*
X162350000Y-115492857D01*
X162326190Y-115540476D01*
X162326190Y-115635714D01*
X162350000Y-115683333D01*
X162373809Y-115707142D01*
X162421428Y-115730952D01*
X162445238Y-115730952D01*
X162492857Y-115707142D01*
X162516666Y-115683333D01*
X162540476Y-115635714D01*
X162540476Y-115540476D01*
X162564285Y-115492857D01*
X162588095Y-115469047D01*
X162635714Y-115445238D01*
X162730952Y-115445238D01*
X162778571Y-115469047D01*
X162802380Y-115492857D01*
X162826190Y-115540476D01*
X162826190Y-115635714D01*
X162802380Y-115683333D01*
X162778571Y-115707142D01*
X162730952Y-115730952D01*
X162635714Y-115730952D01*
X162588095Y-115707142D01*
X162564285Y-115683333D01*
X162540476Y-115635714D01*
%TO.C,C26*%
X158322128Y-114288071D02*
X158345938Y-114311880D01*
X158417366Y-114335690D01*
X158464985Y-114335690D01*
X158536414Y-114311880D01*
X158584033Y-114264261D01*
X158607842Y-114216642D01*
X158631652Y-114121404D01*
X158631652Y-114049976D01*
X158607842Y-113954738D01*
X158584033Y-113907119D01*
X158536414Y-113859500D01*
X158464985Y-113835690D01*
X158417366Y-113835690D01*
X158345938Y-113859500D01*
X158322128Y-113883309D01*
X158131652Y-113883309D02*
X158107842Y-113859500D01*
X158060223Y-113835690D01*
X157941176Y-113835690D01*
X157893557Y-113859500D01*
X157869747Y-113883309D01*
X157845938Y-113930928D01*
X157845938Y-113978547D01*
X157869747Y-114049976D01*
X158155461Y-114335690D01*
X157845938Y-114335690D01*
X157417366Y-113835690D02*
X157512604Y-113835690D01*
X157560223Y-113859500D01*
X157584033Y-113883309D01*
X157631652Y-113954738D01*
X157655461Y-114049976D01*
X157655461Y-114240452D01*
X157631652Y-114288071D01*
X157607842Y-114311880D01*
X157560223Y-114335690D01*
X157464985Y-114335690D01*
X157417366Y-114311880D01*
X157393557Y-114288071D01*
X157369747Y-114240452D01*
X157369747Y-114121404D01*
X157393557Y-114073785D01*
X157417366Y-114049976D01*
X157464985Y-114026166D01*
X157560223Y-114026166D01*
X157607842Y-114049976D01*
X157631652Y-114073785D01*
X157655461Y-114121404D01*
%TO.C,C25*%
X147184228Y-118059971D02*
X147208038Y-118083780D01*
X147279466Y-118107590D01*
X147327085Y-118107590D01*
X147398514Y-118083780D01*
X147446133Y-118036161D01*
X147469942Y-117988542D01*
X147493752Y-117893304D01*
X147493752Y-117821876D01*
X147469942Y-117726638D01*
X147446133Y-117679019D01*
X147398514Y-117631400D01*
X147327085Y-117607590D01*
X147279466Y-117607590D01*
X147208038Y-117631400D01*
X147184228Y-117655209D01*
X146993752Y-117655209D02*
X146969942Y-117631400D01*
X146922323Y-117607590D01*
X146803276Y-117607590D01*
X146755657Y-117631400D01*
X146731847Y-117655209D01*
X146708038Y-117702828D01*
X146708038Y-117750447D01*
X146731847Y-117821876D01*
X147017561Y-118107590D01*
X146708038Y-118107590D01*
X146255657Y-117607590D02*
X146493752Y-117607590D01*
X146517561Y-117845685D01*
X146493752Y-117821876D01*
X146446133Y-117798066D01*
X146327085Y-117798066D01*
X146279466Y-117821876D01*
X146255657Y-117845685D01*
X146231847Y-117893304D01*
X146231847Y-118012352D01*
X146255657Y-118059971D01*
X146279466Y-118083780D01*
X146327085Y-118107590D01*
X146446133Y-118107590D01*
X146493752Y-118083780D01*
X146517561Y-118059971D01*
%TO.C,C24*%
X155705928Y-118110771D02*
X155729738Y-118134580D01*
X155801166Y-118158390D01*
X155848785Y-118158390D01*
X155920214Y-118134580D01*
X155967833Y-118086961D01*
X155991642Y-118039342D01*
X156015452Y-117944104D01*
X156015452Y-117872676D01*
X155991642Y-117777438D01*
X155967833Y-117729819D01*
X155920214Y-117682200D01*
X155848785Y-117658390D01*
X155801166Y-117658390D01*
X155729738Y-117682200D01*
X155705928Y-117706009D01*
X155515452Y-117706009D02*
X155491642Y-117682200D01*
X155444023Y-117658390D01*
X155324976Y-117658390D01*
X155277357Y-117682200D01*
X155253547Y-117706009D01*
X155229738Y-117753628D01*
X155229738Y-117801247D01*
X155253547Y-117872676D01*
X155539261Y-118158390D01*
X155229738Y-118158390D01*
X154801166Y-117825057D02*
X154801166Y-118158390D01*
X154920214Y-117634580D02*
X155039261Y-117991723D01*
X154729738Y-117991723D01*
%TO.C,R2*%
X157118833Y-100340290D02*
X157285500Y-100102195D01*
X157404547Y-100340290D02*
X157404547Y-99840290D01*
X157214071Y-99840290D01*
X157166452Y-99864100D01*
X157142642Y-99887909D01*
X157118833Y-99935528D01*
X157118833Y-100006957D01*
X157142642Y-100054576D01*
X157166452Y-100078385D01*
X157214071Y-100102195D01*
X157404547Y-100102195D01*
X156928357Y-99887909D02*
X156904547Y-99864100D01*
X156856928Y-99840290D01*
X156737880Y-99840290D01*
X156690261Y-99864100D01*
X156666452Y-99887909D01*
X156642642Y-99935528D01*
X156642642Y-99983147D01*
X156666452Y-100054576D01*
X156952166Y-100340290D01*
X156642642Y-100340290D01*
%TO.C,R1*%
X155582133Y-98841689D02*
X155748800Y-98603594D01*
X155867847Y-98841689D02*
X155867847Y-98341689D01*
X155677371Y-98341689D01*
X155629752Y-98365499D01*
X155605942Y-98389308D01*
X155582133Y-98436927D01*
X155582133Y-98508356D01*
X155605942Y-98555975D01*
X155629752Y-98579784D01*
X155677371Y-98603594D01*
X155867847Y-98603594D01*
X155105942Y-98841689D02*
X155391657Y-98841689D01*
X155248800Y-98841689D02*
X155248800Y-98341689D01*
X155296419Y-98413118D01*
X155344038Y-98460737D01*
X155391657Y-98484546D01*
%TO.C,C34*%
X132388728Y-111913171D02*
X132412538Y-111936980D01*
X132483966Y-111960790D01*
X132531585Y-111960790D01*
X132603014Y-111936980D01*
X132650633Y-111889361D01*
X132674442Y-111841742D01*
X132698252Y-111746504D01*
X132698252Y-111675076D01*
X132674442Y-111579838D01*
X132650633Y-111532219D01*
X132603014Y-111484600D01*
X132531585Y-111460790D01*
X132483966Y-111460790D01*
X132412538Y-111484600D01*
X132388728Y-111508409D01*
X132222061Y-111460790D02*
X131912538Y-111460790D01*
X132079204Y-111651266D01*
X132007776Y-111651266D01*
X131960157Y-111675076D01*
X131936347Y-111698885D01*
X131912538Y-111746504D01*
X131912538Y-111865552D01*
X131936347Y-111913171D01*
X131960157Y-111936980D01*
X132007776Y-111960790D01*
X132150633Y-111960790D01*
X132198252Y-111936980D01*
X132222061Y-111913171D01*
X131483966Y-111627457D02*
X131483966Y-111960790D01*
X131603014Y-111436980D02*
X131722061Y-111794123D01*
X131412538Y-111794123D01*
%TO.C,C33*%
X137227428Y-111646471D02*
X137251238Y-111670280D01*
X137322666Y-111694090D01*
X137370285Y-111694090D01*
X137441714Y-111670280D01*
X137489333Y-111622661D01*
X137513142Y-111575042D01*
X137536952Y-111479804D01*
X137536952Y-111408376D01*
X137513142Y-111313138D01*
X137489333Y-111265519D01*
X137441714Y-111217900D01*
X137370285Y-111194090D01*
X137322666Y-111194090D01*
X137251238Y-111217900D01*
X137227428Y-111241709D01*
X137060761Y-111194090D02*
X136751238Y-111194090D01*
X136917904Y-111384566D01*
X136846476Y-111384566D01*
X136798857Y-111408376D01*
X136775047Y-111432185D01*
X136751238Y-111479804D01*
X136751238Y-111598852D01*
X136775047Y-111646471D01*
X136798857Y-111670280D01*
X136846476Y-111694090D01*
X136989333Y-111694090D01*
X137036952Y-111670280D01*
X137060761Y-111646471D01*
X136584571Y-111194090D02*
X136275047Y-111194090D01*
X136441714Y-111384566D01*
X136370285Y-111384566D01*
X136322666Y-111408376D01*
X136298857Y-111432185D01*
X136275047Y-111479804D01*
X136275047Y-111598852D01*
X136298857Y-111646471D01*
X136322666Y-111670280D01*
X136370285Y-111694090D01*
X136513142Y-111694090D01*
X136560761Y-111670280D01*
X136584571Y-111646471D01*
%TO.C,C32*%
X132238571Y-95378571D02*
X132262380Y-95354761D01*
X132286190Y-95283333D01*
X132286190Y-95235714D01*
X132262380Y-95164285D01*
X132214761Y-95116666D01*
X132167142Y-95092857D01*
X132071904Y-95069047D01*
X132000476Y-95069047D01*
X131905238Y-95092857D01*
X131857619Y-95116666D01*
X131810000Y-95164285D01*
X131786190Y-95235714D01*
X131786190Y-95283333D01*
X131810000Y-95354761D01*
X131833809Y-95378571D01*
X131786190Y-95545238D02*
X131786190Y-95854761D01*
X131976666Y-95688095D01*
X131976666Y-95759523D01*
X132000476Y-95807142D01*
X132024285Y-95830952D01*
X132071904Y-95854761D01*
X132190952Y-95854761D01*
X132238571Y-95830952D01*
X132262380Y-95807142D01*
X132286190Y-95759523D01*
X132286190Y-95616666D01*
X132262380Y-95569047D01*
X132238571Y-95545238D01*
X131833809Y-96045238D02*
X131810000Y-96069047D01*
X131786190Y-96116666D01*
X131786190Y-96235714D01*
X131810000Y-96283333D01*
X131833809Y-96307142D01*
X131881428Y-96330952D01*
X131929047Y-96330952D01*
X132000476Y-96307142D01*
X132286190Y-96021428D01*
X132286190Y-96330952D01*
%TO.C,C31*%
X137038571Y-95378571D02*
X137062380Y-95354761D01*
X137086190Y-95283333D01*
X137086190Y-95235714D01*
X137062380Y-95164285D01*
X137014761Y-95116666D01*
X136967142Y-95092857D01*
X136871904Y-95069047D01*
X136800476Y-95069047D01*
X136705238Y-95092857D01*
X136657619Y-95116666D01*
X136610000Y-95164285D01*
X136586190Y-95235714D01*
X136586190Y-95283333D01*
X136610000Y-95354761D01*
X136633809Y-95378571D01*
X136586190Y-95545238D02*
X136586190Y-95854761D01*
X136776666Y-95688095D01*
X136776666Y-95759523D01*
X136800476Y-95807142D01*
X136824285Y-95830952D01*
X136871904Y-95854761D01*
X136990952Y-95854761D01*
X137038571Y-95830952D01*
X137062380Y-95807142D01*
X137086190Y-95759523D01*
X137086190Y-95616666D01*
X137062380Y-95569047D01*
X137038571Y-95545238D01*
X137086190Y-96330952D02*
X137086190Y-96045238D01*
X137086190Y-96188095D02*
X136586190Y-96188095D01*
X136657619Y-96140476D01*
X136705238Y-96092857D01*
X136729047Y-96045238D01*
%TO.C,C30*%
X141558128Y-111494071D02*
X141581938Y-111517880D01*
X141653366Y-111541690D01*
X141700985Y-111541690D01*
X141772414Y-111517880D01*
X141820033Y-111470261D01*
X141843842Y-111422642D01*
X141867652Y-111327404D01*
X141867652Y-111255976D01*
X141843842Y-111160738D01*
X141820033Y-111113119D01*
X141772414Y-111065500D01*
X141700985Y-111041690D01*
X141653366Y-111041690D01*
X141581938Y-111065500D01*
X141558128Y-111089309D01*
X141391461Y-111041690D02*
X141081938Y-111041690D01*
X141248604Y-111232166D01*
X141177176Y-111232166D01*
X141129557Y-111255976D01*
X141105747Y-111279785D01*
X141081938Y-111327404D01*
X141081938Y-111446452D01*
X141105747Y-111494071D01*
X141129557Y-111517880D01*
X141177176Y-111541690D01*
X141320033Y-111541690D01*
X141367652Y-111517880D01*
X141391461Y-111494071D01*
X140772414Y-111041690D02*
X140724795Y-111041690D01*
X140677176Y-111065500D01*
X140653366Y-111089309D01*
X140629557Y-111136928D01*
X140605747Y-111232166D01*
X140605747Y-111351214D01*
X140629557Y-111446452D01*
X140653366Y-111494071D01*
X140677176Y-111517880D01*
X140724795Y-111541690D01*
X140772414Y-111541690D01*
X140820033Y-111517880D01*
X140843842Y-111494071D01*
X140867652Y-111446452D01*
X140891461Y-111351214D01*
X140891461Y-111232166D01*
X140867652Y-111136928D01*
X140843842Y-111089309D01*
X140820033Y-111065500D01*
X140772414Y-111041690D01*
%TO.C,C27*%
X162278571Y-117028571D02*
X162302380Y-117004761D01*
X162326190Y-116933333D01*
X162326190Y-116885714D01*
X162302380Y-116814285D01*
X162254761Y-116766666D01*
X162207142Y-116742857D01*
X162111904Y-116719047D01*
X162040476Y-116719047D01*
X161945238Y-116742857D01*
X161897619Y-116766666D01*
X161850000Y-116814285D01*
X161826190Y-116885714D01*
X161826190Y-116933333D01*
X161850000Y-117004761D01*
X161873809Y-117028571D01*
X161873809Y-117219047D02*
X161850000Y-117242857D01*
X161826190Y-117290476D01*
X161826190Y-117409523D01*
X161850000Y-117457142D01*
X161873809Y-117480952D01*
X161921428Y-117504761D01*
X161969047Y-117504761D01*
X162040476Y-117480952D01*
X162326190Y-117195238D01*
X162326190Y-117504761D01*
X161826190Y-117671428D02*
X161826190Y-118004761D01*
X162326190Y-117790476D01*
%TO.C,C21*%
X120412628Y-112192571D02*
X120436438Y-112216380D01*
X120507866Y-112240190D01*
X120555485Y-112240190D01*
X120626914Y-112216380D01*
X120674533Y-112168761D01*
X120698342Y-112121142D01*
X120722152Y-112025904D01*
X120722152Y-111954476D01*
X120698342Y-111859238D01*
X120674533Y-111811619D01*
X120626914Y-111764000D01*
X120555485Y-111740190D01*
X120507866Y-111740190D01*
X120436438Y-111764000D01*
X120412628Y-111787809D01*
X120222152Y-111787809D02*
X120198342Y-111764000D01*
X120150723Y-111740190D01*
X120031676Y-111740190D01*
X119984057Y-111764000D01*
X119960247Y-111787809D01*
X119936438Y-111835428D01*
X119936438Y-111883047D01*
X119960247Y-111954476D01*
X120245961Y-112240190D01*
X119936438Y-112240190D01*
X119460247Y-112240190D02*
X119745961Y-112240190D01*
X119603104Y-112240190D02*
X119603104Y-111740190D01*
X119650723Y-111811619D01*
X119698342Y-111859238D01*
X119745961Y-111883047D01*
%TO.C,C18*%
X128337428Y-111989371D02*
X128361238Y-112013180D01*
X128432666Y-112036990D01*
X128480285Y-112036990D01*
X128551714Y-112013180D01*
X128599333Y-111965561D01*
X128623142Y-111917942D01*
X128646952Y-111822704D01*
X128646952Y-111751276D01*
X128623142Y-111656038D01*
X128599333Y-111608419D01*
X128551714Y-111560800D01*
X128480285Y-111536990D01*
X128432666Y-111536990D01*
X128361238Y-111560800D01*
X128337428Y-111584609D01*
X127861238Y-112036990D02*
X128146952Y-112036990D01*
X128004095Y-112036990D02*
X128004095Y-111536990D01*
X128051714Y-111608419D01*
X128099333Y-111656038D01*
X128146952Y-111679847D01*
X127575523Y-111751276D02*
X127623142Y-111727466D01*
X127646952Y-111703657D01*
X127670761Y-111656038D01*
X127670761Y-111632228D01*
X127646952Y-111584609D01*
X127623142Y-111560800D01*
X127575523Y-111536990D01*
X127480285Y-111536990D01*
X127432666Y-111560800D01*
X127408857Y-111584609D01*
X127385047Y-111632228D01*
X127385047Y-111656038D01*
X127408857Y-111703657D01*
X127432666Y-111727466D01*
X127480285Y-111751276D01*
X127575523Y-111751276D01*
X127623142Y-111775085D01*
X127646952Y-111798895D01*
X127670761Y-111846514D01*
X127670761Y-111941752D01*
X127646952Y-111989371D01*
X127623142Y-112013180D01*
X127575523Y-112036990D01*
X127480285Y-112036990D01*
X127432666Y-112013180D01*
X127408857Y-111989371D01*
X127385047Y-111941752D01*
X127385047Y-111846514D01*
X127408857Y-111798895D01*
X127432666Y-111775085D01*
X127480285Y-111751276D01*
%TO.C,C16*%
X150041728Y-98286071D02*
X150065538Y-98309880D01*
X150136966Y-98333690D01*
X150184585Y-98333690D01*
X150256014Y-98309880D01*
X150303633Y-98262261D01*
X150327442Y-98214642D01*
X150351252Y-98119404D01*
X150351252Y-98047976D01*
X150327442Y-97952738D01*
X150303633Y-97905119D01*
X150256014Y-97857500D01*
X150184585Y-97833690D01*
X150136966Y-97833690D01*
X150065538Y-97857500D01*
X150041728Y-97881309D01*
X149565538Y-98333690D02*
X149851252Y-98333690D01*
X149708395Y-98333690D02*
X149708395Y-97833690D01*
X149756014Y-97905119D01*
X149803633Y-97952738D01*
X149851252Y-97976547D01*
X149136966Y-97833690D02*
X149232204Y-97833690D01*
X149279823Y-97857500D01*
X149303633Y-97881309D01*
X149351252Y-97952738D01*
X149375061Y-98047976D01*
X149375061Y-98238452D01*
X149351252Y-98286071D01*
X149327442Y-98309880D01*
X149279823Y-98333690D01*
X149184585Y-98333690D01*
X149136966Y-98309880D01*
X149113157Y-98286071D01*
X149089347Y-98238452D01*
X149089347Y-98119404D01*
X149113157Y-98071785D01*
X149136966Y-98047976D01*
X149184585Y-98024166D01*
X149279823Y-98024166D01*
X149327442Y-98047976D01*
X149351252Y-98071785D01*
X149375061Y-98119404D01*
%TO.C,C11*%
X150511628Y-97549471D02*
X150535438Y-97573280D01*
X150606866Y-97597090D01*
X150654485Y-97597090D01*
X150725914Y-97573280D01*
X150773533Y-97525661D01*
X150797342Y-97478042D01*
X150821152Y-97382804D01*
X150821152Y-97311376D01*
X150797342Y-97216138D01*
X150773533Y-97168519D01*
X150725914Y-97120900D01*
X150654485Y-97097090D01*
X150606866Y-97097090D01*
X150535438Y-97120900D01*
X150511628Y-97144709D01*
X150035438Y-97597090D02*
X150321152Y-97597090D01*
X150178295Y-97597090D02*
X150178295Y-97097090D01*
X150225914Y-97168519D01*
X150273533Y-97216138D01*
X150321152Y-97239947D01*
X149559247Y-97597090D02*
X149844961Y-97597090D01*
X149702104Y-97597090D02*
X149702104Y-97097090D01*
X149749723Y-97168519D01*
X149797342Y-97216138D01*
X149844961Y-97239947D01*
%TO.C,C9*%
X146869933Y-98882971D02*
X146893742Y-98906780D01*
X146965171Y-98930590D01*
X147012790Y-98930590D01*
X147084219Y-98906780D01*
X147131838Y-98859161D01*
X147155647Y-98811542D01*
X147179457Y-98716304D01*
X147179457Y-98644876D01*
X147155647Y-98549638D01*
X147131838Y-98502019D01*
X147084219Y-98454400D01*
X147012790Y-98430590D01*
X146965171Y-98430590D01*
X146893742Y-98454400D01*
X146869933Y-98478209D01*
X146631838Y-98930590D02*
X146536600Y-98930590D01*
X146488980Y-98906780D01*
X146465171Y-98882971D01*
X146417552Y-98811542D01*
X146393742Y-98716304D01*
X146393742Y-98525828D01*
X146417552Y-98478209D01*
X146441361Y-98454400D01*
X146488980Y-98430590D01*
X146584219Y-98430590D01*
X146631838Y-98454400D01*
X146655647Y-98478209D01*
X146679457Y-98525828D01*
X146679457Y-98644876D01*
X146655647Y-98692495D01*
X146631838Y-98716304D01*
X146584219Y-98740114D01*
X146488980Y-98740114D01*
X146441361Y-98716304D01*
X146417552Y-98692495D01*
X146393742Y-98644876D01*
%TO.C,C7*%
X156331433Y-99543371D02*
X156355242Y-99567180D01*
X156426671Y-99590990D01*
X156474290Y-99590990D01*
X156545719Y-99567180D01*
X156593338Y-99519561D01*
X156617147Y-99471942D01*
X156640957Y-99376704D01*
X156640957Y-99305276D01*
X156617147Y-99210038D01*
X156593338Y-99162419D01*
X156545719Y-99114800D01*
X156474290Y-99090990D01*
X156426671Y-99090990D01*
X156355242Y-99114800D01*
X156331433Y-99138609D01*
X156164766Y-99090990D02*
X155831433Y-99090990D01*
X156045719Y-99590990D01*
%TO.C,C5*%
X147631933Y-99644971D02*
X147655742Y-99668780D01*
X147727171Y-99692590D01*
X147774790Y-99692590D01*
X147846219Y-99668780D01*
X147893838Y-99621161D01*
X147917647Y-99573542D01*
X147941457Y-99478304D01*
X147941457Y-99406876D01*
X147917647Y-99311638D01*
X147893838Y-99264019D01*
X147846219Y-99216400D01*
X147774790Y-99192590D01*
X147727171Y-99192590D01*
X147655742Y-99216400D01*
X147631933Y-99240209D01*
X147179552Y-99192590D02*
X147417647Y-99192590D01*
X147441457Y-99430685D01*
X147417647Y-99406876D01*
X147370028Y-99383066D01*
X147250980Y-99383066D01*
X147203361Y-99406876D01*
X147179552Y-99430685D01*
X147155742Y-99478304D01*
X147155742Y-99597352D01*
X147179552Y-99644971D01*
X147203361Y-99668780D01*
X147250980Y-99692590D01*
X147370028Y-99692590D01*
X147417647Y-99668780D01*
X147441457Y-99644971D01*
%TO.C,D28*%
X177899142Y-99108390D02*
X177899142Y-98608390D01*
X177780095Y-98608390D01*
X177708666Y-98632200D01*
X177661047Y-98679819D01*
X177637238Y-98727438D01*
X177613428Y-98822676D01*
X177613428Y-98894104D01*
X177637238Y-98989342D01*
X177661047Y-99036961D01*
X177708666Y-99084580D01*
X177780095Y-99108390D01*
X177899142Y-99108390D01*
X177422952Y-98656009D02*
X177399142Y-98632200D01*
X177351523Y-98608390D01*
X177232476Y-98608390D01*
X177184857Y-98632200D01*
X177161047Y-98656009D01*
X177137238Y-98703628D01*
X177137238Y-98751247D01*
X177161047Y-98822676D01*
X177446761Y-99108390D01*
X177137238Y-99108390D01*
X176851523Y-98822676D02*
X176899142Y-98798866D01*
X176922952Y-98775057D01*
X176946761Y-98727438D01*
X176946761Y-98703628D01*
X176922952Y-98656009D01*
X176899142Y-98632200D01*
X176851523Y-98608390D01*
X176756285Y-98608390D01*
X176708666Y-98632200D01*
X176684857Y-98656009D01*
X176661047Y-98703628D01*
X176661047Y-98727438D01*
X176684857Y-98775057D01*
X176708666Y-98798866D01*
X176756285Y-98822676D01*
X176851523Y-98822676D01*
X176899142Y-98846485D01*
X176922952Y-98870295D01*
X176946761Y-98917914D01*
X176946761Y-99013152D01*
X176922952Y-99060771D01*
X176899142Y-99084580D01*
X176851523Y-99108390D01*
X176756285Y-99108390D01*
X176708666Y-99084580D01*
X176684857Y-99060771D01*
X176661047Y-99013152D01*
X176661047Y-98917914D01*
X176684857Y-98870295D01*
X176708666Y-98846485D01*
X176756285Y-98822676D01*
%TO.C,D29*%
X112379842Y-111528990D02*
X112379842Y-111028990D01*
X112260795Y-111028990D01*
X112189366Y-111052800D01*
X112141747Y-111100419D01*
X112117938Y-111148038D01*
X112094128Y-111243276D01*
X112094128Y-111314704D01*
X112117938Y-111409942D01*
X112141747Y-111457561D01*
X112189366Y-111505180D01*
X112260795Y-111528990D01*
X112379842Y-111528990D01*
X111903652Y-111076609D02*
X111879842Y-111052800D01*
X111832223Y-111028990D01*
X111713176Y-111028990D01*
X111665557Y-111052800D01*
X111641747Y-111076609D01*
X111617938Y-111124228D01*
X111617938Y-111171847D01*
X111641747Y-111243276D01*
X111927461Y-111528990D01*
X111617938Y-111528990D01*
X111379842Y-111528990D02*
X111284604Y-111528990D01*
X111236985Y-111505180D01*
X111213176Y-111481371D01*
X111165557Y-111409942D01*
X111141747Y-111314704D01*
X111141747Y-111124228D01*
X111165557Y-111076609D01*
X111189366Y-111052800D01*
X111236985Y-111028990D01*
X111332223Y-111028990D01*
X111379842Y-111052800D01*
X111403652Y-111076609D01*
X111427461Y-111124228D01*
X111427461Y-111243276D01*
X111403652Y-111290895D01*
X111379842Y-111314704D01*
X111332223Y-111338514D01*
X111236985Y-111338514D01*
X111189366Y-111314704D01*
X111165557Y-111290895D01*
X111141747Y-111243276D01*
%TO.C,D27*%
X177848342Y-97812990D02*
X177848342Y-97312990D01*
X177729295Y-97312990D01*
X177657866Y-97336800D01*
X177610247Y-97384419D01*
X177586438Y-97432038D01*
X177562628Y-97527276D01*
X177562628Y-97598704D01*
X177586438Y-97693942D01*
X177610247Y-97741561D01*
X177657866Y-97789180D01*
X177729295Y-97812990D01*
X177848342Y-97812990D01*
X177372152Y-97360609D02*
X177348342Y-97336800D01*
X177300723Y-97312990D01*
X177181676Y-97312990D01*
X177134057Y-97336800D01*
X177110247Y-97360609D01*
X177086438Y-97408228D01*
X177086438Y-97455847D01*
X177110247Y-97527276D01*
X177395961Y-97812990D01*
X177086438Y-97812990D01*
X176919771Y-97312990D02*
X176586438Y-97312990D01*
X176800723Y-97812990D01*
%TO.C,D26*%
X177162590Y-100649957D02*
X176662590Y-100649957D01*
X176662590Y-100769004D01*
X176686400Y-100840433D01*
X176734019Y-100888052D01*
X176781638Y-100911861D01*
X176876876Y-100935671D01*
X176948304Y-100935671D01*
X177043542Y-100911861D01*
X177091161Y-100888052D01*
X177138780Y-100840433D01*
X177162590Y-100769004D01*
X177162590Y-100649957D01*
X176710209Y-101126147D02*
X176686400Y-101149957D01*
X176662590Y-101197576D01*
X176662590Y-101316623D01*
X176686400Y-101364242D01*
X176710209Y-101388052D01*
X176757828Y-101411861D01*
X176805447Y-101411861D01*
X176876876Y-101388052D01*
X177162590Y-101102338D01*
X177162590Y-101411861D01*
X176662590Y-101840433D02*
X176662590Y-101745195D01*
X176686400Y-101697576D01*
X176710209Y-101673766D01*
X176781638Y-101626147D01*
X176876876Y-101602338D01*
X177067352Y-101602338D01*
X177114971Y-101626147D01*
X177138780Y-101649957D01*
X177162590Y-101697576D01*
X177162590Y-101792814D01*
X177138780Y-101840433D01*
X177114971Y-101864242D01*
X177067352Y-101888052D01*
X176948304Y-101888052D01*
X176900685Y-101864242D01*
X176876876Y-101840433D01*
X176853066Y-101792814D01*
X176853066Y-101697576D01*
X176876876Y-101649957D01*
X176900685Y-101626147D01*
X176948304Y-101602338D01*
%TO.C,D25*%
X175181342Y-103515290D02*
X175181342Y-103015290D01*
X175062295Y-103015290D01*
X174990866Y-103039100D01*
X174943247Y-103086719D01*
X174919438Y-103134338D01*
X174895628Y-103229576D01*
X174895628Y-103301004D01*
X174919438Y-103396242D01*
X174943247Y-103443861D01*
X174990866Y-103491480D01*
X175062295Y-103515290D01*
X175181342Y-103515290D01*
X174705152Y-103062909D02*
X174681342Y-103039100D01*
X174633723Y-103015290D01*
X174514676Y-103015290D01*
X174467057Y-103039100D01*
X174443247Y-103062909D01*
X174419438Y-103110528D01*
X174419438Y-103158147D01*
X174443247Y-103229576D01*
X174728961Y-103515290D01*
X174419438Y-103515290D01*
X173967057Y-103015290D02*
X174205152Y-103015290D01*
X174228961Y-103253385D01*
X174205152Y-103229576D01*
X174157533Y-103205766D01*
X174038485Y-103205766D01*
X173990866Y-103229576D01*
X173967057Y-103253385D01*
X173943247Y-103301004D01*
X173943247Y-103420052D01*
X173967057Y-103467671D01*
X173990866Y-103491480D01*
X174038485Y-103515290D01*
X174157533Y-103515290D01*
X174205152Y-103491480D01*
X174228961Y-103467671D01*
%TO.C,D23*%
X174482842Y-105280590D02*
X174482842Y-104780590D01*
X174363795Y-104780590D01*
X174292366Y-104804400D01*
X174244747Y-104852019D01*
X174220938Y-104899638D01*
X174197128Y-104994876D01*
X174197128Y-105066304D01*
X174220938Y-105161542D01*
X174244747Y-105209161D01*
X174292366Y-105256780D01*
X174363795Y-105280590D01*
X174482842Y-105280590D01*
X174006652Y-104828209D02*
X173982842Y-104804400D01*
X173935223Y-104780590D01*
X173816176Y-104780590D01*
X173768557Y-104804400D01*
X173744747Y-104828209D01*
X173720938Y-104875828D01*
X173720938Y-104923447D01*
X173744747Y-104994876D01*
X174030461Y-105280590D01*
X173720938Y-105280590D01*
X173554271Y-104780590D02*
X173244747Y-104780590D01*
X173411414Y-104971066D01*
X173339985Y-104971066D01*
X173292366Y-104994876D01*
X173268557Y-105018685D01*
X173244747Y-105066304D01*
X173244747Y-105185352D01*
X173268557Y-105232971D01*
X173292366Y-105256780D01*
X173339985Y-105280590D01*
X173482842Y-105280590D01*
X173530461Y-105256780D01*
X173554271Y-105232971D01*
%TO.C,D21*%
X174419342Y-108341290D02*
X174419342Y-107841290D01*
X174300295Y-107841290D01*
X174228866Y-107865100D01*
X174181247Y-107912719D01*
X174157438Y-107960338D01*
X174133628Y-108055576D01*
X174133628Y-108127004D01*
X174157438Y-108222242D01*
X174181247Y-108269861D01*
X174228866Y-108317480D01*
X174300295Y-108341290D01*
X174419342Y-108341290D01*
X173943152Y-107888909D02*
X173919342Y-107865100D01*
X173871723Y-107841290D01*
X173752676Y-107841290D01*
X173705057Y-107865100D01*
X173681247Y-107888909D01*
X173657438Y-107936528D01*
X173657438Y-107984147D01*
X173681247Y-108055576D01*
X173966961Y-108341290D01*
X173657438Y-108341290D01*
X173181247Y-108341290D02*
X173466961Y-108341290D01*
X173324104Y-108341290D02*
X173324104Y-107841290D01*
X173371723Y-107912719D01*
X173419342Y-107960338D01*
X173466961Y-107984147D01*
%TO.C,D20*%
X112468742Y-112697390D02*
X112468742Y-112197390D01*
X112349695Y-112197390D01*
X112278266Y-112221200D01*
X112230647Y-112268819D01*
X112206838Y-112316438D01*
X112183028Y-112411676D01*
X112183028Y-112483104D01*
X112206838Y-112578342D01*
X112230647Y-112625961D01*
X112278266Y-112673580D01*
X112349695Y-112697390D01*
X112468742Y-112697390D01*
X111992552Y-112245009D02*
X111968742Y-112221200D01*
X111921123Y-112197390D01*
X111802076Y-112197390D01*
X111754457Y-112221200D01*
X111730647Y-112245009D01*
X111706838Y-112292628D01*
X111706838Y-112340247D01*
X111730647Y-112411676D01*
X112016361Y-112697390D01*
X111706838Y-112697390D01*
X111397314Y-112197390D02*
X111349695Y-112197390D01*
X111302076Y-112221200D01*
X111278266Y-112245009D01*
X111254457Y-112292628D01*
X111230647Y-112387866D01*
X111230647Y-112506914D01*
X111254457Y-112602152D01*
X111278266Y-112649771D01*
X111302076Y-112673580D01*
X111349695Y-112697390D01*
X111397314Y-112697390D01*
X111444933Y-112673580D01*
X111468742Y-112649771D01*
X111492552Y-112602152D01*
X111516361Y-112506914D01*
X111516361Y-112387866D01*
X111492552Y-112292628D01*
X111468742Y-112245009D01*
X111444933Y-112221200D01*
X111397314Y-112197390D01*
%TO.C,D19*%
X115224642Y-109369990D02*
X115224642Y-108869990D01*
X115105595Y-108869990D01*
X115034166Y-108893800D01*
X114986547Y-108941419D01*
X114962738Y-108989038D01*
X114938928Y-109084276D01*
X114938928Y-109155704D01*
X114962738Y-109250942D01*
X114986547Y-109298561D01*
X115034166Y-109346180D01*
X115105595Y-109369990D01*
X115224642Y-109369990D01*
X114462738Y-109369990D02*
X114748452Y-109369990D01*
X114605595Y-109369990D02*
X114605595Y-108869990D01*
X114653214Y-108941419D01*
X114700833Y-108989038D01*
X114748452Y-109012847D01*
X114224642Y-109369990D02*
X114129404Y-109369990D01*
X114081785Y-109346180D01*
X114057976Y-109322371D01*
X114010357Y-109250942D01*
X113986547Y-109155704D01*
X113986547Y-108965228D01*
X114010357Y-108917609D01*
X114034166Y-108893800D01*
X114081785Y-108869990D01*
X114177023Y-108869990D01*
X114224642Y-108893800D01*
X114248452Y-108917609D01*
X114272261Y-108965228D01*
X114272261Y-109084276D01*
X114248452Y-109131895D01*
X114224642Y-109155704D01*
X114177023Y-109179514D01*
X114081785Y-109179514D01*
X114034166Y-109155704D01*
X114010357Y-109131895D01*
X113986547Y-109084276D01*
%TO.C,D18*%
X115084942Y-107071290D02*
X115084942Y-106571290D01*
X114965895Y-106571290D01*
X114894466Y-106595100D01*
X114846847Y-106642719D01*
X114823038Y-106690338D01*
X114799228Y-106785576D01*
X114799228Y-106857004D01*
X114823038Y-106952242D01*
X114846847Y-106999861D01*
X114894466Y-107047480D01*
X114965895Y-107071290D01*
X115084942Y-107071290D01*
X114323038Y-107071290D02*
X114608752Y-107071290D01*
X114465895Y-107071290D02*
X114465895Y-106571290D01*
X114513514Y-106642719D01*
X114561133Y-106690338D01*
X114608752Y-106714147D01*
X114037323Y-106785576D02*
X114084942Y-106761766D01*
X114108752Y-106737957D01*
X114132561Y-106690338D01*
X114132561Y-106666528D01*
X114108752Y-106618909D01*
X114084942Y-106595100D01*
X114037323Y-106571290D01*
X113942085Y-106571290D01*
X113894466Y-106595100D01*
X113870657Y-106618909D01*
X113846847Y-106666528D01*
X113846847Y-106690338D01*
X113870657Y-106737957D01*
X113894466Y-106761766D01*
X113942085Y-106785576D01*
X114037323Y-106785576D01*
X114084942Y-106809385D01*
X114108752Y-106833195D01*
X114132561Y-106880814D01*
X114132561Y-106976052D01*
X114108752Y-107023671D01*
X114084942Y-107047480D01*
X114037323Y-107071290D01*
X113942085Y-107071290D01*
X113894466Y-107047480D01*
X113870657Y-107023671D01*
X113846847Y-106976052D01*
X113846847Y-106880814D01*
X113870657Y-106833195D01*
X113894466Y-106809385D01*
X113942085Y-106785576D01*
%TO.C,D17*%
X175105142Y-102448490D02*
X175105142Y-101948490D01*
X174986095Y-101948490D01*
X174914666Y-101972300D01*
X174867047Y-102019919D01*
X174843238Y-102067538D01*
X174819428Y-102162776D01*
X174819428Y-102234204D01*
X174843238Y-102329442D01*
X174867047Y-102377061D01*
X174914666Y-102424680D01*
X174986095Y-102448490D01*
X175105142Y-102448490D01*
X174343238Y-102448490D02*
X174628952Y-102448490D01*
X174486095Y-102448490D02*
X174486095Y-101948490D01*
X174533714Y-102019919D01*
X174581333Y-102067538D01*
X174628952Y-102091347D01*
X174176571Y-101948490D02*
X173843238Y-101948490D01*
X174057523Y-102448490D01*
%TO.C,D16*%
X177873742Y-100137090D02*
X177873742Y-99637090D01*
X177754695Y-99637090D01*
X177683266Y-99660900D01*
X177635647Y-99708519D01*
X177611838Y-99756138D01*
X177588028Y-99851376D01*
X177588028Y-99922804D01*
X177611838Y-100018042D01*
X177635647Y-100065661D01*
X177683266Y-100113280D01*
X177754695Y-100137090D01*
X177873742Y-100137090D01*
X177111838Y-100137090D02*
X177397552Y-100137090D01*
X177254695Y-100137090D02*
X177254695Y-99637090D01*
X177302314Y-99708519D01*
X177349933Y-99756138D01*
X177397552Y-99779947D01*
X176683266Y-99637090D02*
X176778504Y-99637090D01*
X176826123Y-99660900D01*
X176849933Y-99684709D01*
X176897552Y-99756138D01*
X176921361Y-99851376D01*
X176921361Y-100041852D01*
X176897552Y-100089471D01*
X176873742Y-100113280D01*
X176826123Y-100137090D01*
X176730885Y-100137090D01*
X176683266Y-100113280D01*
X176659457Y-100089471D01*
X176635647Y-100041852D01*
X176635647Y-99922804D01*
X176659457Y-99875185D01*
X176683266Y-99851376D01*
X176730885Y-99827566D01*
X176826123Y-99827566D01*
X176873742Y-99851376D01*
X176897552Y-99875185D01*
X176921361Y-99922804D01*
%TO.C,D14*%
X174470142Y-107083990D02*
X174470142Y-106583990D01*
X174351095Y-106583990D01*
X174279666Y-106607800D01*
X174232047Y-106655419D01*
X174208238Y-106703038D01*
X174184428Y-106798276D01*
X174184428Y-106869704D01*
X174208238Y-106964942D01*
X174232047Y-107012561D01*
X174279666Y-107060180D01*
X174351095Y-107083990D01*
X174470142Y-107083990D01*
X173708238Y-107083990D02*
X173993952Y-107083990D01*
X173851095Y-107083990D02*
X173851095Y-106583990D01*
X173898714Y-106655419D01*
X173946333Y-106703038D01*
X173993952Y-106726847D01*
X173279666Y-106750657D02*
X173279666Y-107083990D01*
X173398714Y-106560180D02*
X173517761Y-106917323D01*
X173208238Y-106917323D01*
%TO.C,D12*%
X115872846Y-104714990D02*
X115872846Y-104214990D01*
X115753799Y-104214990D01*
X115682370Y-104238800D01*
X115634751Y-104286419D01*
X115610942Y-104334038D01*
X115587132Y-104429276D01*
X115587132Y-104500704D01*
X115610942Y-104595942D01*
X115634751Y-104643561D01*
X115682370Y-104691180D01*
X115753799Y-104714990D01*
X115872846Y-104714990D01*
X115110942Y-104714990D02*
X115396656Y-104714990D01*
X115253799Y-104714990D02*
X115253799Y-104214990D01*
X115301418Y-104286419D01*
X115349037Y-104334038D01*
X115396656Y-104357847D01*
X114920465Y-104262609D02*
X114896656Y-104238800D01*
X114849037Y-104214990D01*
X114729989Y-104214990D01*
X114682370Y-104238800D01*
X114658561Y-104262609D01*
X114634751Y-104310228D01*
X114634751Y-104357847D01*
X114658561Y-104429276D01*
X114944275Y-104714990D01*
X114634751Y-104714990D01*
%TO.C,D10*%
X115862846Y-101902390D02*
X115862846Y-101402390D01*
X115743799Y-101402390D01*
X115672370Y-101426200D01*
X115624751Y-101473819D01*
X115600942Y-101521438D01*
X115577132Y-101616676D01*
X115577132Y-101688104D01*
X115600942Y-101783342D01*
X115624751Y-101830961D01*
X115672370Y-101878580D01*
X115743799Y-101902390D01*
X115862846Y-101902390D01*
X115100942Y-101902390D02*
X115386656Y-101902390D01*
X115243799Y-101902390D02*
X115243799Y-101402390D01*
X115291418Y-101473819D01*
X115339037Y-101521438D01*
X115386656Y-101545247D01*
X114791418Y-101402390D02*
X114743799Y-101402390D01*
X114696180Y-101426200D01*
X114672370Y-101450009D01*
X114648561Y-101497628D01*
X114624751Y-101592866D01*
X114624751Y-101711914D01*
X114648561Y-101807152D01*
X114672370Y-101854771D01*
X114696180Y-101878580D01*
X114743799Y-101902390D01*
X114791418Y-101902390D01*
X114839037Y-101878580D01*
X114862846Y-101854771D01*
X114886656Y-101807152D01*
X114910465Y-101711914D01*
X114910465Y-101592866D01*
X114886656Y-101497628D01*
X114862846Y-101450009D01*
X114839037Y-101426200D01*
X114791418Y-101402390D01*
%TO.C,D8*%
X174447947Y-110068490D02*
X174447947Y-109568490D01*
X174328900Y-109568490D01*
X174257471Y-109592300D01*
X174209852Y-109639919D01*
X174186042Y-109687538D01*
X174162233Y-109782776D01*
X174162233Y-109854204D01*
X174186042Y-109949442D01*
X174209852Y-109997061D01*
X174257471Y-110044680D01*
X174328900Y-110068490D01*
X174447947Y-110068490D01*
X173876519Y-109782776D02*
X173924138Y-109758966D01*
X173947947Y-109735157D01*
X173971757Y-109687538D01*
X173971757Y-109663728D01*
X173947947Y-109616109D01*
X173924138Y-109592300D01*
X173876519Y-109568490D01*
X173781280Y-109568490D01*
X173733661Y-109592300D01*
X173709852Y-109616109D01*
X173686042Y-109663728D01*
X173686042Y-109687538D01*
X173709852Y-109735157D01*
X173733661Y-109758966D01*
X173781280Y-109782776D01*
X173876519Y-109782776D01*
X173924138Y-109806585D01*
X173947947Y-109830395D01*
X173971757Y-109878014D01*
X173971757Y-109973252D01*
X173947947Y-110020871D01*
X173924138Y-110044680D01*
X173876519Y-110068490D01*
X173781280Y-110068490D01*
X173733661Y-110044680D01*
X173709852Y-110020871D01*
X173686042Y-109973252D01*
X173686042Y-109878014D01*
X173709852Y-109830395D01*
X173733661Y-109806585D01*
X173781280Y-109782776D01*
%TO.C,D7*%
X115050047Y-108480990D02*
X115050047Y-107980990D01*
X114931000Y-107980990D01*
X114859571Y-108004800D01*
X114811952Y-108052419D01*
X114788142Y-108100038D01*
X114764333Y-108195276D01*
X114764333Y-108266704D01*
X114788142Y-108361942D01*
X114811952Y-108409561D01*
X114859571Y-108457180D01*
X114931000Y-108480990D01*
X115050047Y-108480990D01*
X114597666Y-107980990D02*
X114264333Y-107980990D01*
X114478619Y-108480990D01*
%TO.C,D6*%
X112497347Y-110347890D02*
X112497347Y-109847890D01*
X112378300Y-109847890D01*
X112306871Y-109871700D01*
X112259252Y-109919319D01*
X112235442Y-109966938D01*
X112211633Y-110062176D01*
X112211633Y-110133604D01*
X112235442Y-110228842D01*
X112259252Y-110276461D01*
X112306871Y-110324080D01*
X112378300Y-110347890D01*
X112497347Y-110347890D01*
X111783061Y-109847890D02*
X111878300Y-109847890D01*
X111925919Y-109871700D01*
X111949728Y-109895509D01*
X111997347Y-109966938D01*
X112021157Y-110062176D01*
X112021157Y-110252652D01*
X111997347Y-110300271D01*
X111973538Y-110324080D01*
X111925919Y-110347890D01*
X111830680Y-110347890D01*
X111783061Y-110324080D01*
X111759252Y-110300271D01*
X111735442Y-110252652D01*
X111735442Y-110133604D01*
X111759252Y-110085985D01*
X111783061Y-110062176D01*
X111830680Y-110038366D01*
X111925919Y-110038366D01*
X111973538Y-110062176D01*
X111997347Y-110085985D01*
X112021157Y-110133604D01*
%TO.C,D4*%
X115872847Y-103417790D02*
X115872847Y-102917790D01*
X115753800Y-102917790D01*
X115682371Y-102941600D01*
X115634752Y-102989219D01*
X115610942Y-103036838D01*
X115587133Y-103132076D01*
X115587133Y-103203504D01*
X115610942Y-103298742D01*
X115634752Y-103346361D01*
X115682371Y-103393980D01*
X115753800Y-103417790D01*
X115872847Y-103417790D01*
X115158561Y-103084457D02*
X115158561Y-103417790D01*
X115277609Y-102893980D02*
X115396657Y-103251123D01*
X115087133Y-103251123D01*
%TO.C,D2*%
X115862847Y-100060890D02*
X115862847Y-99560890D01*
X115743800Y-99560890D01*
X115672371Y-99584700D01*
X115624752Y-99632319D01*
X115600942Y-99679938D01*
X115577133Y-99775176D01*
X115577133Y-99846604D01*
X115600942Y-99941842D01*
X115624752Y-99989461D01*
X115672371Y-100037080D01*
X115743800Y-100060890D01*
X115862847Y-100060890D01*
X115386657Y-99608509D02*
X115362847Y-99584700D01*
X115315228Y-99560890D01*
X115196180Y-99560890D01*
X115148561Y-99584700D01*
X115124752Y-99608509D01*
X115100942Y-99656128D01*
X115100942Y-99703747D01*
X115124752Y-99775176D01*
X115410466Y-100060890D01*
X115100942Y-100060890D01*
%TO.C,J4*%
X181586666Y-113406190D02*
X181586666Y-113763333D01*
X181610476Y-113834761D01*
X181658095Y-113882380D01*
X181729523Y-113906190D01*
X181777142Y-113906190D01*
X181134285Y-113572857D02*
X181134285Y-113906190D01*
X181253333Y-113382380D02*
X181372380Y-113739523D01*
X181062857Y-113739523D01*
%TO.C,J2*%
X107557866Y-113332490D02*
X107557866Y-113689633D01*
X107581676Y-113761061D01*
X107629295Y-113808680D01*
X107700723Y-113832490D01*
X107748342Y-113832490D01*
X107343580Y-113380109D02*
X107319771Y-113356300D01*
X107272152Y-113332490D01*
X107153104Y-113332490D01*
X107105485Y-113356300D01*
X107081676Y-113380109D01*
X107057866Y-113427728D01*
X107057866Y-113475347D01*
X107081676Y-113546776D01*
X107367390Y-113832490D01*
X107057866Y-113832490D01*
%TO.C,U4*%
X160312952Y-115026190D02*
X160312952Y-115430952D01*
X160289142Y-115478571D01*
X160265333Y-115502380D01*
X160217714Y-115526190D01*
X160122476Y-115526190D01*
X160074857Y-115502380D01*
X160051047Y-115478571D01*
X160027238Y-115430952D01*
X160027238Y-115026190D01*
X159574857Y-115192857D02*
X159574857Y-115526190D01*
X159693904Y-115002380D02*
X159812952Y-115359523D01*
X159503428Y-115359523D01*
%TO.C,U3*%
X151676052Y-115308890D02*
X151676052Y-115713652D01*
X151652242Y-115761271D01*
X151628433Y-115785080D01*
X151580814Y-115808890D01*
X151485576Y-115808890D01*
X151437957Y-115785080D01*
X151414147Y-115761271D01*
X151390338Y-115713652D01*
X151390338Y-115308890D01*
X151199861Y-115308890D02*
X150890338Y-115308890D01*
X151057004Y-115499366D01*
X150985576Y-115499366D01*
X150937957Y-115523176D01*
X150914147Y-115546985D01*
X150890338Y-115594604D01*
X150890338Y-115713652D01*
X150914147Y-115761271D01*
X150937957Y-115785080D01*
X150985576Y-115808890D01*
X151128433Y-115808890D01*
X151176052Y-115785080D01*
X151199861Y-115761271D01*
%TD*%
M02*
